  0
SECTION
  2
HEADER
  9
$ANGBASE
  50
0.0
  9
$ANGDIR
  70
1
  9
$MEASUREMENT
  70
1
  0
ENDSEC
  0
SECTION
  2
TABLES
  0
TABLE
  2
LTYPE
  70
4
  0
LTYPE
  5
40F
  2
CONTINUOUS
  70
0
  3
Solid line
  72
65
  73
0
  40
0.0
  0
LTYPE
  5
410
  2
DASHDOT
 70
0
  3
Dash Dot ____ _ ____ _
 72
65
 73
4
 40
2.0
 49
1.25
 49
-0.25
 49
0.25
 49
-0.25
  0
LTYPE
  5
411
  2
DASHED
 70
0
  3
Dashed __ __ __ __ __
 72
65
 73
2
 40
0.75
 49
0.5
 49
-0.25
  0
LTYPE
  5
43B
  2
DOTTED
 70
0
  3
Dotted .  .  .  .
 72
65
 73
2
 40
0.2
 49
0.0
 49
-0.2
  0
ENDTAB
  0
TABLE
  2
STYLE
  70
4
  0
STYLE
  2
KICAD
  70
0
  40
0
  41
1
  42
1
  50
0
  71
0
  3
isocp.shx
  0
STYLE
  2
KICADB
  70
0
  40
0
  41
1
  42
1
  50
0
  71
0
  3
isocp.shx
  0
STYLE
  2
KICADI
  70
0
  40
0
  41
1
  42
1
  50
15
  71
0
  3
isocp.shx
  0
STYLE
  2
KICADBI
  70
0
  40
0
  41
1
  42
1
  50
15
  71
0
  3
isocp.shx
  0
ENDTAB
  0
TABLE
  2
LAYER
  70
1
  0
LAYER
  2
BLACK
  70
0
  62
7
  6
CONTINUOUS
  0
ENDTAB
  0
ENDSEC
  0
SECTION
  2
ENTITIES
0
LINE
8
BLACK
6
CONTINUOUS
10
80.1123439999999931
20
-71.4749999999999943
11
79.9186049999999994
21
-71.2812610000000006
0
ARC
8
BLACK
10
82.9123439999999903
20
-71.4749860000000012
40
3.0000011104406274
50
-86.29753030
51
-3.70294740
0
LINE
8
BLACK
6
CONTINUOUS
10
85.9060819999999978
20
-71.668736999999993
11
85.7123440000000016
21
-71.4749999999999943
0
LINE
8
BLACK
6
CONTINUOUS
10
88.456286999999989
20
-78.123944999999992
11
88.154057999999992
21
-77.7300729999999902
0
LINE
8
BLACK
6
CONTINUOUS
10
88.5396609999999953
20
-80.6590149999999966
11
88.7296499999999924
21
-80.2003399999999971
0
LINE
8
BLACK
6
CONTINUOUS
10
91.6283249999999896
20
-83.7476789999999909
11
91.438334999999995
21
-83.2890039999999914
0
LINE
8
BLACK
6
CONTINUOUS
10
94.1633939999999967
20
-83.8310519999999997
11
93.8123399999999918
21
-84.1821059999999903
0
LINE
8
BLACK
6
CONTINUOUS
10
93.8123399999999918
20
-84.1821059999999903
11
93.4612860000000012
21
-83.8310519999999997
0
LINE
8
BLACK
6
CONTINUOUS
10
88.7296499999999924
20
-80.2003399999999971
11
88.2996979999999922
21
-79.9521079999999955
0
LINE
8
BLACK
6
CONTINUOUS
10
92.7651839999999908
20
-83.7394089999999949
11
92.3352319999999906
21
-83.9876419999999939
0
LINE
8
BLACK
6
CONTINUOUS
10
96.7943879999999979
20
-82.9379500000000007
11
96.665892999999997
21
-83.4174989999999923
0
LINE
8
BLACK
6
CONTINUOUS
10
82.7186069999999916
20
-74.4687349999999952
11
82.9123439999999903
21
-74.2749999999999915
0
LINE
8
BLACK
6
CONTINUOUS
10
89.7768059999999934
20
-82.5105339999999927
11
89.7768059999999934
21
-82.0140679999999946
0
LINE
8
BLACK
6
CONTINUOUS
10
96.1863439999999912
20
-83.2890039999999914
11
95.9963549999999941
21
-83.7476789999999909
0
LINE
8
BLACK
6
CONTINUOUS
10
90.3380729999999943
20
-83.002752000000001
11
90.2732719999999915
21
-82.5105339999999927
0
LINE
8
BLACK
6
CONTINUOUS
10
89.7768059999999934
20
-74.4394659999999959
11
90.2732719999999915
21
-74.4394659999999959
0
LINE
8
BLACK
6
CONTINUOUS
10
88.2996979999999922
20
-79.9521079999999955
11
88.5479309999999913
21
-79.5221559999999954
0
LINE
8
BLACK
6
CONTINUOUS
10
89.2845879999999994
20
-81.9492659999999944
11
89.3493890000000022
21
-81.4570480000000003
0
LINE
8
BLACK
6
CONTINUOUS
10
90.9587859999999893
20
-83.4174989999999923
11
90.830292
21
-82.9379500000000007
0
LINE
8
BLACK
6
CONTINUOUS
10
95.289447999999993
20
-83.9876419999999939
11
94.8594959999999929
21
-83.7394089999999949
0
LINE
8
BLACK
6
CONTINUOUS
10
89.3493890000000022
20
-75.4929520000000025
11
89.2845879999999994
21
-75.0007329999999968
0
LINE
8
BLACK
6
CONTINUOUS
10
88.2996979999999922
20
-76.9978919999999931
11
88.7296499999999924
21
-76.7496589999999941
0
LINE
8
BLACK
6
CONTINUOUS
10
88.154057999999992
20
-77.7300729999999902
11
88.5479309999999913
21
-77.4278439999999932
0
LINE
8
BLACK
6
CONTINUOUS
10
88.9983349999999973
20
-76.1009949999999975
11
88.8698399999999964
21
-75.6214459999999917
0
LINE
8
BLACK
6
CONTINUOUS
10
88.8698399999999964
20
-81.3285529999999994
11
88.9983349999999973
21
-80.8490039999999937
0
LINE
8
BLACK
6
CONTINUOUS
10
89.2845879999999994
20
-75.0007329999999968
11
89.7768059999999934
21
-74.9359309999999965
0
LINE
8
BLACK
6
CONTINUOUS
10
97.3514079999999922
20
-82.5105339999999927
11
97.2866059999999919
21
-83.002752000000001
0
LINE
8
BLACK
6
CONTINUOUS
10
88.8698399999999964
20
-75.6214459999999917
11
89.3493890000000022
21
-75.4929520000000025
0
LINE
8
BLACK
6
CONTINUOUS
10
88.5479309999999913
20
-79.5221559999999954
11
88.154057999999992
21
-79.2199269999999984
0
LINE
8
BLACK
6
CONTINUOUS
10
94.557266999999996
20
-84.1332809999999967
11
94.1633939999999967
21
-83.8310519999999997
0
LINE
8
BLACK
6
CONTINUOUS
10
90.2732719999999915
20
-82.5105339999999927
11
89.7768059999999934
21
-82.5105339999999927
0
LINE
8
BLACK
6
CONTINUOUS
10
88.9983349999999973
20
-80.8490039999999937
11
88.5396609999999953
21
-80.6590149999999966
0
LINE
8
BLACK
6
CONTINUOUS
10
88.456286999999989
20
-78.8260539999999992
11
88.1052329999999984
21
-78.4749999999999943
0
LINE
8
BLACK
6
CONTINUOUS
10
88.7296499999999924
20
-76.7496589999999941
11
88.5396609999999953
21
-76.2909839999999946
0
LINE
8
BLACK
6
CONTINUOUS
10
97.2866059999999919
20
-83.002752000000001
11
96.7943879999999979
21
-82.9379500000000007
0
LINE
8
BLACK
6
CONTINUOUS
10
79.9185969999999912
20
-71.6687450000000013
11
80.1123439999999931
21
-71.4749999999999943
0
ARC
8
BLACK
10
82.9126440000000002
20
-71.4748859999999979
40
2.9996814316518678
50
3.70054021
51
29.45112080
0
LINE
8
BLACK
6
CONTINUOUS
10
95.9963549999999941
20
-83.7476789999999909
11
95.5376809999999921
21
-83.5576899999999938
0
ARC
8
BLACK
10
82.9123439999999903
20
-71.4749860000000012
40
3.0000111833408223
50
-176.29691123
51
-93.70266701
0
LINE
8
BLACK
6
CONTINUOUS
10
95.5376809999999921
20
-83.5576899999999938
11
95.289447999999993
21
-83.9876419999999939
0
LINE
8
BLACK
6
CONTINUOUS
10
85.7123440000000016
20
-71.4749999999999943
11
85.9060619999999915
21
-71.2812819999999903
0
LINE
8
BLACK
6
CONTINUOUS
10
89.3493890000000022
20
-81.4570480000000003
11
88.8698399999999964
21
-81.3285529999999994
0
LINE
8
BLACK
6
CONTINUOUS
10
90.830292
20
-82.9379500000000007
11
90.3380729999999943
21
-83.002752000000001
0
ARC
8
BLACK
10
82.9121439999999978
20
-71.4749860000000012
40
2.9998008467473301
50
150.54810818
51
176.29730269
0
LINE
8
BLACK
6
CONTINUOUS
10
89.7768059999999934
20
-74.9359309999999965
11
89.7768059999999934
21
-74.4394659999999959
0
LINE
8
BLACK
6
CONTINUOUS
10
88.5396609999999953
20
-76.2909839999999946
11
88.9983349999999973
21
-76.1009949999999975
0
LINE
8
BLACK
6
CONTINUOUS
10
92.0869989999999916
20
-83.5576899999999938
11
91.6283249999999896
21
-83.7476789999999909
0
LINE
8
BLACK
6
CONTINUOUS
10
93.4612860000000012
20
-83.8310519999999997
11
93.0674130000000019
21
-84.1332809999999967
0
LINE
8
BLACK
6
CONTINUOUS
10
91.438334999999995
20
-83.2890039999999914
11
90.9587859999999893
21
-83.4174989999999923
0
LINE
8
BLACK
6
CONTINUOUS
10
92.3352319999999906
20
-83.9876419999999939
11
92.0869989999999916
21
-83.5576899999999938
0
LINE
8
BLACK
6
CONTINUOUS
10
96.665892999999997
20
-83.4174989999999923
11
96.1863439999999912
21
-83.2890039999999914
0
LINE
8
BLACK
6
CONTINUOUS
10
93.0674130000000019
20
-84.1332809999999967
11
92.7651839999999908
21
-83.7394089999999949
0
LINE
8
BLACK
6
CONTINUOUS
10
88.5479309999999913
20
-77.4278439999999932
11
88.2996979999999922
21
-76.9978919999999931
0
LINE
8
BLACK
6
CONTINUOUS
10
94.8594959999999929
20
-83.7394089999999949
11
94.557266999999996
21
-84.1332809999999967
0
LINE
8
BLACK
6
CONTINUOUS
10
89.7768059999999934
20
-82.0140679999999946
11
89.2845879999999994
21
-81.9492659999999944
0
LINE
8
BLACK
6
CONTINUOUS
10
88.154057999999992
20
-79.2199269999999984
11
88.456286999999989
21
-78.8260539999999992
0
LINE
8
BLACK
6
CONTINUOUS
10
82.9123439999999903
20
-74.2749999999999915
11
83.1060700000000026
21
-74.4687249999999921
0
LINE
8
BLACK
6
CONTINUOUS
10
88.1052329999999984
20
-78.4749999999999943
11
88.456286999999989
21
-78.123944999999992
0
LINE
8
BLACK
6
CONTINUOUS
10
98.7548389999999898
20
-81.3285529999999994
11
98.2752899999999983
21
-81.4570480000000003
0
LINE
8
BLACK
6
CONTINUOUS
10
99.0850190000000026
20
-80.6590149999999966
11
98.6263450000000006
21
-80.8490039999999937
0
LINE
8
BLACK
6
CONTINUOUS
10
99.0767489999999924
20
-79.5221559999999954
11
99.3249819999999914
21
-79.9521079999999955
0
LINE
8
BLACK
6
CONTINUOUS
10
99.4706219999999917
20
-79.2199269999999984
11
99.0767489999999924
21
-79.5221559999999954
0
LINE
8
BLACK
6
CONTINUOUS
10
99.4706219999999917
20
-77.7300729999999902
11
99.1683919999999972
21
-78.123944999999992
0
LINE
8
BLACK
6
CONTINUOUS
10
99.1683919999999972
20
-78.8260539999999992
11
99.4706219999999917
21
-79.2199269999999984
0
LINE
8
BLACK
6
CONTINUOUS
10
99.1683919999999972
20
-78.123944999999992
11
99.5194469999999995
21
-78.4749999999999943
0
LINE
8
BLACK
6
CONTINUOUS
10
99.3249819999999914
20
-76.9978919999999931
11
99.0767489999999924
21
-77.4278439999999932
0
LINE
8
BLACK
6
CONTINUOUS
10
96.7943879999999979
20
-74.0120489999999904
11
97.2866059999999919
21
-73.9472469999999902
0
LINE
8
BLACK
6
CONTINUOUS
10
91.1537610000000029
20
-78.4749999999999943
11
90.8299279999999953
21
-78.7988330000000019
0
LINE
8
BLACK
6
CONTINUOUS
10
94.557266999999996
20
-72.8167179999999945
11
94.8594959999999929
21
-73.2105909999999938
0
LINE
8
BLACK
6
CONTINUOUS
10
90.8298759999999987
20
-78.1511139999999926
11
91.1537610000000029
21
-78.4749999999999943
0
LINE
8
BLACK
6
CONTINUOUS
10
94.1633939999999967
20
-73.1189469999999915
11
94.557266999999996
21
-72.8167179999999945
0
LINE
8
BLACK
6
CONTINUOUS
10
95.289447999999993
20
-72.9623579999999947
11
95.5376809999999921
21
-73.3923099999999948
0
LINE
8
BLACK
6
CONTINUOUS
10
96.665892999999997
20
-73.5324999999999989
11
96.7943879999999979
21
-74.0120489999999904
0
LINE
8
BLACK
6
CONTINUOUS
10
98.8950299999999913
20
-76.7496589999999941
11
99.3249819999999914
21
-76.9978919999999931
0
LINE
8
BLACK
6
CONTINUOUS
10
99.0850190000000026
20
-76.2909839999999946
11
98.8950299999999913
21
-76.7496589999999941
0
LINE
8
BLACK
6
CONTINUOUS
10
98.3400919999999985
20
-75.0007329999999968
11
98.2752899999999983
21
-75.4929520000000025
0
LINE
8
BLACK
6
CONTINUOUS
10
97.3514079999999922
20
-74.4394659999999959
11
97.8478739999999902
21
-74.4394659999999959
0
LINE
8
BLACK
6
CONTINUOUS
10
91.438334999999995
20
-73.6609949999999998
11
91.6283249999999896
21
-73.2023209999999978
0
LINE
8
BLACK
6
CONTINUOUS
10
90.3380729999999943
20
-73.9472469999999902
11
90.830292
21
-74.0120489999999904
0
LINE
8
BLACK
6
CONTINUOUS
10
96.1863439999999912
20
-73.6609949999999998
11
96.665892999999997
21
-73.5324999999999989
0
LINE
8
BLACK
6
CONTINUOUS
10
90.830292
20
-74.0120489999999904
11
90.9587859999999893
21
-73.5324999999999989
0
LINE
8
BLACK
6
CONTINUOUS
10
94.8594959999999929
20
-73.2105909999999938
11
95.289447999999993
21
-72.9623579999999947
0
LINE
8
BLACK
6
CONTINUOUS
10
93.470918999999995
20
-77.
11
91.2000000000000028
21
-77.
0
LINE
8
BLACK
6
CONTINUOUS
10
94.1362179999999995
20
-81.4574569999999909
11
93.8123399999999918
21
-81.133578
0
LINE
8
BLACK
6
CONTINUOUS
10
96.7948169999999948
20
-78.1510999999999996
11
96.470918999999995
21
-78.4749999999999943
0
LINE
8
BLACK
6
CONTINUOUS
10
99.3249819999999914
20
-79.9521079999999955
11
98.8950299999999913
21
-80.2003399999999971
0
ARC
8
BLACK
10
93.8123739999999913
20
-78.4750279999999947
40
2.9999609078748004
50
-83.80287601
51
-6.19735183
0
LINE
8
BLACK
6
CONTINUOUS
10
99.5194469999999995
20
-78.4749999999999943
11
99.1683919999999972
21
-78.8260539999999992
0
LINE
8
BLACK
6
CONTINUOUS
10
95.9963549999999941
20
-73.2023209999999978
11
96.1863439999999912
21
-73.6609949999999998
0
LINE
8
BLACK
6
CONTINUOUS
10
95.5376809999999921
20
-73.3923099999999948
11
95.9963549999999941
21
-73.2023209999999978
0
LINE
8
BLACK
6
CONTINUOUS
10
93.470918999999995
20
-77.
11
94.1537609999999887
21
-77.
0
ARC
8
BLACK
10
93.8123739999999913
20
-78.4750279999999947
40
2.9999837473959752
50
6.19869004
51
29.45097510
0
LINE
8
BLACK
6
CONTINUOUS
10
93.0674130000000019
20
-72.8167179999999945
11
93.4612860000000012
21
-73.1189469999999915
0
LINE
8
BLACK
6
CONTINUOUS
10
94.1537609999999887
20
-77.
11
96.4246899999999982
21
-77.
0
ARC
8
BLACK
10
93.8124739999999946
20
-78.4750279999999947
40
3.0001351817876474
50
150.55050852
51
173.80189539
0
LINE
8
BLACK
6
CONTINUOUS
10
97.8478739999999902
20
-74.9359309999999965
11
98.3400919999999985
21
-75.0007329999999968
0
LINE
8
BLACK
6
CONTINUOUS
10
97.8478739999999902
20
-82.5105339999999927
11
97.3514079999999922
21
-82.5105339999999927
0
LINE
8
BLACK
6
CONTINUOUS
10
98.6263450000000006
20
-80.8490039999999937
11
98.7548389999999898
21
-81.3285529999999994
0
LINE
8
BLACK
6
CONTINUOUS
10
98.8950299999999913
20
-80.2003399999999971
11
99.0850190000000026
21
-80.6590149999999966
0
LINE
8
BLACK
6
CONTINUOUS
10
98.7548389999999898
20
-75.6214459999999917
11
98.6263450000000006
21
-76.1009949999999975
0
LINE
8
BLACK
6
CONTINUOUS
10
97.8478739999999902
20
-74.4394659999999959
11
97.8478739999999902
21
-74.9359309999999965
0
LINE
8
BLACK
6
CONTINUOUS
10
90.9587859999999893
20
-73.5324999999999989
11
91.438334999999995
21
-73.6609949999999998
0
LINE
8
BLACK
6
CONTINUOUS
10
97.8478739999999902
20
-82.0140679999999946
11
97.8478739999999902
21
-82.5105339999999927
0
LINE
8
BLACK
6
CONTINUOUS
10
93.4612860000000012
20
-73.1189469999999915
11
93.8123399999999918
21
-72.7678930000000008
0
LINE
8
BLACK
6
CONTINUOUS
10
91.6283249999999896
20
-73.2023209999999978
11
92.0869989999999916
21
-73.3923099999999948
0
LINE
8
BLACK
6
CONTINUOUS
10
98.3400919999999985
20
-81.9492659999999944
11
97.8478739999999902
21
-82.0140679999999946
0
LINE
8
BLACK
6
CONTINUOUS
10
92.7651839999999908
20
-73.2105909999999938
11
93.0674130000000019
21
-72.8167179999999945
0
LINE
8
BLACK
6
CONTINUOUS
10
92.0869989999999916
20
-73.3923099999999948
11
92.3352319999999906
21
-72.9623579999999947
0
LINE
8
BLACK
6
CONTINUOUS
10
90.2732719999999915
20
-74.4394659999999959
11
90.3380729999999943
21
-73.9472469999999902
0
ARC
8
BLACK
10
93.8123739999999913
20
-78.4750279999999947
40
2.9999746686692204
50
-173.80365156
51
-96.19853359
0
LINE
8
BLACK
6
CONTINUOUS
10
98.2752899999999983
20
-81.4570480000000003
11
98.3400919999999985
21
-81.9492659999999944
0
LINE
8
BLACK
6
CONTINUOUS
10
98.2752899999999983
20
-75.4929520000000025
11
98.7548389999999898
21
-75.6214459999999917
0
LINE
8
BLACK
6
CONTINUOUS
10
93.8123399999999918
20
-72.7678930000000008
11
94.1633939999999967
21
-73.1189469999999915
0
LINE
8
BLACK
6
CONTINUOUS
10
97.2866059999999919
20
-73.9472469999999902
11
97.3514079999999922
21
-74.4394659999999959
0
LINE
8
BLACK
6
CONTINUOUS
10
92.3352319999999906
20
-72.9623579999999947
11
92.7651839999999908
21
-73.2105909999999938
0
LINE
8
BLACK
6
CONTINUOUS
10
96.470918999999995
20
-78.4749999999999943
11
96.7948030000000017
21
-78.798884000000001
0
LINE
8
BLACK
6
CONTINUOUS
10
99.0767489999999924
20
-77.4278439999999932
11
99.4706219999999917
21
-77.7300729999999902
0
LINE
8
BLACK
6
CONTINUOUS
10
98.6263450000000006
20
-76.1009949999999975
11
99.0850190000000026
21
-76.2909839999999946
0
LINE
8
BLACK
6
CONTINUOUS
10
77.5018869999999964
20
-68.8068579999999912
11
77.3574720000000013
21
-68.2678930000000008
0
LINE
8
BLACK
6
CONTINUOUS
10
77.8964369999999917
20
-74.8265219999999971
11
77.3574720000000013
21
-74.6821059999999903
0
LINE
8
BLACK
6
CONTINUOUS
10
79.7052369999999968
20
-77.029871
11
79.5608220000000017
21
-76.4909069999999929
0
LINE
8
BLACK
6
CONTINUOUS
10
77.8236059999999981
20
-75.3797249999999934
11
77.8964369999999917
21
-74.8265219999999971
0
LINE
8
BLACK
6
CONTINUOUS
10
79.5608220000000017
20
-76.4909069999999929
11
79.0076179999999937
21
-76.5637370000000033
0
LINE
8
BLACK
6
CONTINUOUS
10
77.8964369999999917
20
-68.1234779999999915
11
77.8236059999999981
21
-67.5702739999999977
0
LINE
8
BLACK
6
CONTINUOUS
10
82.5709229999999934
20
-70.
11
80.2999999999999972
21
-70.
0
LINE
8
BLACK
6
CONTINUOUS
10
77.1999119999999976
20
-69.5358899999999949
11
76.9863830000000036
21
-69.020386000000002
0
LINE
8
BLACK
6
CONTINUOUS
10
77.3574720000000013
20
-68.2678930000000008
11
77.8964369999999917
21
-68.1234779999999915
0
LINE
8
BLACK
6
CONTINUOUS
10
79.0076179999999937
20
-76.5637370000000033
11
78.9347879999999975
21
-76.0105329999999952
0
LINE
8
BLACK
6
CONTINUOUS
10
82.517793999999995
20
-77.4946640000000002
11
82.0751209999999958
21
-77.8343389999999999
0
LINE
8
BLACK
6
CONTINUOUS
10
82.0751209999999958
20
-77.8343389999999999
11
81.735445999999996
21
-77.3916650000000033
0
LINE
8
BLACK
6
CONTINUOUS
10
81.2522230000000008
20
-77.670653999999999
11
80.9732350000000025
21
-77.1874309999999895
0
LINE
8
BLACK
6
CONTINUOUS
10
76.9863830000000036
20
-69.020386000000002
11
77.5018869999999964
21
-68.8068579999999912
0
LINE
8
BLACK
6
CONTINUOUS
10
76.8926799999999986
20
-71.8695489999999921
11
76.4981300000000033
21
-71.4749999999999943
0
LINE
8
BLACK
6
CONTINUOUS
10
76.9863830000000036
20
-73.9296130000000034
11
77.1999119999999976
21
-73.4141089999999963
0
LINE
8
BLACK
6
CONTINUOUS
10
77.3574720000000013
20
-74.6821059999999903
11
77.5018869999999964
21
-74.1431419999999974
0
LINE
8
BLACK
6
CONTINUOUS
10
80.4577309999999954
20
-77.4009599999999978
11
80.2442020000000014
21
-76.8854559999999907
0
LINE
8
BLACK
6
CONTINUOUS
10
76.9956779999999981
20
-72.6518980000000028
11
76.5530049999999989
21
-72.3122219999999913
0
LINE
8
BLACK
6
CONTINUOUS
10
83.2537650000000014
20
-70.
11
85.5246929999999992
21
-70.
0
LINE
8
BLACK
6
CONTINUOUS
10
76.8926799999999986
20
-71.080449999999999
11
76.5530049999999989
21
-70.6377769999999998
0
LINE
8
BLACK
6
CONTINUOUS
10
76.5530049999999989
20
-72.3122219999999913
11
76.8926799999999986
21
-71.8695489999999921
0
LINE
8
BLACK
6
CONTINUOUS
10
78.9347879999999975
20
-76.0105329999999952
11
78.3768099999999919
21
-76.0105329999999952
0
LINE
8
BLACK
6
CONTINUOUS
10
80.2442020000000014
20
-76.8854559999999907
11
79.7052369999999968
21
-77.029871
0
LINE
8
BLACK
6
CONTINUOUS
10
78.3768099999999919
20
-75.4525560000000013
11
77.8236059999999981
21
-75.3797249999999934
0
LINE
8
BLACK
6
CONTINUOUS
10
78.3768099999999919
20
-66.9394659999999959
11
78.9347879999999975
21
-66.9394659999999959
0
LINE
8
BLACK
6
CONTINUOUS
10
76.4981300000000033
20
-71.4749999999999943
11
76.8926799999999986
21
-71.080449999999999
0
LINE
8
BLACK
6
CONTINUOUS
10
77.1999119999999976
20
-73.4141089999999963
11
76.7166890000000024
21
-73.1351200000000006
0
LINE
8
BLACK
6
CONTINUOUS
10
80.9732350000000025
20
-77.1874309999999895
11
80.4577309999999954
21
-77.4009599999999978
0
LINE
8
BLACK
6
CONTINUOUS
10
78.3768099999999919
20
-67.4974429999999899
11
78.3768099999999919
21
-66.9394659999999959
0
LINE
8
BLACK
6
CONTINUOUS
10
76.7166890000000024
20
-69.8148789999999906
11
77.1999119999999976
21
-69.5358899999999949
0
LINE
8
BLACK
6
CONTINUOUS
10
76.9956779999999981
20
-70.2981020000000001
11
76.7166890000000024
21
-69.8148789999999906
0
LINE
8
BLACK
6
CONTINUOUS
10
81.735445999999996
20
-77.3916650000000033
11
81.2522230000000008
21
-77.670653999999999
0
LINE
8
BLACK
6
CONTINUOUS
10
76.7166890000000024
20
-73.1351200000000006
11
76.9956779999999981
21
-72.6518980000000028
0
LINE
8
BLACK
6
CONTINUOUS
10
76.5530049999999989
20
-70.6377769999999998
11
76.9956779999999981
21
-70.2981020000000001
0
LINE
8
BLACK
6
CONTINUOUS
10
77.5018869999999964
20
-74.1431419999999974
11
76.9863830000000036
21
-73.9296130000000034
0
LINE
8
BLACK
6
CONTINUOUS
10
78.3768099999999919
20
-76.0105329999999952
11
78.3768099999999919
21
-75.4525560000000013
0
LINE
8
BLACK
6
CONTINUOUS
10
82.5709229999999934
20
-70.
11
83.2537650000000014
21
-70.
0
LINE
8
BLACK
6
CONTINUOUS
10
77.8236059999999981
20
-67.5702739999999977
11
78.3768099999999919
21
-67.4974429999999899
0
LINE
8
BLACK
6
CONTINUOUS
10
84.0892419999999987
20
-77.3916650000000033
11
83.749566999999999
21
-77.8343389999999999
0
LINE
8
BLACK
6
CONTINUOUS
10
84.572464999999994
20
-77.670653999999999
11
84.0892419999999987
21
-77.3916650000000033
0
LINE
8
BLACK
6
CONTINUOUS
10
84.8514529999999922
20
-77.1874309999999895
11
84.572464999999994
21
-77.670653999999999
0
LINE
8
BLACK
6
CONTINUOUS
10
85.3669569999999993
20
-77.4009599999999978
11
84.8514529999999922
21
-77.1874309999999895
0
LINE
8
BLACK
6
CONTINUOUS
10
85.5804859999999934
20
-76.8854559999999907
11
85.3669569999999993
21
-77.4009599999999978
0
LINE
8
BLACK
6
CONTINUOUS
10
86.119450999999998
20
-77.029871
11
85.5804859999999934
21
-76.8854559999999907
0
LINE
8
BLACK
6
CONTINUOUS
10
86.2638659999999931
20
-76.4909069999999929
11
86.119450999999998
21
-77.029871
0
LINE
8
BLACK
6
CONTINUOUS
10
86.8170700000000011
20
-76.5637370000000033
11
86.2638659999999931
21
-76.4909069999999929
0
LINE
8
BLACK
6
CONTINUOUS
10
86.8898999999999972
20
-76.0105329999999952
11
86.8170700000000011
21
-76.5637370000000033
0
LINE
8
BLACK
6
CONTINUOUS
10
87.4478780000000029
20
-76.0105329999999952
11
86.8898999999999972
21
-76.0105329999999952
0
LINE
8
BLACK
6
CONTINUOUS
10
88.8383049999999912
20
-73.9296130000000034
11
88.3228009999999983
21
-74.1431419999999974
0
LINE
8
BLACK
6
CONTINUOUS
10
89.1079989999999924
20
-69.8148789999999906
11
88.8290099999999967
21
-70.2981020000000001
0
LINE
8
BLACK
6
CONTINUOUS
10
83.3068939999999998
20
-65.4553360000000026
11
83.749566999999999
21
-65.1156599999999912
0
LINE
8
BLACK
6
CONTINUOUS
10
87.4478780000000029
20
-75.4525560000000013
11
87.4478780000000029
21
-76.0105329999999952
0
LINE
8
BLACK
6
CONTINUOUS
10
88.4672159999999934
20
-74.6821059999999903
11
87.928251000000003
21
-74.8265219999999971
0
LINE
8
BLACK
6
CONTINUOUS
10
89.1079989999999924
20
-73.1351200000000006
11
88.6247759999999971
21
-73.4141089999999963
0
LINE
8
BLACK
6
CONTINUOUS
10
88.8290099999999967
20
-70.2981020000000001
11
89.2716829999999959
21
-70.6377769999999998
0
LINE
8
BLACK
6
CONTINUOUS
10
88.8290099999999967
20
-72.6518980000000028
11
89.1079989999999924
21
-73.1351200000000006
0
LINE
8
BLACK
6
CONTINUOUS
10
81.735445999999996
20
-65.5583340000000021
11
82.0751209999999958
21
-65.1156599999999912
0
LINE
8
BLACK
6
CONTINUOUS
10
89.3265579999999915
20
-71.4749999999999943
11
88.9320079999999962
21
-71.8695489999999921
0
LINE
8
BLACK
6
CONTINUOUS
10
88.0010819999999967
20
-75.3797249999999934
11
87.4478780000000029
21
-75.4525560000000013
0
LINE
8
BLACK
6
CONTINUOUS
10
85.5804859999999934
20
-66.0645430000000005
11
86.119450999999998
21
-65.9201279999999912
0
LINE
8
BLACK
6
CONTINUOUS
10
80.2442020000000014
20
-66.0645430000000005
11
80.4577309999999954
21
-65.5490389999999934
0
LINE
8
BLACK
6
CONTINUOUS
10
88.9320079999999962
20
-71.080449999999999
11
89.3265579999999915
21
-71.4749999999999943
0
LINE
8
BLACK
6
CONTINUOUS
10
88.3228009999999983
20
-74.1431419999999974
11
88.4672159999999934
21
-74.6821059999999903
0
LINE
8
BLACK
6
CONTINUOUS
10
83.749566999999999
20
-65.1156599999999912
11
84.0892419999999987
21
-65.5583340000000021
0
LINE
8
BLACK
6
CONTINUOUS
10
79.0076179999999937
20
-66.3862620000000021
11
79.5608220000000017
21
-66.4590919999999983
0
LINE
8
BLACK
6
CONTINUOUS
10
88.6247759999999971
20
-73.4141089999999963
11
88.8383049999999912
21
-73.9296130000000034
0
LINE
8
BLACK
6
CONTINUOUS
10
93.8123399999999918
20
-81.133578
11
93.4884550000000019
21
-81.4574640000000016
0
LINE
8
BLACK
6
CONTINUOUS
10
80.4577309999999954
20
-65.5490389999999934
11
80.9732350000000025
21
-65.7625680000000017
0
LINE
8
BLACK
6
CONTINUOUS
10
88.9320079999999962
20
-71.8695489999999921
11
89.2716829999999959
21
-72.3122219999999913
0
LINE
8
BLACK
6
CONTINUOUS
10
89.2716829999999959
20
-70.6377769999999998
11
88.9320079999999962
21
-71.080449999999999
0
LINE
8
BLACK
6
CONTINUOUS
10
80.9732350000000025
20
-65.7625680000000017
11
81.2522230000000008
21
-65.2793449999999922
0
LINE
8
BLACK
6
CONTINUOUS
10
86.119450999999998
20
-65.9201279999999912
11
86.2638659999999931
21
-66.4590919999999983
0
LINE
8
BLACK
6
CONTINUOUS
10
87.4478780000000029
20
-66.9394659999999959
11
87.4478780000000029
21
-67.4974429999999899
0
LINE
8
BLACK
6
CONTINUOUS
10
88.8383049999999912
20
-69.020386000000002
11
88.6247759999999971
21
-69.5358899999999949
0
LINE
8
BLACK
6
CONTINUOUS
10
87.928251000000003
20
-68.1234779999999915
11
88.4672159999999934
21
-68.2678930000000008
0
LINE
8
BLACK
6
CONTINUOUS
10
88.4672159999999934
20
-68.2678930000000008
11
88.3228009999999983
21
-68.8068579999999912
0
LINE
8
BLACK
6
CONTINUOUS
10
88.3228009999999983
20
-68.8068579999999912
11
88.8383049999999912
21
-69.020386000000002
0
LINE
8
BLACK
6
CONTINUOUS
10
86.8170700000000011
20
-66.3862620000000021
11
86.8898999999999972
21
-66.9394659999999959
0
LINE
8
BLACK
6
CONTINUOUS
10
82.9123439999999903
20
-65.0607859999999931
11
83.3068939999999998
21
-65.4553360000000026
0
LINE
8
BLACK
6
CONTINUOUS
10
79.5608220000000017
20
-66.4590919999999983
11
79.7052369999999968
21
-65.9201279999999912
0
LINE
8
BLACK
6
CONTINUOUS
10
86.8898999999999972
20
-66.9394659999999959
11
87.4478780000000029
21
-66.9394659999999959
0
LINE
8
BLACK
6
CONTINUOUS
10
84.8514529999999922
20
-65.7625680000000017
11
85.3669569999999993
21
-65.5490389999999934
0
LINE
8
BLACK
6
CONTINUOUS
10
78.9347879999999975
20
-66.9394659999999959
11
79.0076179999999937
21
-66.3862620000000021
0
LINE
8
BLACK
6
CONTINUOUS
10
85.3669569999999993
20
-65.5490389999999934
11
85.5804859999999934
21
-66.0645430000000005
0
LINE
8
BLACK
6
CONTINUOUS
10
84.572464999999994
20
-65.2793449999999922
11
84.8514529999999922
21
-65.7625680000000017
0
LINE
8
BLACK
6
CONTINUOUS
10
82.517793999999995
20
-65.4553360000000026
11
82.9123439999999903
21
-65.0607859999999931
0
LINE
8
BLACK
6
CONTINUOUS
10
79.7052369999999968
20
-65.9201279999999912
11
80.2442020000000014
21
-66.0645430000000005
0
LINE
8
BLACK
6
CONTINUOUS
10
89.2716829999999959
20
-72.3122219999999913
11
88.8290099999999967
21
-72.6518980000000028
0
LINE
8
BLACK
6
CONTINUOUS
10
86.2638659999999931
20
-66.4590919999999983
11
86.8170700000000011
21
-66.3862620000000021
0
LINE
8
BLACK
6
CONTINUOUS
10
88.6247759999999971
20
-69.5358899999999949
11
89.1079989999999924
21
-69.8148789999999906
0
LINE
8
BLACK
6
CONTINUOUS
10
88.0010819999999967
20
-67.5702739999999977
11
87.928251000000003
21
-68.1234779999999915
0
LINE
8
BLACK
6
CONTINUOUS
10
84.0892419999999987
20
-65.5583340000000021
11
84.572464999999994
21
-65.2793449999999922
0
LINE
8
BLACK
6
CONTINUOUS
10
81.2522230000000008
20
-65.2793449999999922
11
81.735445999999996
21
-65.5583340000000021
0
LINE
8
BLACK
6
CONTINUOUS
10
82.0751209999999958
20
-65.1156599999999912
11
82.517793999999995
21
-65.4553360000000026
0
LINE
8
BLACK
6
CONTINUOUS
10
87.4478780000000029
20
-67.4974429999999899
11
88.0010819999999967
21
-67.5702739999999977
0
LINE
8
BLACK
6
CONTINUOUS
10
87.928251000000003
20
-74.8265219999999971
11
88.0010819999999967
21
-75.3797249999999934
0
LINE
8
BLACK
6
CONTINUOUS
10
82.9123439999999903
20
-77.889212999999998
11
82.517793999999995
21
-77.4946640000000002
0
LINE
8
BLACK
6
CONTINUOUS
10
83.3068939999999998
20
-77.4946640000000002
11
82.9123439999999903
21
-77.889212999999998
0
LINE
8
BLACK
6
CONTINUOUS
10
83.749566999999999
20
-77.8343389999999999
11
83.3068939999999998
21
-77.4946640000000002
0
LINE
8
BLACK
6
CONTINUOUS
10
80.1123439999999931
20
-58.4749999999999943
11
79.9186049999999994
21
-58.2812610000000006
0
ARC
8
BLACK
10
82.9123439999999903
20
-58.4749859999999941
40
3.0000011104406274
50
-86.29753030
51
-3.70294740
0
LINE
8
BLACK
6
CONTINUOUS
10
85.9060819999999978
20
-58.6687370000000001
11
85.7123440000000016
21
-58.4749999999999943
0
LINE
8
BLACK
6
CONTINUOUS
10
88.456286999999989
20
-65.123944999999992
11
88.154057999999992
21
-64.7300729999999902
0
LINE
8
BLACK
6
CONTINUOUS
10
88.5396609999999953
20
-67.6590149999999966
11
88.7296499999999924
21
-67.2003399999999971
0
LINE
8
BLACK
6
CONTINUOUS
10
91.6283249999999896
20
-70.7476789999999909
11
91.438334999999995
21
-70.2890039999999914
0
LINE
8
BLACK
6
CONTINUOUS
10
94.1633939999999967
20
-70.8310519999999997
11
93.8123399999999918
21
-71.1821059999999903
0
LINE
8
BLACK
6
CONTINUOUS
10
93.8123399999999918
20
-71.1821059999999903
11
93.4612860000000012
21
-70.8310519999999997
0
LINE
8
BLACK
6
CONTINUOUS
10
88.7296499999999924
20
-67.2003399999999971
11
88.2996979999999922
21
-66.9521079999999955
0
LINE
8
BLACK
6
CONTINUOUS
10
92.7651839999999908
20
-70.7394089999999949
11
92.3352319999999906
21
-70.9876419999999939
0
LINE
8
BLACK
6
CONTINUOUS
10
96.7943879999999979
20
-69.9379500000000007
11
96.665892999999997
21
-70.4174989999999923
0
LINE
8
BLACK
6
CONTINUOUS
10
82.7186069999999916
20
-61.4687349999999952
11
82.9123439999999903
21
-61.2749999999999986
0
LINE
8
BLACK
6
CONTINUOUS
10
89.7768059999999934
20
-69.5105339999999927
11
89.7768059999999934
21
-69.0140679999999946
0
LINE
8
BLACK
6
CONTINUOUS
10
96.1863439999999912
20
-70.2890039999999914
11
95.9963549999999941
21
-70.7476789999999909
0
LINE
8
BLACK
6
CONTINUOUS
10
90.3380729999999943
20
-70.002752000000001
11
90.2732719999999915
21
-69.5105339999999927
0
LINE
8
BLACK
6
CONTINUOUS
10
89.7768059999999934
20
-61.4394659999999959
11
90.2732719999999915
21
-61.4394659999999959
0
LINE
8
BLACK
6
CONTINUOUS
10
88.2996979999999922
20
-66.9521079999999955
11
88.5479309999999913
21
-66.5221559999999954
0
LINE
8
BLACK
6
CONTINUOUS
10
89.2845879999999994
20
-68.9492659999999944
11
89.3493890000000022
21
-68.4570480000000003
0
LINE
8
BLACK
6
CONTINUOUS
10
90.9587859999999893
20
-70.4174989999999923
11
90.830292
21
-69.9379500000000007
0
LINE
8
BLACK
6
CONTINUOUS
10
95.289447999999993
20
-70.9876419999999939
11
94.8594959999999929
21
-70.7394089999999949
0
LINE
8
BLACK
6
CONTINUOUS
10
89.3493890000000022
20
-62.4929519999999954
11
89.2845879999999994
21
-62.0007329999999968
0
LINE
8
BLACK
6
CONTINUOUS
10
88.2996979999999922
20
-63.9978920000000002
11
88.7296499999999924
21
-63.7496589999999941
0
LINE
8
BLACK
6
CONTINUOUS
10
88.154057999999992
20
-64.7300729999999902
11
88.5479309999999913
21
-64.4278439999999932
0
LINE
8
BLACK
6
CONTINUOUS
10
88.9983349999999973
20
-63.1009949999999975
11
88.8698399999999964
21
-62.6214459999999988
0
LINE
8
BLACK
6
CONTINUOUS
10
88.8698399999999964
20
-68.3285529999999994
11
88.9983349999999973
21
-67.8490039999999937
0
LINE
8
BLACK
6
CONTINUOUS
10
89.2845879999999994
20
-62.0007329999999968
11
89.7768059999999934
21
-61.9359309999999965
0
LINE
8
BLACK
6
CONTINUOUS
10
97.3514079999999922
20
-69.5105339999999927
11
97.2866059999999919
21
-70.002752000000001
0
LINE
8
BLACK
6
CONTINUOUS
10
88.8698399999999964
20
-62.6214459999999988
11
89.3493890000000022
21
-62.4929519999999954
0
LINE
8
BLACK
6
CONTINUOUS
10
88.5479309999999913
20
-66.5221559999999954
11
88.154057999999992
21
-66.2199269999999984
0
LINE
8
BLACK
6
CONTINUOUS
10
94.557266999999996
20
-71.1332809999999967
11
94.1633939999999967
21
-70.8310519999999997
0
LINE
8
BLACK
6
CONTINUOUS
10
90.2732719999999915
20
-69.5105339999999927
11
89.7768059999999934
21
-69.5105339999999927
0
LINE
8
BLACK
6
CONTINUOUS
10
88.9983349999999973
20
-67.8490039999999937
11
88.5396609999999953
21
-67.6590149999999966
0
LINE
8
BLACK
6
CONTINUOUS
10
88.456286999999989
20
-65.8260539999999992
11
88.1052329999999984
21
-65.4749999999999943
0
LINE
8
BLACK
6
CONTINUOUS
10
88.7296499999999924
20
-63.7496589999999941
11
88.5396609999999953
21
-63.2909839999999946
0
LINE
8
BLACK
6
CONTINUOUS
10
97.2866059999999919
20
-70.002752000000001
11
96.7943879999999979
21
-69.9379500000000007
0
LINE
8
BLACK
6
CONTINUOUS
10
79.9185969999999912
20
-58.6687449999999941
11
80.1123439999999931
21
-58.4749999999999943
0
ARC
8
BLACK
10
82.9126440000000002
20
-58.4748859999999979
40
2.9996814316518678
50
3.70054021
51
29.45112080
0
LINE
8
BLACK
6
CONTINUOUS
10
95.9963549999999941
20
-70.7476789999999909
11
95.5376809999999921
21
-70.5576899999999938
0
ARC
8
BLACK
10
82.9123439999999903
20
-58.4749859999999941
40
3.0000111833408223
50
-176.29691123
51
-93.70266701
0
LINE
8
BLACK
6
CONTINUOUS
10
95.5376809999999921
20
-70.5576899999999938
11
95.289447999999993
21
-70.9876419999999939
0
LINE
8
BLACK
6
CONTINUOUS
10
85.7123440000000016
20
-58.4749999999999943
11
85.9060619999999915
21
-58.2812819999999974
0
LINE
8
BLACK
6
CONTINUOUS
10
89.3493890000000022
20
-68.4570480000000003
11
88.8698399999999964
21
-68.3285529999999994
0
LINE
8
BLACK
6
CONTINUOUS
10
90.830292
20
-69.9379500000000007
11
90.3380729999999943
21
-70.002752000000001
0
ARC
8
BLACK
10
82.9121439999999978
20
-58.4749859999999941
40
2.9998008467473301
50
150.54810818
51
176.29730269
0
LINE
8
BLACK
6
CONTINUOUS
10
89.7768059999999934
20
-61.9359309999999965
11
89.7768059999999934
21
-61.4394659999999959
0
LINE
8
BLACK
6
CONTINUOUS
10
88.5396609999999953
20
-63.2909839999999946
11
88.9983349999999973
21
-63.1009949999999975
0
LINE
8
BLACK
6
CONTINUOUS
10
92.0869989999999916
20
-70.5576899999999938
11
91.6283249999999896
21
-70.7476789999999909
0
LINE
8
BLACK
6
CONTINUOUS
10
93.4612860000000012
20
-70.8310519999999997
11
93.0674130000000019
21
-71.1332809999999967
0
LINE
8
BLACK
6
CONTINUOUS
10
91.438334999999995
20
-70.2890039999999914
11
90.9587859999999893
21
-70.4174989999999923
0
LINE
8
BLACK
6
CONTINUOUS
10
92.3352319999999906
20
-70.9876419999999939
11
92.0869989999999916
21
-70.5576899999999938
0
LINE
8
BLACK
6
CONTINUOUS
10
96.665892999999997
20
-70.4174989999999923
11
96.1863439999999912
21
-70.2890039999999914
0
LINE
8
BLACK
6
CONTINUOUS
10
93.0674130000000019
20
-71.1332809999999967
11
92.7651839999999908
21
-70.7394089999999949
0
LINE
8
BLACK
6
CONTINUOUS
10
88.5479309999999913
20
-64.4278439999999932
11
88.2996979999999922
21
-63.9978920000000002
0
LINE
8
BLACK
6
CONTINUOUS
10
94.8594959999999929
20
-70.7394089999999949
11
94.557266999999996
21
-71.1332809999999967
0
LINE
8
BLACK
6
CONTINUOUS
10
89.7768059999999934
20
-69.0140679999999946
11
89.2845879999999994
21
-68.9492659999999944
0
LINE
8
BLACK
6
CONTINUOUS
10
88.154057999999992
20
-66.2199269999999984
11
88.456286999999989
21
-65.8260539999999992
0
LINE
8
BLACK
6
CONTINUOUS
10
82.9123439999999903
20
-61.2749999999999986
11
83.1060700000000026
21
-61.4687249999999992
0
LINE
8
BLACK
6
CONTINUOUS
10
88.1052329999999984
20
-65.4749999999999943
11
88.456286999999989
21
-65.123944999999992
0
LINE
8
BLACK
6
CONTINUOUS
10
98.7548389999999898
20
-68.3285529999999994
11
98.2752899999999983
21
-68.4570480000000003
0
LINE
8
BLACK
6
CONTINUOUS
10
99.0850190000000026
20
-67.6590149999999966
11
98.6263450000000006
21
-67.8490039999999937
0
LINE
8
BLACK
6
CONTINUOUS
10
99.0767489999999924
20
-66.5221559999999954
11
99.3249819999999914
21
-66.9521079999999955
0
LINE
8
BLACK
6
CONTINUOUS
10
99.4706219999999917
20
-66.2199269999999984
11
99.0767489999999924
21
-66.5221559999999954
0
LINE
8
BLACK
6
CONTINUOUS
10
99.4706219999999917
20
-64.7300729999999902
11
99.1683919999999972
21
-65.123944999999992
0
LINE
8
BLACK
6
CONTINUOUS
10
99.1683919999999972
20
-65.8260539999999992
11
99.4706219999999917
21
-66.2199269999999984
0
LINE
8
BLACK
6
CONTINUOUS
10
99.1683919999999972
20
-65.123944999999992
11
99.5194469999999995
21
-65.4749999999999943
0
LINE
8
BLACK
6
CONTINUOUS
10
99.3249819999999914
20
-63.9978920000000002
11
99.0767489999999924
21
-64.4278439999999932
0
LINE
8
BLACK
6
CONTINUOUS
10
96.7943879999999979
20
-61.0120489999999975
11
97.2866059999999919
21
-60.9472469999999973
0
LINE
8
BLACK
6
CONTINUOUS
10
91.1537610000000029
20
-65.4749999999999943
11
90.8299279999999953
21
-65.7988330000000019
0
LINE
8
BLACK
6
CONTINUOUS
10
94.557266999999996
20
-59.8167179999999945
11
94.8594959999999929
21
-60.2105909999999938
0
LINE
8
BLACK
6
CONTINUOUS
10
90.8298759999999987
20
-65.1511139999999926
11
91.1537610000000029
21
-65.4749999999999943
0
LINE
8
BLACK
6
CONTINUOUS
10
94.1633939999999967
20
-60.1189469999999986
11
94.557266999999996
21
-59.8167179999999945
0
LINE
8
BLACK
6
CONTINUOUS
10
95.289447999999993
20
-59.9623579999999947
11
95.5376809999999921
21
-60.3923099999999948
0
LINE
8
BLACK
6
CONTINUOUS
10
96.665892999999997
20
-60.5324999999999989
11
96.7943879999999979
21
-61.0120489999999975
0
LINE
8
BLACK
6
CONTINUOUS
10
98.8950299999999913
20
-63.7496589999999941
11
99.3249819999999914
21
-63.9978920000000002
0
LINE
8
BLACK
6
CONTINUOUS
10
99.0850190000000026
20
-63.2909839999999946
11
98.8950299999999913
21
-63.7496589999999941
0
LINE
8
BLACK
6
CONTINUOUS
10
98.3400919999999985
20
-62.0007329999999968
11
98.2752899999999983
21
-62.4929519999999954
0
LINE
8
BLACK
6
CONTINUOUS
10
97.3514079999999922
20
-61.4394659999999959
11
97.8478739999999902
21
-61.4394659999999959
0
LINE
8
BLACK
6
CONTINUOUS
10
91.438334999999995
20
-60.6609949999999998
11
91.6283249999999896
21
-60.2023209999999978
0
LINE
8
BLACK
6
CONTINUOUS
10
90.3380729999999943
20
-60.9472469999999973
11
90.830292
21
-61.0120489999999975
0
LINE
8
BLACK
6
CONTINUOUS
10
96.1863439999999912
20
-60.6609949999999998
11
96.665892999999997
21
-60.5324999999999989
0
LINE
8
BLACK
6
CONTINUOUS
10
90.830292
20
-61.0120489999999975
11
90.9587859999999893
21
-60.5324999999999989
0
LINE
8
BLACK
6
CONTINUOUS
10
94.8594959999999929
20
-60.2105909999999938
11
95.289447999999993
21
-59.9623579999999947
0
LINE
8
BLACK
6
CONTINUOUS
10
93.470918999999995
20
-64.
11
91.2000000000000028
21
-64.
0
LINE
8
BLACK
6
CONTINUOUS
10
94.1362179999999995
20
-68.4574569999999909
11
93.8123399999999918
21
-68.133578
0
LINE
8
BLACK
6
CONTINUOUS
10
96.7948169999999948
20
-65.1510999999999996
11
96.470918999999995
21
-65.4749999999999943
0
LINE
8
BLACK
6
CONTINUOUS
10
99.3249819999999914
20
-66.9521079999999955
11
98.8950299999999913
21
-67.2003399999999971
0
ARC
8
BLACK
10
93.8123739999999913
20
-65.4750279999999947
40
2.9999609078748004
50
-83.80287601
51
-6.19735183
0
LINE
8
BLACK
6
CONTINUOUS
10
99.5194469999999995
20
-65.4749999999999943
11
99.1683919999999972
21
-65.8260539999999992
0
LINE
8
BLACK
6
CONTINUOUS
10
95.9963549999999941
20
-60.2023209999999978
11
96.1863439999999912
21
-60.6609949999999998
0
LINE
8
BLACK
6
CONTINUOUS
10
95.5376809999999921
20
-60.3923099999999948
11
95.9963549999999941
21
-60.2023209999999978
0
LINE
8
BLACK
6
CONTINUOUS
10
93.470918999999995
20
-64.
11
94.1537609999999887
21
-64.
0
ARC
8
BLACK
10
93.8123739999999913
20
-65.4750279999999947
40
2.9999837473959752
50
6.19869004
51
29.45097510
0
LINE
8
BLACK
6
CONTINUOUS
10
93.0674130000000019
20
-59.8167179999999945
11
93.4612860000000012
21
-60.1189469999999986
0
LINE
8
BLACK
6
CONTINUOUS
10
94.1537609999999887
20
-64.
11
96.4246899999999982
21
-64.
0
ARC
8
BLACK
10
93.8124739999999946
20
-65.4750279999999947
40
3.0001351817876474
50
150.55050852
51
173.80189539
0
LINE
8
BLACK
6
CONTINUOUS
10
97.8478739999999902
20
-61.9359309999999965
11
98.3400919999999985
21
-62.0007329999999968
0
LINE
8
BLACK
6
CONTINUOUS
10
97.8478739999999902
20
-69.5105339999999927
11
97.3514079999999922
21
-69.5105339999999927
0
LINE
8
BLACK
6
CONTINUOUS
10
98.6263450000000006
20
-67.8490039999999937
11
98.7548389999999898
21
-68.3285529999999994
0
LINE
8
BLACK
6
CONTINUOUS
10
98.8950299999999913
20
-67.2003399999999971
11
99.0850190000000026
21
-67.6590149999999966
0
LINE
8
BLACK
6
CONTINUOUS
10
98.7548389999999898
20
-62.6214459999999988
11
98.6263450000000006
21
-63.1009949999999975
0
LINE
8
BLACK
6
CONTINUOUS
10
97.8478739999999902
20
-61.4394659999999959
11
97.8478739999999902
21
-61.9359309999999965
0
LINE
8
BLACK
6
CONTINUOUS
10
90.9587859999999893
20
-60.5324999999999989
11
91.438334999999995
21
-60.6609949999999998
0
LINE
8
BLACK
6
CONTINUOUS
10
97.8478739999999902
20
-69.0140679999999946
11
97.8478739999999902
21
-69.5105339999999927
0
LINE
8
BLACK
6
CONTINUOUS
10
93.4612860000000012
20
-60.1189469999999986
11
93.8123399999999918
21
-59.7678930000000008
0
LINE
8
BLACK
6
CONTINUOUS
10
91.6283249999999896
20
-60.2023209999999978
11
92.0869989999999916
21
-60.3923099999999948
0
LINE
8
BLACK
6
CONTINUOUS
10
98.3400919999999985
20
-68.9492659999999944
11
97.8478739999999902
21
-69.0140679999999946
0
LINE
8
BLACK
6
CONTINUOUS
10
92.7651839999999908
20
-60.2105909999999938
11
93.0674130000000019
21
-59.8167179999999945
0
LINE
8
BLACK
6
CONTINUOUS
10
92.0869989999999916
20
-60.3923099999999948
11
92.3352319999999906
21
-59.9623579999999947
0
LINE
8
BLACK
6
CONTINUOUS
10
90.2732719999999915
20
-61.4394659999999959
11
90.3380729999999943
21
-60.9472469999999973
0
ARC
8
BLACK
10
93.8123739999999913
20
-65.4750279999999947
40
2.9999746686692204
50
-173.80365156
51
-96.19853359
0
LINE
8
BLACK
6
CONTINUOUS
10
98.2752899999999983
20
-68.4570480000000003
11
98.3400919999999985
21
-68.9492659999999944
0
LINE
8
BLACK
6
CONTINUOUS
10
98.2752899999999983
20
-62.4929519999999954
11
98.7548389999999898
21
-62.6214459999999988
0
LINE
8
BLACK
6
CONTINUOUS
10
93.8123399999999918
20
-59.7678930000000008
11
94.1633939999999967
21
-60.1189469999999986
0
LINE
8
BLACK
6
CONTINUOUS
10
97.2866059999999919
20
-60.9472469999999973
11
97.3514079999999922
21
-61.4394659999999959
0
LINE
8
BLACK
6
CONTINUOUS
10
92.3352319999999906
20
-59.9623579999999947
11
92.7651839999999908
21
-60.2105909999999938
0
LINE
8
BLACK
6
CONTINUOUS
10
96.470918999999995
20
-65.4749999999999943
11
96.7948030000000017
21
-65.798884000000001
0
LINE
8
BLACK
6
CONTINUOUS
10
99.0767489999999924
20
-64.4278439999999932
11
99.4706219999999917
21
-64.7300729999999902
0
LINE
8
BLACK
6
CONTINUOUS
10
98.6263450000000006
20
-63.1009949999999975
11
99.0850190000000026
21
-63.2909839999999946
0
LINE
8
BLACK
6
CONTINUOUS
10
77.5018869999999964
20
-55.8068579999999983
11
77.3574720000000013
21
-55.2678930000000008
0
LINE
8
BLACK
6
CONTINUOUS
10
77.8964369999999917
20
-61.8265219999999971
11
77.3574720000000013
21
-61.6821059999999974
0
LINE
8
BLACK
6
CONTINUOUS
10
79.7052369999999968
20
-64.029871
11
79.5608220000000017
21
-63.490907
0
LINE
8
BLACK
6
CONTINUOUS
10
77.8236059999999981
20
-62.3797250000000005
11
77.8964369999999917
21
-61.8265219999999971
0
LINE
8
BLACK
6
CONTINUOUS
10
79.5608220000000017
20
-63.490907
11
79.0076179999999937
21
-63.5637369999999962
0
LINE
8
BLACK
6
CONTINUOUS
10
77.8964369999999917
20
-55.1234779999999986
11
77.8236059999999981
21
-54.5702739999999977
0
LINE
8
BLACK
6
CONTINUOUS
10
82.5709229999999934
20
-57.
11
80.2999999999999972
21
-57.
0
LINE
8
BLACK
6
CONTINUOUS
10
77.1999119999999976
20
-56.5358899999999949
11
76.9863830000000036
21
-56.0203859999999949
0
LINE
8
BLACK
6
CONTINUOUS
10
77.3574720000000013
20
-55.2678930000000008
11
77.8964369999999917
21
-55.1234779999999986
0
LINE
8
BLACK
6
CONTINUOUS
10
79.0076179999999937
20
-63.5637369999999962
11
78.9347879999999975
21
-63.0105329999999952
0
LINE
8
BLACK
6
CONTINUOUS
10
82.517793999999995
20
-64.4946640000000002
11
82.0751209999999958
21
-64.8343389999999999
0
LINE
8
BLACK
6
CONTINUOUS
10
82.0751209999999958
20
-64.8343389999999999
11
81.735445999999996
21
-64.3916650000000033
0
LINE
8
BLACK
6
CONTINUOUS
10
81.2522230000000008
20
-64.670653999999999
11
80.9732350000000025
21
-64.1874310000000037
0
LINE
8
BLACK
6
CONTINUOUS
10
76.9863830000000036
20
-56.0203859999999949
11
77.5018869999999964
21
-55.8068579999999983
0
LINE
8
BLACK
6
CONTINUOUS
10
76.8926799999999986
20
-58.8695489999999992
11
76.4981300000000033
21
-58.4749999999999943
0
LINE
8
BLACK
6
CONTINUOUS
10
76.9863830000000036
20
-60.9296129999999962
11
77.1999119999999976
21
-60.4141089999999963
0
LINE
8
BLACK
6
CONTINUOUS
10
77.3574720000000013
20
-61.6821059999999974
11
77.5018869999999964
21
-61.1431419999999974
0
LINE
8
BLACK
6
CONTINUOUS
10
80.4577309999999954
20
-64.4009599999999978
11
80.2442020000000014
21
-63.8854559999999978
0
LINE
8
BLACK
6
CONTINUOUS
10
76.9956779999999981
20
-59.6518979999999956
11
76.5530049999999989
21
-59.3122219999999984
0
LINE
8
BLACK
6
CONTINUOUS
10
83.2537650000000014
20
-57.
11
85.5246929999999992
21
-57.
0
LINE
8
BLACK
6
CONTINUOUS
10
76.8926799999999986
20
-58.080449999999999
11
76.5530049999999989
21
-57.6377769999999998
0
LINE
8
BLACK
6
CONTINUOUS
10
76.5530049999999989
20
-59.3122219999999984
11
76.8926799999999986
21
-58.8695489999999992
0
LINE
8
BLACK
6
CONTINUOUS
10
78.9347879999999975
20
-63.0105329999999952
11
78.3768099999999919
21
-63.0105329999999952
0
LINE
8
BLACK
6
CONTINUOUS
10
80.2442020000000014
20
-63.8854559999999978
11
79.7052369999999968
21
-64.029871
0
LINE
8
BLACK
6
CONTINUOUS
10
78.3768099999999919
20
-62.4525559999999942
11
77.8236059999999981
21
-62.3797250000000005
0
LINE
8
BLACK
6
CONTINUOUS
10
78.3768099999999919
20
-53.9394659999999959
11
78.9347879999999975
21
-53.9394659999999959
0
LINE
8
BLACK
6
CONTINUOUS
10
76.4981300000000033
20
-58.4749999999999943
11
76.8926799999999986
21
-58.080449999999999
0
LINE
8
BLACK
6
CONTINUOUS
10
77.1999119999999976
20
-60.4141089999999963
11
76.7166890000000024
21
-60.1351200000000006
0
LINE
8
BLACK
6
CONTINUOUS
10
80.9732350000000025
20
-64.1874310000000037
11
80.4577309999999954
21
-64.4009599999999978
0
LINE
8
BLACK
6
CONTINUOUS
10
78.3768099999999919
20
-54.497442999999997
11
78.3768099999999919
21
-53.9394659999999959
0
LINE
8
BLACK
6
CONTINUOUS
10
76.7166890000000024
20
-56.8148789999999977
11
77.1999119999999976
21
-56.5358899999999949
0
LINE
8
BLACK
6
CONTINUOUS
10
76.9956779999999981
20
-57.2981020000000001
11
76.7166890000000024
21
-56.8148789999999977
0
LINE
8
BLACK
6
CONTINUOUS
10
81.735445999999996
20
-64.3916650000000033
11
81.2522230000000008
21
-64.670653999999999
0
LINE
8
BLACK
6
CONTINUOUS
10
76.7166890000000024
20
-60.1351200000000006
11
76.9956779999999981
21
-59.6518979999999956
0
LINE
8
BLACK
6
CONTINUOUS
10
76.5530049999999989
20
-57.6377769999999998
11
76.9956779999999981
21
-57.2981020000000001
0
LINE
8
BLACK
6
CONTINUOUS
10
77.5018869999999964
20
-61.1431419999999974
11
76.9863830000000036
21
-60.9296129999999962
0
LINE
8
BLACK
6
CONTINUOUS
10
78.3768099999999919
20
-63.0105329999999952
11
78.3768099999999919
21
-62.4525559999999942
0
LINE
8
BLACK
6
CONTINUOUS
10
82.5709229999999934
20
-57.
11
83.2537650000000014
21
-57.
0
LINE
8
BLACK
6
CONTINUOUS
10
77.8236059999999981
20
-54.5702739999999977
11
78.3768099999999919
21
-54.497442999999997
0
LINE
8
BLACK
6
CONTINUOUS
10
84.0892419999999987
20
-64.3916650000000033
11
83.749566999999999
21
-64.8343389999999999
0
LINE
8
BLACK
6
CONTINUOUS
10
84.572464999999994
20
-64.670653999999999
11
84.0892419999999987
21
-64.3916650000000033
0
LINE
8
BLACK
6
CONTINUOUS
10
84.8514529999999922
20
-64.1874310000000037
11
84.572464999999994
21
-64.670653999999999
0
LINE
8
BLACK
6
CONTINUOUS
10
85.3669569999999993
20
-64.4009599999999978
11
84.8514529999999922
21
-64.1874310000000037
0
LINE
8
BLACK
6
CONTINUOUS
10
85.5804859999999934
20
-63.8854559999999978
11
85.3669569999999993
21
-64.4009599999999978
0
LINE
8
BLACK
6
CONTINUOUS
10
86.119450999999998
20
-64.029871
11
85.5804859999999934
21
-63.8854559999999978
0
LINE
8
BLACK
6
CONTINUOUS
10
86.2638659999999931
20
-63.490907
11
86.119450999999998
21
-64.029871
0
LINE
8
BLACK
6
CONTINUOUS
10
86.8170700000000011
20
-63.5637369999999962
11
86.2638659999999931
21
-63.490907
0
LINE
8
BLACK
6
CONTINUOUS
10
86.8898999999999972
20
-63.0105329999999952
11
86.8170700000000011
21
-63.5637369999999962
0
LINE
8
BLACK
6
CONTINUOUS
10
87.4478780000000029
20
-63.0105329999999952
11
86.8898999999999972
21
-63.0105329999999952
0
LINE
8
BLACK
6
CONTINUOUS
10
88.8383049999999912
20
-60.9296129999999962
11
88.3228009999999983
21
-61.1431419999999974
0
LINE
8
BLACK
6
CONTINUOUS
10
89.1079989999999924
20
-56.8148789999999977
11
88.8290099999999967
21
-57.2981020000000001
0
LINE
8
BLACK
6
CONTINUOUS
10
83.3068939999999998
20
-52.4553359999999955
11
83.749566999999999
21
-52.1156599999999983
0
LINE
8
BLACK
6
CONTINUOUS
10
87.4478780000000029
20
-62.4525559999999942
11
87.4478780000000029
21
-63.0105329999999952
0
LINE
8
BLACK
6
CONTINUOUS
10
88.4672159999999934
20
-61.6821059999999974
11
87.928251000000003
21
-61.8265219999999971
0
LINE
8
BLACK
6
CONTINUOUS
10
89.1079989999999924
20
-60.1351200000000006
11
88.6247759999999971
21
-60.4141089999999963
0
LINE
8
BLACK
6
CONTINUOUS
10
88.8290099999999967
20
-57.2981020000000001
11
89.2716829999999959
21
-57.6377769999999998
0
LINE
8
BLACK
6
CONTINUOUS
10
88.8290099999999967
20
-59.6518979999999956
11
89.1079989999999924
21
-60.1351200000000006
0
LINE
8
BLACK
6
CONTINUOUS
10
81.735445999999996
20
-52.558333999999995
11
82.0751209999999958
21
-52.1156599999999983
0
LINE
8
BLACK
6
CONTINUOUS
10
89.3265579999999915
20
-58.4749999999999943
11
88.9320079999999962
21
-58.8695489999999992
0
LINE
8
BLACK
6
CONTINUOUS
10
88.0010819999999967
20
-62.3797250000000005
11
87.4478780000000029
21
-62.4525559999999942
0
LINE
8
BLACK
6
CONTINUOUS
10
85.5804859999999934
20
-53.0645430000000005
11
86.119450999999998
21
-52.9201279999999983
0
LINE
8
BLACK
6
CONTINUOUS
10
80.2442020000000014
20
-53.0645430000000005
11
80.4577309999999954
21
-52.5490390000000005
0
LINE
8
BLACK
6
CONTINUOUS
10
88.9320079999999962
20
-58.080449999999999
11
89.3265579999999915
21
-58.4749999999999943
0
LINE
8
BLACK
6
CONTINUOUS
10
88.3228009999999983
20
-61.1431419999999974
11
88.4672159999999934
21
-61.6821059999999974
0
LINE
8
BLACK
6
CONTINUOUS
10
83.749566999999999
20
-52.1156599999999983
11
84.0892419999999987
21
-52.558333999999995
0
LINE
8
BLACK
6
CONTINUOUS
10
79.0076179999999937
20
-53.386261999999995
11
79.5608220000000017
21
-53.4590919999999983
0
LINE
8
BLACK
6
CONTINUOUS
10
88.6247759999999971
20
-60.4141089999999963
11
88.8383049999999912
21
-60.9296129999999962
0
LINE
8
BLACK
6
CONTINUOUS
10
93.8123399999999918
20
-68.133578
11
93.4884550000000019
21
-68.4574640000000016
0
LINE
8
BLACK
6
CONTINUOUS
10
80.4577309999999954
20
-52.5490390000000005
11
80.9732350000000025
21
-52.7625679999999946
0
LINE
8
BLACK
6
CONTINUOUS
10
88.9320079999999962
20
-58.8695489999999992
11
89.2716829999999959
21
-59.3122219999999984
0
LINE
8
BLACK
6
CONTINUOUS
10
89.2716829999999959
20
-57.6377769999999998
11
88.9320079999999962
21
-58.080449999999999
0
LINE
8
BLACK
6
CONTINUOUS
10
80.9732350000000025
20
-52.7625679999999946
11
81.2522230000000008
21
-52.2793449999999993
0
LINE
8
BLACK
6
CONTINUOUS
10
86.119450999999998
20
-52.9201279999999983
11
86.2638659999999931
21
-53.4590919999999983
0
LINE
8
BLACK
6
CONTINUOUS
10
87.4478780000000029
20
-53.9394659999999959
11
87.4478780000000029
21
-54.497442999999997
0
LINE
8
BLACK
6
CONTINUOUS
10
88.8383049999999912
20
-56.0203859999999949
11
88.6247759999999971
21
-56.5358899999999949
0
LINE
8
BLACK
6
CONTINUOUS
10
87.928251000000003
20
-55.1234779999999986
11
88.4672159999999934
21
-55.2678930000000008
0
LINE
8
BLACK
6
CONTINUOUS
10
88.4672159999999934
20
-55.2678930000000008
11
88.3228009999999983
21
-55.8068579999999983
0
LINE
8
BLACK
6
CONTINUOUS
10
88.3228009999999983
20
-55.8068579999999983
11
88.8383049999999912
21
-56.0203859999999949
0
LINE
8
BLACK
6
CONTINUOUS
10
86.8170700000000011
20
-53.386261999999995
11
86.8898999999999972
21
-53.9394659999999959
0
LINE
8
BLACK
6
CONTINUOUS
10
82.9123439999999903
20
-52.0607860000000002
11
83.3068939999999998
21
-52.4553359999999955
0
LINE
8
BLACK
6
CONTINUOUS
10
79.5608220000000017
20
-53.4590919999999983
11
79.7052369999999968
21
-52.9201279999999983
0
LINE
8
BLACK
6
CONTINUOUS
10
86.8898999999999972
20
-53.9394659999999959
11
87.4478780000000029
21
-53.9394659999999959
0
LINE
8
BLACK
6
CONTINUOUS
10
84.8514529999999922
20
-52.7625679999999946
11
85.3669569999999993
21
-52.5490390000000005
0
LINE
8
BLACK
6
CONTINUOUS
10
78.9347879999999975
20
-53.9394659999999959
11
79.0076179999999937
21
-53.386261999999995
0
LINE
8
BLACK
6
CONTINUOUS
10
85.3669569999999993
20
-52.5490390000000005
11
85.5804859999999934
21
-53.0645430000000005
0
LINE
8
BLACK
6
CONTINUOUS
10
84.572464999999994
20
-52.2793449999999993
11
84.8514529999999922
21
-52.7625679999999946
0
LINE
8
BLACK
6
CONTINUOUS
10
82.517793999999995
20
-52.4553359999999955
11
82.9123439999999903
21
-52.0607860000000002
0
LINE
8
BLACK
6
CONTINUOUS
10
79.7052369999999968
20
-52.9201279999999983
11
80.2442020000000014
21
-53.0645430000000005
0
LINE
8
BLACK
6
CONTINUOUS
10
89.2716829999999959
20
-59.3122219999999984
11
88.8290099999999967
21
-59.6518979999999956
0
LINE
8
BLACK
6
CONTINUOUS
10
86.2638659999999931
20
-53.4590919999999983
11
86.8170700000000011
21
-53.386261999999995
0
LINE
8
BLACK
6
CONTINUOUS
10
88.6247759999999971
20
-56.5358899999999949
11
89.1079989999999924
21
-56.8148789999999977
0
LINE
8
BLACK
6
CONTINUOUS
10
88.0010819999999967
20
-54.5702739999999977
11
87.928251000000003
21
-55.1234779999999986
0
LINE
8
BLACK
6
CONTINUOUS
10
84.0892419999999987
20
-52.558333999999995
11
84.572464999999994
21
-52.2793449999999993
0
LINE
8
BLACK
6
CONTINUOUS
10
81.2522230000000008
20
-52.2793449999999993
11
81.735445999999996
21
-52.558333999999995
0
LINE
8
BLACK
6
CONTINUOUS
10
82.0751209999999958
20
-52.1156599999999983
11
82.517793999999995
21
-52.4553359999999955
0
LINE
8
BLACK
6
CONTINUOUS
10
87.4478780000000029
20
-54.497442999999997
11
88.0010819999999967
21
-54.5702739999999977
0
LINE
8
BLACK
6
CONTINUOUS
10
87.928251000000003
20
-61.8265219999999971
11
88.0010819999999967
21
-62.3797250000000005
0
LINE
8
BLACK
6
CONTINUOUS
10
82.9123439999999903
20
-64.889212999999998
11
82.517793999999995
21
-64.4946640000000002
0
LINE
8
BLACK
6
CONTINUOUS
10
83.3068939999999998
20
-64.4946640000000002
11
82.9123439999999903
21
-64.889212999999998
0
LINE
8
BLACK
6
CONTINUOUS
10
83.749566999999999
20
-64.8343389999999999
11
83.3068939999999998
21
-64.4946640000000002
0
LINE
8
BLACK
6
CONTINUOUS
10
80.1123439999999931
20
-45.4750000000000014
11
79.9186049999999994
21
-45.2812610000000006
0
ARC
8
BLACK
10
82.9123439999999903
20
-45.4749860000000012
40
3.0000011104406274
50
-86.29753030
51
-3.70294740
0
LINE
8
BLACK
6
CONTINUOUS
10
85.9060819999999978
20
-45.6687370000000001
11
85.7123440000000016
21
-45.4750000000000014
0
LINE
8
BLACK
6
CONTINUOUS
10
88.456286999999989
20
-52.1239449999999991
11
88.154057999999992
21
-51.7300729999999973
0
LINE
8
BLACK
6
CONTINUOUS
10
88.5396609999999953
20
-54.6590149999999966
11
88.7296499999999924
21
-54.2003399999999971
0
LINE
8
BLACK
6
CONTINUOUS
10
91.6283249999999896
20
-57.747678999999998
11
91.438334999999995
21
-57.2890039999999985
0
LINE
8
BLACK
6
CONTINUOUS
10
94.1633939999999967
20
-57.8310519999999997
11
93.8123399999999918
21
-58.1821059999999974
0
LINE
8
BLACK
6
CONTINUOUS
10
93.8123399999999918
20
-58.1821059999999974
11
93.4612860000000012
21
-57.8310519999999997
0
LINE
8
BLACK
6
CONTINUOUS
10
88.7296499999999924
20
-54.2003399999999971
11
88.2996979999999922
21
-53.9521079999999955
0
LINE
8
BLACK
6
CONTINUOUS
10
92.7651839999999908
20
-57.7394089999999949
11
92.3352319999999906
21
-57.9876419999999939
0
LINE
8
BLACK
6
CONTINUOUS
10
96.7943879999999979
20
-56.9379500000000007
11
96.665892999999997
21
-57.4174989999999994
0
LINE
8
BLACK
6
CONTINUOUS
10
82.7186069999999916
20
-48.4687349999999952
11
82.9123439999999903
21
-48.2749999999999986
0
LINE
8
BLACK
6
CONTINUOUS
10
89.7768059999999934
20
-56.5105339999999998
11
89.7768059999999934
21
-56.0140679999999946
0
LINE
8
BLACK
6
CONTINUOUS
10
96.1863439999999912
20
-57.2890039999999985
11
95.9963549999999941
21
-57.747678999999998
0
LINE
8
BLACK
6
CONTINUOUS
10
90.3380729999999943
20
-57.0027519999999939
11
90.2732719999999915
21
-56.5105339999999998
0
LINE
8
BLACK
6
CONTINUOUS
10
89.7768059999999934
20
-48.4394659999999959
11
90.2732719999999915
21
-48.4394659999999959
0
LINE
8
BLACK
6
CONTINUOUS
10
88.2996979999999922
20
-53.9521079999999955
11
88.5479309999999913
21
-53.5221559999999954
0
LINE
8
BLACK
6
CONTINUOUS
10
89.2845879999999994
20
-55.9492659999999944
11
89.3493890000000022
21
-55.4570480000000003
0
LINE
8
BLACK
6
CONTINUOUS
10
90.9587859999999893
20
-57.4174989999999994
11
90.830292
21
-56.9379500000000007
0
LINE
8
BLACK
6
CONTINUOUS
10
95.289447999999993
20
-57.9876419999999939
11
94.8594959999999929
21
-57.7394089999999949
0
LINE
8
BLACK
6
CONTINUOUS
10
89.3493890000000022
20
-49.4929519999999954
11
89.2845879999999994
21
-49.0007329999999968
0
LINE
8
BLACK
6
CONTINUOUS
10
88.2996979999999922
20
-50.9978920000000002
11
88.7296499999999924
21
-50.7496590000000012
0
LINE
8
BLACK
6
CONTINUOUS
10
88.154057999999992
20
-51.7300729999999973
11
88.5479309999999913
21
-51.4278440000000003
0
LINE
8
BLACK
6
CONTINUOUS
10
88.9983349999999973
20
-50.1009949999999975
11
88.8698399999999964
21
-49.6214459999999988
0
LINE
8
BLACK
6
CONTINUOUS
10
88.8698399999999964
20
-55.3285529999999994
11
88.9983349999999973
21
-54.8490040000000008
0
LINE
8
BLACK
6
CONTINUOUS
10
89.2845879999999994
20
-49.0007329999999968
11
89.7768059999999934
21
-48.9359309999999965
0
LINE
8
BLACK
6
CONTINUOUS
10
97.3514079999999922
20
-56.5105339999999998
11
97.2866059999999919
21
-57.0027519999999939
0
LINE
8
BLACK
6
CONTINUOUS
10
88.8698399999999964
20
-49.6214459999999988
11
89.3493890000000022
21
-49.4929519999999954
0
LINE
8
BLACK
6
CONTINUOUS
10
88.5479309999999913
20
-53.5221559999999954
11
88.154057999999992
21
-53.2199269999999984
0
LINE
8
BLACK
6
CONTINUOUS
10
94.557266999999996
20
-58.1332809999999967
11
94.1633939999999967
21
-57.8310519999999997
0
LINE
8
BLACK
6
CONTINUOUS
10
90.2732719999999915
20
-56.5105339999999998
11
89.7768059999999934
21
-56.5105339999999998
0
LINE
8
BLACK
6
CONTINUOUS
10
88.9983349999999973
20
-54.8490040000000008
11
88.5396609999999953
21
-54.6590149999999966
0
LINE
8
BLACK
6
CONTINUOUS
10
88.456286999999989
20
-52.8260539999999992
11
88.1052329999999984
21
-52.4749999999999943
0
LINE
8
BLACK
6
CONTINUOUS
10
88.7296499999999924
20
-50.7496590000000012
11
88.5396609999999953
21
-50.2909839999999946
0
LINE
8
BLACK
6
CONTINUOUS
10
97.2866059999999919
20
-57.0027519999999939
11
96.7943879999999979
21
-56.9379500000000007
0
LINE
8
BLACK
6
CONTINUOUS
10
79.9185969999999912
20
-45.6687450000000013
11
80.1123439999999931
21
-45.4750000000000014
0
ARC
8
BLACK
10
82.9126440000000002
20
-45.4748859999999979
40
2.9996814316518678
50
3.70054021
51
29.45112080
0
LINE
8
BLACK
6
CONTINUOUS
10
95.9963549999999941
20
-57.747678999999998
11
95.5376809999999921
21
-57.5576900000000009
0
ARC
8
BLACK
10
82.9123439999999903
20
-45.4749860000000012
40
3.0000111833408223
50
-176.29691123
51
-93.70266701
0
LINE
8
BLACK
6
CONTINUOUS
10
95.5376809999999921
20
-57.5576900000000009
11
95.289447999999993
21
-57.9876419999999939
0
LINE
8
BLACK
6
CONTINUOUS
10
85.7123440000000016
20
-45.4750000000000014
11
85.9060619999999915
21
-45.2812819999999974
0
LINE
8
BLACK
6
CONTINUOUS
10
89.3493890000000022
20
-55.4570480000000003
11
88.8698399999999964
21
-55.3285529999999994
0
LINE
8
BLACK
6
CONTINUOUS
10
90.830292
20
-56.9379500000000007
11
90.3380729999999943
21
-57.0027519999999939
0
ARC
8
BLACK
10
82.9121439999999978
20
-45.4749860000000012
40
2.9998008467473301
50
150.54810818
51
176.29730269
0
LINE
8
BLACK
6
CONTINUOUS
10
89.7768059999999934
20
-48.9359309999999965
11
89.7768059999999934
21
-48.4394659999999959
0
LINE
8
BLACK
6
CONTINUOUS
10
88.5396609999999953
20
-50.2909839999999946
11
88.9983349999999973
21
-50.1009949999999975
0
LINE
8
BLACK
6
CONTINUOUS
10
92.0869989999999916
20
-57.5576900000000009
11
91.6283249999999896
21
-57.747678999999998
0
LINE
8
BLACK
6
CONTINUOUS
10
93.4612860000000012
20
-57.8310519999999997
11
93.0674130000000019
21
-58.1332809999999967
0
LINE
8
BLACK
6
CONTINUOUS
10
91.438334999999995
20
-57.2890039999999985
11
90.9587859999999893
21
-57.4174989999999994
0
LINE
8
BLACK
6
CONTINUOUS
10
92.3352319999999906
20
-57.9876419999999939
11
92.0869989999999916
21
-57.5576900000000009
0
LINE
8
BLACK
6
CONTINUOUS
10
96.665892999999997
20
-57.4174989999999994
11
96.1863439999999912
21
-57.2890039999999985
0
LINE
8
BLACK
6
CONTINUOUS
10
93.0674130000000019
20
-58.1332809999999967
11
92.7651839999999908
21
-57.7394089999999949
0
LINE
8
BLACK
6
CONTINUOUS
10
88.5479309999999913
20
-51.4278440000000003
11
88.2996979999999922
21
-50.9978920000000002
0
LINE
8
BLACK
6
CONTINUOUS
10
94.8594959999999929
20
-57.7394089999999949
11
94.557266999999996
21
-58.1332809999999967
0
LINE
8
BLACK
6
CONTINUOUS
10
89.7768059999999934
20
-56.0140679999999946
11
89.2845879999999994
21
-55.9492659999999944
0
LINE
8
BLACK
6
CONTINUOUS
10
88.154057999999992
20
-53.2199269999999984
11
88.456286999999989
21
-52.8260539999999992
0
LINE
8
BLACK
6
CONTINUOUS
10
82.9123439999999903
20
-48.2749999999999986
11
83.1060700000000026
21
-48.4687249999999992
0
LINE
8
BLACK
6
CONTINUOUS
10
88.1052329999999984
20
-52.4749999999999943
11
88.456286999999989
21
-52.1239449999999991
0
LINE
8
BLACK
6
CONTINUOUS
10
98.7548389999999898
20
-55.3285529999999994
11
98.2752899999999983
21
-55.4570480000000003
0
LINE
8
BLACK
6
CONTINUOUS
10
99.0850190000000026
20
-54.6590149999999966
11
98.6263450000000006
21
-54.8490040000000008
0
LINE
8
BLACK
6
CONTINUOUS
10
99.0767489999999924
20
-53.5221559999999954
11
99.3249819999999914
21
-53.9521079999999955
0
LINE
8
BLACK
6
CONTINUOUS
10
99.4706219999999917
20
-53.2199269999999984
11
99.0767489999999924
21
-53.5221559999999954
0
LINE
8
BLACK
6
CONTINUOUS
10
99.4706219999999917
20
-51.7300729999999973
11
99.1683919999999972
21
-52.1239449999999991
0
LINE
8
BLACK
6
CONTINUOUS
10
99.1683919999999972
20
-52.8260539999999992
11
99.4706219999999917
21
-53.2199269999999984
0
LINE
8
BLACK
6
CONTINUOUS
10
99.1683919999999972
20
-52.1239449999999991
11
99.5194469999999995
21
-52.4749999999999943
0
LINE
8
BLACK
6
CONTINUOUS
10
99.3249819999999914
20
-50.9978920000000002
11
99.0767489999999924
21
-51.4278440000000003
0
LINE
8
BLACK
6
CONTINUOUS
10
96.7943879999999979
20
-48.0120489999999975
11
97.2866059999999919
21
-47.9472469999999973
0
LINE
8
BLACK
6
CONTINUOUS
10
91.1537610000000029
20
-52.4749999999999943
11
90.8299279999999953
21
-52.7988329999999948
0
LINE
8
BLACK
6
CONTINUOUS
10
94.557266999999996
20
-46.8167179999999945
11
94.8594959999999929
21
-47.2105910000000009
0
LINE
8
BLACK
6
CONTINUOUS
10
90.8298759999999987
20
-52.1511139999999997
11
91.1537610000000029
21
-52.4749999999999943
0
LINE
8
BLACK
6
CONTINUOUS
10
94.1633939999999967
20
-47.1189469999999986
11
94.557266999999996
21
-46.8167179999999945
0
LINE
8
BLACK
6
CONTINUOUS
10
95.289447999999993
20
-46.9623579999999947
11
95.5376809999999921
21
-47.3923099999999948
0
LINE
8
BLACK
6
CONTINUOUS
10
96.665892999999997
20
-47.5324999999999989
11
96.7943879999999979
21
-48.0120489999999975
0
LINE
8
BLACK
6
CONTINUOUS
10
98.8950299999999913
20
-50.7496590000000012
11
99.3249819999999914
21
-50.9978920000000002
0
LINE
8
BLACK
6
CONTINUOUS
10
99.0850190000000026
20
-50.2909839999999946
11
98.8950299999999913
21
-50.7496590000000012
0
LINE
8
BLACK
6
CONTINUOUS
10
98.3400919999999985
20
-49.0007329999999968
11
98.2752899999999983
21
-49.4929519999999954
0
LINE
8
BLACK
6
CONTINUOUS
10
97.3514079999999922
20
-48.4394659999999959
11
97.8478739999999902
21
-48.4394659999999959
0
LINE
8
BLACK
6
CONTINUOUS
10
91.438334999999995
20
-47.6609949999999998
11
91.6283249999999896
21
-47.2023209999999978
0
LINE
8
BLACK
6
CONTINUOUS
10
90.3380729999999943
20
-47.9472469999999973
11
90.830292
21
-48.0120489999999975
0
LINE
8
BLACK
6
CONTINUOUS
10
96.1863439999999912
20
-47.6609949999999998
11
96.665892999999997
21
-47.5324999999999989
0
LINE
8
BLACK
6
CONTINUOUS
10
90.830292
20
-48.0120489999999975
11
90.9587859999999893
21
-47.5324999999999989
0
LINE
8
BLACK
6
CONTINUOUS
10
94.8594959999999929
20
-47.2105910000000009
11
95.289447999999993
21
-46.9623579999999947
0
LINE
8
BLACK
6
CONTINUOUS
10
93.470918999999995
20
-51.
11
91.2000000000000028
21
-51.
0
LINE
8
BLACK
6
CONTINUOUS
10
94.1362179999999995
20
-55.457456999999998
11
93.8123399999999918
21
-55.133578
0
LINE
8
BLACK
6
CONTINUOUS
10
96.7948169999999948
20
-52.1510999999999996
11
96.470918999999995
21
-52.4749999999999943
0
LINE
8
BLACK
6
CONTINUOUS
10
99.3249819999999914
20
-53.9521079999999955
11
98.8950299999999913
21
-54.2003399999999971
0
ARC
8
BLACK
10
93.8123739999999913
20
-52.4750279999999947
40
2.9999609078748004
50
-83.80287601
51
-6.19735183
0
LINE
8
BLACK
6
CONTINUOUS
10
99.5194469999999995
20
-52.4749999999999943
11
99.1683919999999972
21
-52.8260539999999992
0
LINE
8
BLACK
6
CONTINUOUS
10
95.9963549999999941
20
-47.2023209999999978
11
96.1863439999999912
21
-47.6609949999999998
0
LINE
8
BLACK
6
CONTINUOUS
10
95.5376809999999921
20
-47.3923099999999948
11
95.9963549999999941
21
-47.2023209999999978
0
LINE
8
BLACK
6
CONTINUOUS
10
93.470918999999995
20
-51.
11
94.1537609999999887
21
-51.
0
ARC
8
BLACK
10
93.8123739999999913
20
-52.4750279999999947
40
2.9999837473959752
50
6.19869004
51
29.45097510
0
LINE
8
BLACK
6
CONTINUOUS
10
93.0674130000000019
20
-46.8167179999999945
11
93.4612860000000012
21
-47.1189469999999986
0
LINE
8
BLACK
6
CONTINUOUS
10
94.1537609999999887
20
-51.
11
96.4246899999999982
21
-51.
0
ARC
8
BLACK
10
93.8124739999999946
20
-52.4750279999999947
40
3.0001351817876474
50
150.55050852
51
173.80189539
0
LINE
8
BLACK
6
CONTINUOUS
10
97.8478739999999902
20
-48.9359309999999965
11
98.3400919999999985
21
-49.0007329999999968
0
LINE
8
BLACK
6
CONTINUOUS
10
97.8478739999999902
20
-56.5105339999999998
11
97.3514079999999922
21
-56.5105339999999998
0
LINE
8
BLACK
6
CONTINUOUS
10
98.6263450000000006
20
-54.8490040000000008
11
98.7548389999999898
21
-55.3285529999999994
0
LINE
8
BLACK
6
CONTINUOUS
10
98.8950299999999913
20
-54.2003399999999971
11
99.0850190000000026
21
-54.6590149999999966
0
LINE
8
BLACK
6
CONTINUOUS
10
98.7548389999999898
20
-49.6214459999999988
11
98.6263450000000006
21
-50.1009949999999975
0
LINE
8
BLACK
6
CONTINUOUS
10
97.8478739999999902
20
-48.4394659999999959
11
97.8478739999999902
21
-48.9359309999999965
0
LINE
8
BLACK
6
CONTINUOUS
10
90.9587859999999893
20
-47.5324999999999989
11
91.438334999999995
21
-47.6609949999999998
0
LINE
8
BLACK
6
CONTINUOUS
10
97.8478739999999902
20
-56.0140679999999946
11
97.8478739999999902
21
-56.5105339999999998
0
LINE
8
BLACK
6
CONTINUOUS
10
93.4612860000000012
20
-47.1189469999999986
11
93.8123399999999918
21
-46.7678930000000008
0
LINE
8
BLACK
6
CONTINUOUS
10
91.6283249999999896
20
-47.2023209999999978
11
92.0869989999999916
21
-47.3923099999999948
0
LINE
8
BLACK
6
CONTINUOUS
10
98.3400919999999985
20
-55.9492659999999944
11
97.8478739999999902
21
-56.0140679999999946
0
LINE
8
BLACK
6
CONTINUOUS
10
92.7651839999999908
20
-47.2105910000000009
11
93.0674130000000019
21
-46.8167179999999945
0
LINE
8
BLACK
6
CONTINUOUS
10
92.0869989999999916
20
-47.3923099999999948
11
92.3352319999999906
21
-46.9623579999999947
0
LINE
8
BLACK
6
CONTINUOUS
10
90.2732719999999915
20
-48.4394659999999959
11
90.3380729999999943
21
-47.9472469999999973
0
ARC
8
BLACK
10
93.8123739999999913
20
-52.4750279999999947
40
2.9999746686692204
50
-173.80365156
51
-96.19853359
0
LINE
8
BLACK
6
CONTINUOUS
10
98.2752899999999983
20
-55.4570480000000003
11
98.3400919999999985
21
-55.9492659999999944
0
LINE
8
BLACK
6
CONTINUOUS
10
98.2752899999999983
20
-49.4929519999999954
11
98.7548389999999898
21
-49.6214459999999988
0
LINE
8
BLACK
6
CONTINUOUS
10
93.8123399999999918
20
-46.7678930000000008
11
94.1633939999999967
21
-47.1189469999999986
0
LINE
8
BLACK
6
CONTINUOUS
10
97.2866059999999919
20
-47.9472469999999973
11
97.3514079999999922
21
-48.4394659999999959
0
LINE
8
BLACK
6
CONTINUOUS
10
92.3352319999999906
20
-46.9623579999999947
11
92.7651839999999908
21
-47.2105910000000009
0
LINE
8
BLACK
6
CONTINUOUS
10
96.470918999999995
20
-52.4749999999999943
11
96.7948030000000017
21
-52.798884000000001
0
LINE
8
BLACK
6
CONTINUOUS
10
99.0767489999999924
20
-51.4278440000000003
11
99.4706219999999917
21
-51.7300729999999973
0
LINE
8
BLACK
6
CONTINUOUS
10
98.6263450000000006
20
-50.1009949999999975
11
99.0850190000000026
21
-50.2909839999999946
0
LINE
8
BLACK
6
CONTINUOUS
10
77.5018869999999964
20
-42.8068579999999983
11
77.3574720000000013
21
-42.2678930000000008
0
LINE
8
BLACK
6
CONTINUOUS
10
77.8964369999999917
20
-48.8265219999999971
11
77.3574720000000013
21
-48.6821059999999974
0
LINE
8
BLACK
6
CONTINUOUS
10
79.7052369999999968
20
-51.029871
11
79.5608220000000017
21
-50.490907
0
LINE
8
BLACK
6
CONTINUOUS
10
77.8236059999999981
20
-49.3797250000000005
11
77.8964369999999917
21
-48.8265219999999971
0
LINE
8
BLACK
6
CONTINUOUS
10
79.5608220000000017
20
-50.490907
11
79.0076179999999937
21
-50.5637369999999962
0
LINE
8
BLACK
6
CONTINUOUS
10
77.8964369999999917
20
-42.1234779999999986
11
77.8236059999999981
21
-41.5702739999999977
0
LINE
8
BLACK
6
CONTINUOUS
10
82.5709229999999934
20
-44.
11
80.2999999999999972
21
-44.
0
LINE
8
BLACK
6
CONTINUOUS
10
77.1999119999999976
20
-43.5358899999999949
11
76.9863830000000036
21
-43.0203859999999949
0
LINE
8
BLACK
6
CONTINUOUS
10
77.3574720000000013
20
-42.2678930000000008
11
77.8964369999999917
21
-42.1234779999999986
0
LINE
8
BLACK
6
CONTINUOUS
10
79.0076179999999937
20
-50.5637369999999962
11
78.9347879999999975
21
-50.0105329999999952
0
LINE
8
BLACK
6
CONTINUOUS
10
82.517793999999995
20
-51.4946640000000002
11
82.0751209999999958
21
-51.8343389999999999
0
LINE
8
BLACK
6
CONTINUOUS
10
82.0751209999999958
20
-51.8343389999999999
11
81.735445999999996
21
-51.3916649999999962
0
LINE
8
BLACK
6
CONTINUOUS
10
81.2522230000000008
20
-51.670653999999999
11
80.9732350000000025
21
-51.1874309999999966
0
LINE
8
BLACK
6
CONTINUOUS
10
76.9863830000000036
20
-43.0203859999999949
11
77.5018869999999964
21
-42.8068579999999983
0
LINE
8
BLACK
6
CONTINUOUS
10
76.8926799999999986
20
-45.8695489999999992
11
76.4981300000000033
21
-45.4750000000000014
0
LINE
8
BLACK
6
CONTINUOUS
10
76.9863830000000036
20
-47.9296129999999962
11
77.1999119999999976
21
-47.4141089999999963
0
LINE
8
BLACK
6
CONTINUOUS
10
77.3574720000000013
20
-48.6821059999999974
11
77.5018869999999964
21
-48.1431419999999974
0
LINE
8
BLACK
6
CONTINUOUS
10
80.4577309999999954
20
-51.4009599999999978
11
80.2442020000000014
21
-50.8854559999999978
0
LINE
8
BLACK
6
CONTINUOUS
10
76.9956779999999981
20
-46.6518979999999956
11
76.5530049999999989
21
-46.3122219999999984
0
LINE
8
BLACK
6
CONTINUOUS
10
83.2537650000000014
20
-44.
11
85.5246929999999992
21
-44.
0
LINE
8
BLACK
6
CONTINUOUS
10
76.8926799999999986
20
-45.080449999999999
11
76.5530049999999989
21
-44.6377769999999998
0
LINE
8
BLACK
6
CONTINUOUS
10
76.5530049999999989
20
-46.3122219999999984
11
76.8926799999999986
21
-45.8695489999999992
0
LINE
8
BLACK
6
CONTINUOUS
10
78.9347879999999975
20
-50.0105329999999952
11
78.3768099999999919
21
-50.0105329999999952
0
LINE
8
BLACK
6
CONTINUOUS
10
80.2442020000000014
20
-50.8854559999999978
11
79.7052369999999968
21
-51.029871
0
LINE
8
BLACK
6
CONTINUOUS
10
78.3768099999999919
20
-49.4525560000000013
11
77.8236059999999981
21
-49.3797250000000005
0
LINE
8
BLACK
6
CONTINUOUS
10
78.3768099999999919
20
-40.9394659999999959
11
78.9347879999999975
21
-40.9394659999999959
0
LINE
8
BLACK
6
CONTINUOUS
10
76.4981300000000033
20
-45.4750000000000014
11
76.8926799999999986
21
-45.080449999999999
0
LINE
8
BLACK
6
CONTINUOUS
10
77.1999119999999976
20
-47.4141089999999963
11
76.7166890000000024
21
-47.1351200000000006
0
LINE
8
BLACK
6
CONTINUOUS
10
80.9732350000000025
20
-51.1874309999999966
11
80.4577309999999954
21
-51.4009599999999978
0
LINE
8
BLACK
6
CONTINUOUS
10
78.3768099999999919
20
-41.497442999999997
11
78.3768099999999919
21
-40.9394659999999959
0
LINE
8
BLACK
6
CONTINUOUS
10
76.7166890000000024
20
-43.8148789999999977
11
77.1999119999999976
21
-43.5358899999999949
0
LINE
8
BLACK
6
CONTINUOUS
10
76.9956779999999981
20
-44.2981020000000001
11
76.7166890000000024
21
-43.8148789999999977
0
LINE
8
BLACK
6
CONTINUOUS
10
81.735445999999996
20
-51.3916649999999962
11
81.2522230000000008
21
-51.670653999999999
0
LINE
8
BLACK
6
CONTINUOUS
10
76.7166890000000024
20
-47.1351200000000006
11
76.9956779999999981
21
-46.6518979999999956
0
LINE
8
BLACK
6
CONTINUOUS
10
76.5530049999999989
20
-44.6377769999999998
11
76.9956779999999981
21
-44.2981020000000001
0
LINE
8
BLACK
6
CONTINUOUS
10
77.5018869999999964
20
-48.1431419999999974
11
76.9863830000000036
21
-47.9296129999999962
0
LINE
8
BLACK
6
CONTINUOUS
10
78.3768099999999919
20
-50.0105329999999952
11
78.3768099999999919
21
-49.4525560000000013
0
LINE
8
BLACK
6
CONTINUOUS
10
82.5709229999999934
20
-44.
11
83.2537650000000014
21
-44.
0
LINE
8
BLACK
6
CONTINUOUS
10
77.8236059999999981
20
-41.5702739999999977
11
78.3768099999999919
21
-41.497442999999997
0
LINE
8
BLACK
6
CONTINUOUS
10
84.0892419999999987
20
-51.3916649999999962
11
83.749566999999999
21
-51.8343389999999999
0
LINE
8
BLACK
6
CONTINUOUS
10
84.572464999999994
20
-51.670653999999999
11
84.0892419999999987
21
-51.3916649999999962
0
LINE
8
BLACK
6
CONTINUOUS
10
84.8514529999999922
20
-51.1874309999999966
11
84.572464999999994
21
-51.670653999999999
0
LINE
8
BLACK
6
CONTINUOUS
10
85.3669569999999993
20
-51.4009599999999978
11
84.8514529999999922
21
-51.1874309999999966
0
LINE
8
BLACK
6
CONTINUOUS
10
85.5804859999999934
20
-50.8854559999999978
11
85.3669569999999993
21
-51.4009599999999978
0
LINE
8
BLACK
6
CONTINUOUS
10
86.119450999999998
20
-51.029871
11
85.5804859999999934
21
-50.8854559999999978
0
LINE
8
BLACK
6
CONTINUOUS
10
86.2638659999999931
20
-50.490907
11
86.119450999999998
21
-51.029871
0
LINE
8
BLACK
6
CONTINUOUS
10
86.8170700000000011
20
-50.5637369999999962
11
86.2638659999999931
21
-50.490907
0
LINE
8
BLACK
6
CONTINUOUS
10
86.8898999999999972
20
-50.0105329999999952
11
86.8170700000000011
21
-50.5637369999999962
0
LINE
8
BLACK
6
CONTINUOUS
10
87.4478780000000029
20
-50.0105329999999952
11
86.8898999999999972
21
-50.0105329999999952
0
LINE
8
BLACK
6
CONTINUOUS
10
88.8383049999999912
20
-47.9296129999999962
11
88.3228009999999983
21
-48.1431419999999974
0
LINE
8
BLACK
6
CONTINUOUS
10
89.1079989999999924
20
-43.8148789999999977
11
88.8290099999999967
21
-44.2981020000000001
0
LINE
8
BLACK
6
CONTINUOUS
10
83.3068939999999998
20
-39.4553359999999955
11
83.749566999999999
21
-39.1156599999999983
0
LINE
8
BLACK
6
CONTINUOUS
10
87.4478780000000029
20
-49.4525560000000013
11
87.4478780000000029
21
-50.0105329999999952
0
LINE
8
BLACK
6
CONTINUOUS
10
88.4672159999999934
20
-48.6821059999999974
11
87.928251000000003
21
-48.8265219999999971
0
LINE
8
BLACK
6
CONTINUOUS
10
89.1079989999999924
20
-47.1351200000000006
11
88.6247759999999971
21
-47.4141089999999963
0
LINE
8
BLACK
6
CONTINUOUS
10
88.8290099999999967
20
-44.2981020000000001
11
89.2716829999999959
21
-44.6377769999999998
0
LINE
8
BLACK
6
CONTINUOUS
10
88.8290099999999967
20
-46.6518979999999956
11
89.1079989999999924
21
-47.1351200000000006
0
LINE
8
BLACK
6
CONTINUOUS
10
81.735445999999996
20
-39.558333999999995
11
82.0751209999999958
21
-39.1156599999999983
0
LINE
8
BLACK
6
CONTINUOUS
10
89.3265579999999915
20
-45.4750000000000014
11
88.9320079999999962
21
-45.8695489999999992
0
LINE
8
BLACK
6
CONTINUOUS
10
88.0010819999999967
20
-49.3797250000000005
11
87.4478780000000029
21
-49.4525560000000013
0
LINE
8
BLACK
6
CONTINUOUS
10
85.5804859999999934
20
-40.0645430000000005
11
86.119450999999998
21
-39.9201279999999983
0
LINE
8
BLACK
6
CONTINUOUS
10
80.2442020000000014
20
-40.0645430000000005
11
80.4577309999999954
21
-39.5490390000000005
0
LINE
8
BLACK
6
CONTINUOUS
10
88.9320079999999962
20
-45.080449999999999
11
89.3265579999999915
21
-45.4750000000000014
0
LINE
8
BLACK
6
CONTINUOUS
10
88.3228009999999983
20
-48.1431419999999974
11
88.4672159999999934
21
-48.6821059999999974
0
LINE
8
BLACK
6
CONTINUOUS
10
83.749566999999999
20
-39.1156599999999983
11
84.0892419999999987
21
-39.558333999999995
0
LINE
8
BLACK
6
CONTINUOUS
10
79.0076179999999937
20
-40.386261999999995
11
79.5608220000000017
21
-40.4590919999999983
0
LINE
8
BLACK
6
CONTINUOUS
10
88.6247759999999971
20
-47.4141089999999963
11
88.8383049999999912
21
-47.9296129999999962
0
LINE
8
BLACK
6
CONTINUOUS
10
93.8123399999999918
20
-55.133578
11
93.4884550000000019
21
-55.4574639999999945
0
LINE
8
BLACK
6
CONTINUOUS
10
80.4577309999999954
20
-39.5490390000000005
11
80.9732350000000025
21
-39.7625680000000017
0
LINE
8
BLACK
6
CONTINUOUS
10
88.9320079999999962
20
-45.8695489999999992
11
89.2716829999999959
21
-46.3122219999999984
0
LINE
8
BLACK
6
CONTINUOUS
10
89.2716829999999959
20
-44.6377769999999998
11
88.9320079999999962
21
-45.080449999999999
0
LINE
8
BLACK
6
CONTINUOUS
10
80.9732350000000025
20
-39.7625680000000017
11
81.2522230000000008
21
-39.2793449999999993
0
LINE
8
BLACK
6
CONTINUOUS
10
86.119450999999998
20
-39.9201279999999983
11
86.2638659999999931
21
-40.4590919999999983
0
LINE
8
BLACK
6
CONTINUOUS
10
87.4478780000000029
20
-40.9394659999999959
11
87.4478780000000029
21
-41.497442999999997
0
LINE
8
BLACK
6
CONTINUOUS
10
88.8383049999999912
20
-43.0203859999999949
11
88.6247759999999971
21
-43.5358899999999949
0
LINE
8
BLACK
6
CONTINUOUS
10
87.928251000000003
20
-42.1234779999999986
11
88.4672159999999934
21
-42.2678930000000008
0
LINE
8
BLACK
6
CONTINUOUS
10
88.4672159999999934
20
-42.2678930000000008
11
88.3228009999999983
21
-42.8068579999999983
0
LINE
8
BLACK
6
CONTINUOUS
10
88.3228009999999983
20
-42.8068579999999983
11
88.8383049999999912
21
-43.0203859999999949
0
LINE
8
BLACK
6
CONTINUOUS
10
86.8170700000000011
20
-40.386261999999995
11
86.8898999999999972
21
-40.9394659999999959
0
LINE
8
BLACK
6
CONTINUOUS
10
82.9123439999999903
20
-39.0607860000000002
11
83.3068939999999998
21
-39.4553359999999955
0
LINE
8
BLACK
6
CONTINUOUS
10
79.5608220000000017
20
-40.4590919999999983
11
79.7052369999999968
21
-39.9201279999999983
0
LINE
8
BLACK
6
CONTINUOUS
10
86.8898999999999972
20
-40.9394659999999959
11
87.4478780000000029
21
-40.9394659999999959
0
LINE
8
BLACK
6
CONTINUOUS
10
84.8514529999999922
20
-39.7625680000000017
11
85.3669569999999993
21
-39.5490390000000005
0
LINE
8
BLACK
6
CONTINUOUS
10
78.9347879999999975
20
-40.9394659999999959
11
79.0076179999999937
21
-40.386261999999995
0
LINE
8
BLACK
6
CONTINUOUS
10
85.3669569999999993
20
-39.5490390000000005
11
85.5804859999999934
21
-40.0645430000000005
0
LINE
8
BLACK
6
CONTINUOUS
10
84.572464999999994
20
-39.2793449999999993
11
84.8514529999999922
21
-39.7625680000000017
0
LINE
8
BLACK
6
CONTINUOUS
10
82.517793999999995
20
-39.4553359999999955
11
82.9123439999999903
21
-39.0607860000000002
0
LINE
8
BLACK
6
CONTINUOUS
10
79.7052369999999968
20
-39.9201279999999983
11
80.2442020000000014
21
-40.0645430000000005
0
LINE
8
BLACK
6
CONTINUOUS
10
89.2716829999999959
20
-46.3122219999999984
11
88.8290099999999967
21
-46.6518979999999956
0
LINE
8
BLACK
6
CONTINUOUS
10
86.2638659999999931
20
-40.4590919999999983
11
86.8170700000000011
21
-40.386261999999995
0
LINE
8
BLACK
6
CONTINUOUS
10
88.6247759999999971
20
-43.5358899999999949
11
89.1079989999999924
21
-43.8148789999999977
0
LINE
8
BLACK
6
CONTINUOUS
10
88.0010819999999967
20
-41.5702739999999977
11
87.928251000000003
21
-42.1234779999999986
0
LINE
8
BLACK
6
CONTINUOUS
10
84.0892419999999987
20
-39.558333999999995
11
84.572464999999994
21
-39.2793449999999993
0
LINE
8
BLACK
6
CONTINUOUS
10
81.2522230000000008
20
-39.2793449999999993
11
81.735445999999996
21
-39.558333999999995
0
LINE
8
BLACK
6
CONTINUOUS
10
82.0751209999999958
20
-39.1156599999999983
11
82.517793999999995
21
-39.4553359999999955
0
LINE
8
BLACK
6
CONTINUOUS
10
87.4478780000000029
20
-41.497442999999997
11
88.0010819999999967
21
-41.5702739999999977
0
LINE
8
BLACK
6
CONTINUOUS
10
87.928251000000003
20
-48.8265219999999971
11
88.0010819999999967
21
-49.3797250000000005
0
LINE
8
BLACK
6
CONTINUOUS
10
82.9123439999999903
20
-51.889212999999998
11
82.517793999999995
21
-51.4946640000000002
0
LINE
8
BLACK
6
CONTINUOUS
10
83.3068939999999998
20
-51.4946640000000002
11
82.9123439999999903
21
-51.889212999999998
0
LINE
8
BLACK
6
CONTINUOUS
10
83.749566999999999
20
-51.8343389999999999
11
83.3068939999999998
21
-51.4946640000000002
0
LINE
8
BLACK
6
CONTINUOUS
10
80.1123439999999931
20
-32.4750000000000014
11
79.9186049999999994
21
-32.2812610000000006
0
ARC
8
BLACK
10
82.9123439999999903
20
-32.4749860000000012
40
3.0000011104406274
50
-86.29753030
51
-3.70294740
0
LINE
8
BLACK
6
CONTINUOUS
10
85.9060819999999978
20
-32.6687370000000001
11
85.7123440000000016
21
-32.4750000000000014
0
LINE
8
BLACK
6
CONTINUOUS
10
88.456286999999989
20
-39.1239449999999991
11
88.154057999999992
21
-38.7300729999999973
0
LINE
8
BLACK
6
CONTINUOUS
10
88.5396609999999953
20
-41.6590149999999966
11
88.7296499999999924
21
-41.2003399999999971
0
LINE
8
BLACK
6
CONTINUOUS
10
91.6283249999999896
20
-44.747678999999998
11
91.438334999999995
21
-44.2890039999999985
0
LINE
8
BLACK
6
CONTINUOUS
10
94.1633939999999967
20
-44.8310519999999997
11
93.8123399999999918
21
-45.1821059999999974
0
LINE
8
BLACK
6
CONTINUOUS
10
93.8123399999999918
20
-45.1821059999999974
11
93.4612860000000012
21
-44.8310519999999997
0
LINE
8
BLACK
6
CONTINUOUS
10
88.7296499999999924
20
-41.2003399999999971
11
88.2996979999999922
21
-40.9521079999999955
0
LINE
8
BLACK
6
CONTINUOUS
10
92.7651839999999908
20
-44.7394089999999949
11
92.3352319999999906
21
-44.987642000000001
0
LINE
8
BLACK
6
CONTINUOUS
10
96.7943879999999979
20
-43.9379500000000007
11
96.665892999999997
21
-44.4174989999999994
0
LINE
8
BLACK
6
CONTINUOUS
10
82.7186069999999916
20
-35.4687349999999952
11
82.9123439999999903
21
-35.2749999999999986
0
LINE
8
BLACK
6
CONTINUOUS
10
89.7768059999999934
20
-43.5105339999999998
11
89.7768059999999934
21
-43.0140679999999946
0
LINE
8
BLACK
6
CONTINUOUS
10
96.1863439999999912
20
-44.2890039999999985
11
95.9963549999999941
21
-44.747678999999998
0
LINE
8
BLACK
6
CONTINUOUS
10
90.3380729999999943
20
-44.002752000000001
11
90.2732719999999915
21
-43.5105339999999998
0
LINE
8
BLACK
6
CONTINUOUS
10
89.7768059999999934
20
-35.4394659999999959
11
90.2732719999999915
21
-35.4394659999999959
0
LINE
8
BLACK
6
CONTINUOUS
10
88.2996979999999922
20
-40.9521079999999955
11
88.5479309999999913
21
-40.5221559999999954
0
LINE
8
BLACK
6
CONTINUOUS
10
89.2845879999999994
20
-42.9492660000000015
11
89.3493890000000022
21
-42.4570480000000003
0
LINE
8
BLACK
6
CONTINUOUS
10
90.9587859999999893
20
-44.4174989999999994
11
90.830292
21
-43.9379500000000007
0
LINE
8
BLACK
6
CONTINUOUS
10
95.289447999999993
20
-44.987642000000001
11
94.8594959999999929
21
-44.7394089999999949
0
LINE
8
BLACK
6
CONTINUOUS
10
89.3493890000000022
20
-36.4929519999999954
11
89.2845879999999994
21
-36.0007329999999968
0
LINE
8
BLACK
6
CONTINUOUS
10
88.2996979999999922
20
-37.9978920000000002
11
88.7296499999999924
21
-37.7496590000000012
0
LINE
8
BLACK
6
CONTINUOUS
10
88.154057999999992
20
-38.7300729999999973
11
88.5479309999999913
21
-38.4278440000000003
0
LINE
8
BLACK
6
CONTINUOUS
10
88.9983349999999973
20
-37.1009949999999975
11
88.8698399999999964
21
-36.6214459999999988
0
LINE
8
BLACK
6
CONTINUOUS
10
88.8698399999999964
20
-42.3285529999999994
11
88.9983349999999973
21
-41.8490040000000008
0
LINE
8
BLACK
6
CONTINUOUS
10
89.2845879999999994
20
-36.0007329999999968
11
89.7768059999999934
21
-35.9359309999999965
0
LINE
8
BLACK
6
CONTINUOUS
10
97.3514079999999922
20
-43.5105339999999998
11
97.2866059999999919
21
-44.002752000000001
0
LINE
8
BLACK
6
CONTINUOUS
10
88.8698399999999964
20
-36.6214459999999988
11
89.3493890000000022
21
-36.4929519999999954
0
LINE
8
BLACK
6
CONTINUOUS
10
88.5479309999999913
20
-40.5221559999999954
11
88.154057999999992
21
-40.2199269999999984
0
LINE
8
BLACK
6
CONTINUOUS
10
94.557266999999996
20
-45.1332809999999967
11
94.1633939999999967
21
-44.8310519999999997
0
LINE
8
BLACK
6
CONTINUOUS
10
90.2732719999999915
20
-43.5105339999999998
11
89.7768059999999934
21
-43.5105339999999998
0
LINE
8
BLACK
6
CONTINUOUS
10
88.9983349999999973
20
-41.8490040000000008
11
88.5396609999999953
21
-41.6590149999999966
0
LINE
8
BLACK
6
CONTINUOUS
10
88.456286999999989
20
-39.8260539999999992
11
88.1052329999999984
21
-39.4750000000000014
0
LINE
8
BLACK
6
CONTINUOUS
10
88.7296499999999924
20
-37.7496590000000012
11
88.5396609999999953
21
-37.2909840000000017
0
LINE
8
BLACK
6
CONTINUOUS
10
97.2866059999999919
20
-44.002752000000001
11
96.7943879999999979
21
-43.9379500000000007
0
LINE
8
BLACK
6
CONTINUOUS
10
79.9185969999999912
20
-32.6687450000000013
11
80.1123439999999931
21
-32.4750000000000014
0
ARC
8
BLACK
10
82.9126440000000002
20
-32.4748859999999979
40
2.9996814316518678
50
3.70054021
51
29.45112080
0
LINE
8
BLACK
6
CONTINUOUS
10
95.9963549999999941
20
-44.747678999999998
11
95.5376809999999921
21
-44.5576900000000009
0
ARC
8
BLACK
10
82.9123439999999903
20
-32.4749860000000012
40
3.0000111833408223
50
-176.29691123
51
-93.70266701
0
LINE
8
BLACK
6
CONTINUOUS
10
95.5376809999999921
20
-44.5576900000000009
11
95.289447999999993
21
-44.987642000000001
0
LINE
8
BLACK
6
CONTINUOUS
10
85.7123440000000016
20
-32.4750000000000014
11
85.9060619999999915
21
-32.2812819999999974
0
LINE
8
BLACK
6
CONTINUOUS
10
89.3493890000000022
20
-42.4570480000000003
11
88.8698399999999964
21
-42.3285529999999994
0
LINE
8
BLACK
6
CONTINUOUS
10
90.830292
20
-43.9379500000000007
11
90.3380729999999943
21
-44.002752000000001
0
ARC
8
BLACK
10
82.9121439999999978
20
-32.4749860000000012
40
2.9998008467473301
50
150.54810818
51
176.29730269
0
LINE
8
BLACK
6
CONTINUOUS
10
89.7768059999999934
20
-35.9359309999999965
11
89.7768059999999934
21
-35.4394659999999959
0
LINE
8
BLACK
6
CONTINUOUS
10
88.5396609999999953
20
-37.2909840000000017
11
88.9983349999999973
21
-37.1009949999999975
0
LINE
8
BLACK
6
CONTINUOUS
10
92.0869989999999916
20
-44.5576900000000009
11
91.6283249999999896
21
-44.747678999999998
0
LINE
8
BLACK
6
CONTINUOUS
10
93.4612860000000012
20
-44.8310519999999997
11
93.0674130000000019
21
-45.1332809999999967
0
LINE
8
BLACK
6
CONTINUOUS
10
91.438334999999995
20
-44.2890039999999985
11
90.9587859999999893
21
-44.4174989999999994
0
LINE
8
BLACK
6
CONTINUOUS
10
92.3352319999999906
20
-44.987642000000001
11
92.0869989999999916
21
-44.5576900000000009
0
LINE
8
BLACK
6
CONTINUOUS
10
96.665892999999997
20
-44.4174989999999994
11
96.1863439999999912
21
-44.2890039999999985
0
LINE
8
BLACK
6
CONTINUOUS
10
93.0674130000000019
20
-45.1332809999999967
11
92.7651839999999908
21
-44.7394089999999949
0
LINE
8
BLACK
6
CONTINUOUS
10
88.5479309999999913
20
-38.4278440000000003
11
88.2996979999999922
21
-37.9978920000000002
0
LINE
8
BLACK
6
CONTINUOUS
10
94.8594959999999929
20
-44.7394089999999949
11
94.557266999999996
21
-45.1332809999999967
0
LINE
8
BLACK
6
CONTINUOUS
10
89.7768059999999934
20
-43.0140679999999946
11
89.2845879999999994
21
-42.9492660000000015
0
LINE
8
BLACK
6
CONTINUOUS
10
88.154057999999992
20
-40.2199269999999984
11
88.456286999999989
21
-39.8260539999999992
0
LINE
8
BLACK
6
CONTINUOUS
10
82.9123439999999903
20
-35.2749999999999986
11
83.1060700000000026
21
-35.4687249999999992
0
LINE
8
BLACK
6
CONTINUOUS
10
88.1052329999999984
20
-39.4750000000000014
11
88.456286999999989
21
-39.1239449999999991
0
LINE
8
BLACK
6
CONTINUOUS
10
98.7548389999999898
20
-42.3285529999999994
11
98.2752899999999983
21
-42.4570480000000003
0
LINE
8
BLACK
6
CONTINUOUS
10
99.0850190000000026
20
-41.6590149999999966
11
98.6263450000000006
21
-41.8490040000000008
0
LINE
8
BLACK
6
CONTINUOUS
10
99.0767489999999924
20
-40.5221559999999954
11
99.3249819999999914
21
-40.9521079999999955
0
LINE
8
BLACK
6
CONTINUOUS
10
99.4706219999999917
20
-40.2199269999999984
11
99.0767489999999924
21
-40.5221559999999954
0
LINE
8
BLACK
6
CONTINUOUS
10
99.4706219999999917
20
-38.7300729999999973
11
99.1683919999999972
21
-39.1239449999999991
0
LINE
8
BLACK
6
CONTINUOUS
10
99.1683919999999972
20
-39.8260539999999992
11
99.4706219999999917
21
-40.2199269999999984
0
LINE
8
BLACK
6
CONTINUOUS
10
99.1683919999999972
20
-39.1239449999999991
11
99.5194469999999995
21
-39.4750000000000014
0
LINE
8
BLACK
6
CONTINUOUS
10
99.3249819999999914
20
-37.9978920000000002
11
99.0767489999999924
21
-38.4278440000000003
0
LINE
8
BLACK
6
CONTINUOUS
10
96.7943879999999979
20
-35.0120489999999975
11
97.2866059999999919
21
-34.9472469999999973
0
LINE
8
BLACK
6
CONTINUOUS
10
91.1537610000000029
20
-39.4750000000000014
11
90.8299279999999953
21
-39.7988329999999948
0
LINE
8
BLACK
6
CONTINUOUS
10
94.557266999999996
20
-33.8167180000000016
11
94.8594959999999929
21
-34.2105910000000009
0
LINE
8
BLACK
6
CONTINUOUS
10
90.8298759999999987
20
-39.1511139999999997
11
91.1537610000000029
21
-39.4750000000000014
0
LINE
8
BLACK
6
CONTINUOUS
10
94.1633939999999967
20
-34.1189469999999986
11
94.557266999999996
21
-33.8167180000000016
0
LINE
8
BLACK
6
CONTINUOUS
10
95.289447999999993
20
-33.9623580000000018
11
95.5376809999999921
21
-34.3923100000000019
0
LINE
8
BLACK
6
CONTINUOUS
10
96.665892999999997
20
-34.5324999999999989
11
96.7943879999999979
21
-35.0120489999999975
0
LINE
8
BLACK
6
CONTINUOUS
10
98.8950299999999913
20
-37.7496590000000012
11
99.3249819999999914
21
-37.9978920000000002
0
LINE
8
BLACK
6
CONTINUOUS
10
99.0850190000000026
20
-37.2909840000000017
11
98.8950299999999913
21
-37.7496590000000012
0
LINE
8
BLACK
6
CONTINUOUS
10
98.3400919999999985
20
-36.0007329999999968
11
98.2752899999999983
21
-36.4929519999999954
0
LINE
8
BLACK
6
CONTINUOUS
10
97.3514079999999922
20
-35.4394659999999959
11
97.8478739999999902
21
-35.4394659999999959
0
LINE
8
BLACK
6
CONTINUOUS
10
91.438334999999995
20
-34.6609949999999998
11
91.6283249999999896
21
-34.2023209999999978
0
LINE
8
BLACK
6
CONTINUOUS
10
90.3380729999999943
20
-34.9472469999999973
11
90.830292
21
-35.0120489999999975
0
LINE
8
BLACK
6
CONTINUOUS
10
96.1863439999999912
20
-34.6609949999999998
11
96.665892999999997
21
-34.5324999999999989
0
LINE
8
BLACK
6
CONTINUOUS
10
90.830292
20
-35.0120489999999975
11
90.9587859999999893
21
-34.5324999999999989
0
LINE
8
BLACK
6
CONTINUOUS
10
94.8594959999999929
20
-34.2105910000000009
11
95.289447999999993
21
-33.9623580000000018
0
LINE
8
BLACK
6
CONTINUOUS
10
93.470918999999995
20
-38.
11
91.2000000000000028
21
-38.
0
LINE
8
BLACK
6
CONTINUOUS
10
94.1362179999999995
20
-42.457456999999998
11
93.8123399999999918
21
-42.133578
0
LINE
8
BLACK
6
CONTINUOUS
10
96.7948169999999948
20
-39.1510999999999996
11
96.470918999999995
21
-39.4750000000000014
0
LINE
8
BLACK
6
CONTINUOUS
10
99.3249819999999914
20
-40.9521079999999955
11
98.8950299999999913
21
-41.2003399999999971
0
ARC
8
BLACK
10
93.8123739999999913
20
-39.4750279999999947
40
2.9999609078748004
50
-83.80287601
51
-6.19735183
0
LINE
8
BLACK
6
CONTINUOUS
10
99.5194469999999995
20
-39.4750000000000014
11
99.1683919999999972
21
-39.8260539999999992
0
LINE
8
BLACK
6
CONTINUOUS
10
95.9963549999999941
20
-34.2023209999999978
11
96.1863439999999912
21
-34.6609949999999998
0
LINE
8
BLACK
6
CONTINUOUS
10
95.5376809999999921
20
-34.3923100000000019
11
95.9963549999999941
21
-34.2023209999999978
0
LINE
8
BLACK
6
CONTINUOUS
10
93.470918999999995
20
-38.
11
94.1537609999999887
21
-38.
0
ARC
8
BLACK
10
93.8123739999999913
20
-39.4750279999999947
40
2.9999837473959752
50
6.19869004
51
29.45097510
0
LINE
8
BLACK
6
CONTINUOUS
10
93.0674130000000019
20
-33.8167180000000016
11
93.4612860000000012
21
-34.1189469999999986
0
LINE
8
BLACK
6
CONTINUOUS
10
94.1537609999999887
20
-38.
11
96.4246899999999982
21
-38.
0
ARC
8
BLACK
10
93.8124739999999946
20
-39.4750279999999947
40
3.0001351817876474
50
150.55050852
51
173.80189539
0
LINE
8
BLACK
6
CONTINUOUS
10
97.8478739999999902
20
-35.9359309999999965
11
98.3400919999999985
21
-36.0007329999999968
0
LINE
8
BLACK
6
CONTINUOUS
10
97.8478739999999902
20
-43.5105339999999998
11
97.3514079999999922
21
-43.5105339999999998
0
LINE
8
BLACK
6
CONTINUOUS
10
98.6263450000000006
20
-41.8490040000000008
11
98.7548389999999898
21
-42.3285529999999994
0
LINE
8
BLACK
6
CONTINUOUS
10
98.8950299999999913
20
-41.2003399999999971
11
99.0850190000000026
21
-41.6590149999999966
0
LINE
8
BLACK
6
CONTINUOUS
10
98.7548389999999898
20
-36.6214459999999988
11
98.6263450000000006
21
-37.1009949999999975
0
LINE
8
BLACK
6
CONTINUOUS
10
97.8478739999999902
20
-35.4394659999999959
11
97.8478739999999902
21
-35.9359309999999965
0
LINE
8
BLACK
6
CONTINUOUS
10
90.9587859999999893
20
-34.5324999999999989
11
91.438334999999995
21
-34.6609949999999998
0
LINE
8
BLACK
6
CONTINUOUS
10
97.8478739999999902
20
-43.0140679999999946
11
97.8478739999999902
21
-43.5105339999999998
0
LINE
8
BLACK
6
CONTINUOUS
10
93.4612860000000012
20
-34.1189469999999986
11
93.8123399999999918
21
-33.7678930000000008
0
LINE
8
BLACK
6
CONTINUOUS
10
91.6283249999999896
20
-34.2023209999999978
11
92.0869989999999916
21
-34.3923100000000019
0
LINE
8
BLACK
6
CONTINUOUS
10
98.3400919999999985
20
-42.9492660000000015
11
97.8478739999999902
21
-43.0140679999999946
0
LINE
8
BLACK
6
CONTINUOUS
10
92.7651839999999908
20
-34.2105910000000009
11
93.0674130000000019
21
-33.8167180000000016
0
LINE
8
BLACK
6
CONTINUOUS
10
92.0869989999999916
20
-34.3923100000000019
11
92.3352319999999906
21
-33.9623580000000018
0
LINE
8
BLACK
6
CONTINUOUS
10
90.2732719999999915
20
-35.4394659999999959
11
90.3380729999999943
21
-34.9472469999999973
0
ARC
8
BLACK
10
93.8123739999999913
20
-39.4750279999999947
40
2.9999746686692204
50
-173.80365156
51
-96.19853359
0
LINE
8
BLACK
6
CONTINUOUS
10
98.2752899999999983
20
-42.4570480000000003
11
98.3400919999999985
21
-42.9492660000000015
0
LINE
8
BLACK
6
CONTINUOUS
10
98.2752899999999983
20
-36.4929519999999954
11
98.7548389999999898
21
-36.6214459999999988
0
LINE
8
BLACK
6
CONTINUOUS
10
93.8123399999999918
20
-33.7678930000000008
11
94.1633939999999967
21
-34.1189469999999986
0
LINE
8
BLACK
6
CONTINUOUS
10
97.2866059999999919
20
-34.9472469999999973
11
97.3514079999999922
21
-35.4394659999999959
0
LINE
8
BLACK
6
CONTINUOUS
10
92.3352319999999906
20
-33.9623580000000018
11
92.7651839999999908
21
-34.2105910000000009
0
LINE
8
BLACK
6
CONTINUOUS
10
96.470918999999995
20
-39.4750000000000014
11
96.7948030000000017
21
-39.798884000000001
0
LINE
8
BLACK
6
CONTINUOUS
10
99.0767489999999924
20
-38.4278440000000003
11
99.4706219999999917
21
-38.7300729999999973
0
LINE
8
BLACK
6
CONTINUOUS
10
98.6263450000000006
20
-37.1009949999999975
11
99.0850190000000026
21
-37.2909840000000017
0
LINE
8
BLACK
6
CONTINUOUS
10
77.5018869999999964
20
-29.8068579999999983
11
77.3574720000000013
21
-29.2678929999999973
0
LINE
8
BLACK
6
CONTINUOUS
10
77.8964369999999917
20
-35.8265219999999971
11
77.3574720000000013
21
-35.6821059999999974
0
LINE
8
BLACK
6
CONTINUOUS
10
79.7052369999999968
20
-38.029871
11
79.5608220000000017
21
-37.490907
0
LINE
8
BLACK
6
CONTINUOUS
10
77.8236059999999981
20
-36.3797250000000005
11
77.8964369999999917
21
-35.8265219999999971
0
LINE
8
BLACK
6
CONTINUOUS
10
79.5608220000000017
20
-37.490907
11
79.0076179999999937
21
-37.5637369999999962
0
LINE
8
BLACK
6
CONTINUOUS
10
77.8964369999999917
20
-29.1234779999999986
11
77.8236059999999981
21
-28.5702739999999977
0
LINE
8
BLACK
6
CONTINUOUS
10
82.5709229999999934
20
-31.
11
80.2999999999999972
21
-31.
0
LINE
8
BLACK
6
CONTINUOUS
10
77.1999119999999976
20
-30.5358899999999984
11
76.9863830000000036
21
-30.0203859999999985
0
LINE
8
BLACK
6
CONTINUOUS
10
77.3574720000000013
20
-29.2678929999999973
11
77.8964369999999917
21
-29.1234779999999986
0
LINE
8
BLACK
6
CONTINUOUS
10
79.0076179999999937
20
-37.5637369999999962
11
78.9347879999999975
21
-37.0105329999999952
0
LINE
8
BLACK
6
CONTINUOUS
10
82.517793999999995
20
-38.4946640000000002
11
82.0751209999999958
21
-38.8343389999999999
0
LINE
8
BLACK
6
CONTINUOUS
10
82.0751209999999958
20
-38.8343389999999999
11
81.735445999999996
21
-38.3916649999999962
0
LINE
8
BLACK
6
CONTINUOUS
10
81.2522230000000008
20
-38.670653999999999
11
80.9732350000000025
21
-38.1874309999999966
0
LINE
8
BLACK
6
CONTINUOUS
10
76.9863830000000036
20
-30.0203859999999985
11
77.5018869999999964
21
-29.8068579999999983
0
LINE
8
BLACK
6
CONTINUOUS
10
76.8926799999999986
20
-32.8695489999999992
11
76.4981300000000033
21
-32.4750000000000014
0
LINE
8
BLACK
6
CONTINUOUS
10
76.9863830000000036
20
-34.9296129999999962
11
77.1999119999999976
21
-34.4141089999999963
0
LINE
8
BLACK
6
CONTINUOUS
10
77.3574720000000013
20
-35.6821059999999974
11
77.5018869999999964
21
-35.1431419999999974
0
LINE
8
BLACK
6
CONTINUOUS
10
80.4577309999999954
20
-38.4009599999999978
11
80.2442020000000014
21
-37.8854559999999978
0
LINE
8
BLACK
6
CONTINUOUS
10
76.9956779999999981
20
-33.6518979999999956
11
76.5530049999999989
21
-33.3122219999999984
0
LINE
8
BLACK
6
CONTINUOUS
10
83.2537650000000014
20
-31.
11
85.5246929999999992
21
-31.
0
LINE
8
BLACK
6
CONTINUOUS
10
76.8926799999999986
20
-32.080449999999999
11
76.5530049999999989
21
-31.6377769999999998
0
LINE
8
BLACK
6
CONTINUOUS
10
76.5530049999999989
20
-33.3122219999999984
11
76.8926799999999986
21
-32.8695489999999992
0
LINE
8
BLACK
6
CONTINUOUS
10
78.9347879999999975
20
-37.0105329999999952
11
78.3768099999999919
21
-37.0105329999999952
0
LINE
8
BLACK
6
CONTINUOUS
10
80.2442020000000014
20
-37.8854559999999978
11
79.7052369999999968
21
-38.029871
0
LINE
8
BLACK
6
CONTINUOUS
10
78.3768099999999919
20
-36.4525560000000013
11
77.8236059999999981
21
-36.3797250000000005
0
LINE
8
BLACK
6
CONTINUOUS
10
78.3768099999999919
20
-27.9394659999999995
11
78.9347879999999975
21
-27.9394659999999995
0
LINE
8
BLACK
6
CONTINUOUS
10
76.4981300000000033
20
-32.4750000000000014
11
76.8926799999999986
21
-32.080449999999999
0
LINE
8
BLACK
6
CONTINUOUS
10
77.1999119999999976
20
-34.4141089999999963
11
76.7166890000000024
21
-34.1351200000000006
0
LINE
8
BLACK
6
CONTINUOUS
10
80.9732350000000025
20
-38.1874309999999966
11
80.4577309999999954
21
-38.4009599999999978
0
LINE
8
BLACK
6
CONTINUOUS
10
78.3768099999999919
20
-28.497442999999997
11
78.3768099999999919
21
-27.9394659999999995
0
LINE
8
BLACK
6
CONTINUOUS
10
76.7166890000000024
20
-30.8148789999999977
11
77.1999119999999976
21
-30.5358899999999984
0
LINE
8
BLACK
6
CONTINUOUS
10
76.9956779999999981
20
-31.2981020000000001
11
76.7166890000000024
21
-30.8148789999999977
0
LINE
8
BLACK
6
CONTINUOUS
10
81.735445999999996
20
-38.3916649999999962
11
81.2522230000000008
21
-38.670653999999999
0
LINE
8
BLACK
6
CONTINUOUS
10
76.7166890000000024
20
-34.1351200000000006
11
76.9956779999999981
21
-33.6518979999999956
0
LINE
8
BLACK
6
CONTINUOUS
10
76.5530049999999989
20
-31.6377769999999998
11
76.9956779999999981
21
-31.2981020000000001
0
LINE
8
BLACK
6
CONTINUOUS
10
77.5018869999999964
20
-35.1431419999999974
11
76.9863830000000036
21
-34.9296129999999962
0
LINE
8
BLACK
6
CONTINUOUS
10
78.3768099999999919
20
-37.0105329999999952
11
78.3768099999999919
21
-36.4525560000000013
0
LINE
8
BLACK
6
CONTINUOUS
10
82.5709229999999934
20
-31.
11
83.2537650000000014
21
-31.
0
LINE
8
BLACK
6
CONTINUOUS
10
77.8236059999999981
20
-28.5702739999999977
11
78.3768099999999919
21
-28.497442999999997
0
LINE
8
BLACK
6
CONTINUOUS
10
84.0892419999999987
20
-38.3916649999999962
11
83.749566999999999
21
-38.8343389999999999
0
LINE
8
BLACK
6
CONTINUOUS
10
84.572464999999994
20
-38.670653999999999
11
84.0892419999999987
21
-38.3916649999999962
0
LINE
8
BLACK
6
CONTINUOUS
10
84.8514529999999922
20
-38.1874309999999966
11
84.572464999999994
21
-38.670653999999999
0
LINE
8
BLACK
6
CONTINUOUS
10
85.3669569999999993
20
-38.4009599999999978
11
84.8514529999999922
21
-38.1874309999999966
0
LINE
8
BLACK
6
CONTINUOUS
10
85.5804859999999934
20
-37.8854559999999978
11
85.3669569999999993
21
-38.4009599999999978
0
LINE
8
BLACK
6
CONTINUOUS
10
86.119450999999998
20
-38.029871
11
85.5804859999999934
21
-37.8854559999999978
0
LINE
8
BLACK
6
CONTINUOUS
10
86.2638659999999931
20
-37.490907
11
86.119450999999998
21
-38.029871
0
LINE
8
BLACK
6
CONTINUOUS
10
86.8170700000000011
20
-37.5637369999999962
11
86.2638659999999931
21
-37.490907
0
LINE
8
BLACK
6
CONTINUOUS
10
86.8898999999999972
20
-37.0105329999999952
11
86.8170700000000011
21
-37.5637369999999962
0
LINE
8
BLACK
6
CONTINUOUS
10
87.4478780000000029
20
-37.0105329999999952
11
86.8898999999999972
21
-37.0105329999999952
0
LINE
8
BLACK
6
CONTINUOUS
10
88.8383049999999912
20
-34.9296129999999962
11
88.3228009999999983
21
-35.1431419999999974
0
LINE
8
BLACK
6
CONTINUOUS
10
89.1079989999999924
20
-30.8148789999999977
11
88.8290099999999967
21
-31.2981020000000001
0
LINE
8
BLACK
6
CONTINUOUS
10
83.3068939999999998
20
-26.4553359999999991
11
83.749566999999999
21
-26.1156599999999983
0
LINE
8
BLACK
6
CONTINUOUS
10
87.4478780000000029
20
-36.4525560000000013
11
87.4478780000000029
21
-37.0105329999999952
0
LINE
8
BLACK
6
CONTINUOUS
10
88.4672159999999934
20
-35.6821059999999974
11
87.928251000000003
21
-35.8265219999999971
0
LINE
8
BLACK
6
CONTINUOUS
10
89.1079989999999924
20
-34.1351200000000006
11
88.6247759999999971
21
-34.4141089999999963
0
LINE
8
BLACK
6
CONTINUOUS
10
88.8290099999999967
20
-31.2981020000000001
11
89.2716829999999959
21
-31.6377769999999998
0
LINE
8
BLACK
6
CONTINUOUS
10
88.8290099999999967
20
-33.6518979999999956
11
89.1079989999999924
21
-34.1351200000000006
0
LINE
8
BLACK
6
CONTINUOUS
10
81.735445999999996
20
-26.5583339999999986
11
82.0751209999999958
21
-26.1156599999999983
0
LINE
8
BLACK
6
CONTINUOUS
10
89.3265579999999915
20
-32.4750000000000014
11
88.9320079999999962
21
-32.8695489999999992
0
LINE
8
BLACK
6
CONTINUOUS
10
88.0010819999999967
20
-36.3797250000000005
11
87.4478780000000029
21
-36.4525560000000013
0
LINE
8
BLACK
6
CONTINUOUS
10
85.5804859999999934
20
-27.0645430000000005
11
86.119450999999998
21
-26.9201279999999983
0
LINE
8
BLACK
6
CONTINUOUS
10
80.2442020000000014
20
-27.0645430000000005
11
80.4577309999999954
21
-26.5490390000000005
0
LINE
8
BLACK
6
CONTINUOUS
10
88.9320079999999962
20
-32.080449999999999
11
89.3265579999999915
21
-32.4750000000000014
0
LINE
8
BLACK
6
CONTINUOUS
10
88.3228009999999983
20
-35.1431419999999974
11
88.4672159999999934
21
-35.6821059999999974
0
LINE
8
BLACK
6
CONTINUOUS
10
83.749566999999999
20
-26.1156599999999983
11
84.0892419999999987
21
-26.5583339999999986
0
LINE
8
BLACK
6
CONTINUOUS
10
79.0076179999999937
20
-27.3862619999999986
11
79.5608220000000017
21
-27.4590919999999983
0
LINE
8
BLACK
6
CONTINUOUS
10
88.6247759999999971
20
-34.4141089999999963
11
88.8383049999999912
21
-34.9296129999999962
0
LINE
8
BLACK
6
CONTINUOUS
10
93.8123399999999918
20
-42.133578
11
93.4884550000000019
21
-42.4574639999999945
0
LINE
8
BLACK
6
CONTINUOUS
10
80.4577309999999954
20
-26.5490390000000005
11
80.9732350000000025
21
-26.7625679999999981
0
LINE
8
BLACK
6
CONTINUOUS
10
88.9320079999999962
20
-32.8695489999999992
11
89.2716829999999959
21
-33.3122219999999984
0
LINE
8
BLACK
6
CONTINUOUS
10
89.2716829999999959
20
-31.6377769999999998
11
88.9320079999999962
21
-32.080449999999999
0
LINE
8
BLACK
6
CONTINUOUS
10
80.9732350000000025
20
-26.7625679999999981
11
81.2522230000000008
21
-26.2793449999999993
0
LINE
8
BLACK
6
CONTINUOUS
10
86.119450999999998
20
-26.9201279999999983
11
86.2638659999999931
21
-27.4590919999999983
0
LINE
8
BLACK
6
CONTINUOUS
10
87.4478780000000029
20
-27.9394659999999995
11
87.4478780000000029
21
-28.497442999999997
0
LINE
8
BLACK
6
CONTINUOUS
10
88.8383049999999912
20
-30.0203859999999985
11
88.6247759999999971
21
-30.5358899999999984
0
LINE
8
BLACK
6
CONTINUOUS
10
87.928251000000003
20
-29.1234779999999986
11
88.4672159999999934
21
-29.2678929999999973
0
LINE
8
BLACK
6
CONTINUOUS
10
88.4672159999999934
20
-29.2678929999999973
11
88.3228009999999983
21
-29.8068579999999983
0
LINE
8
BLACK
6
CONTINUOUS
10
88.3228009999999983
20
-29.8068579999999983
11
88.8383049999999912
21
-30.0203859999999985
0
LINE
8
BLACK
6
CONTINUOUS
10
86.8170700000000011
20
-27.3862619999999986
11
86.8898999999999972
21
-27.9394659999999995
0
LINE
8
BLACK
6
CONTINUOUS
10
82.9123439999999903
20
-26.0607860000000002
11
83.3068939999999998
21
-26.4553359999999991
0
LINE
8
BLACK
6
CONTINUOUS
10
79.5608220000000017
20
-27.4590919999999983
11
79.7052369999999968
21
-26.9201279999999983
0
LINE
8
BLACK
6
CONTINUOUS
10
86.8898999999999972
20
-27.9394659999999995
11
87.4478780000000029
21
-27.9394659999999995
0
LINE
8
BLACK
6
CONTINUOUS
10
84.8514529999999922
20
-26.7625679999999981
11
85.3669569999999993
21
-26.5490390000000005
0
LINE
8
BLACK
6
CONTINUOUS
10
78.9347879999999975
20
-27.9394659999999995
11
79.0076179999999937
21
-27.3862619999999986
0
LINE
8
BLACK
6
CONTINUOUS
10
85.3669569999999993
20
-26.5490390000000005
11
85.5804859999999934
21
-27.0645430000000005
0
LINE
8
BLACK
6
CONTINUOUS
10
84.572464999999994
20
-26.2793449999999993
11
84.8514529999999922
21
-26.7625679999999981
0
LINE
8
BLACK
6
CONTINUOUS
10
82.517793999999995
20
-26.4553359999999991
11
82.9123439999999903
21
-26.0607860000000002
0
LINE
8
BLACK
6
CONTINUOUS
10
79.7052369999999968
20
-26.9201279999999983
11
80.2442020000000014
21
-27.0645430000000005
0
LINE
8
BLACK
6
CONTINUOUS
10
89.2716829999999959
20
-33.3122219999999984
11
88.8290099999999967
21
-33.6518979999999956
0
LINE
8
BLACK
6
CONTINUOUS
10
86.2638659999999931
20
-27.4590919999999983
11
86.8170700000000011
21
-27.3862619999999986
0
LINE
8
BLACK
6
CONTINUOUS
10
88.6247759999999971
20
-30.5358899999999984
11
89.1079989999999924
21
-30.8148789999999977
0
LINE
8
BLACK
6
CONTINUOUS
10
88.0010819999999967
20
-28.5702739999999977
11
87.928251000000003
21
-29.1234779999999986
0
LINE
8
BLACK
6
CONTINUOUS
10
84.0892419999999987
20
-26.5583339999999986
11
84.572464999999994
21
-26.2793449999999993
0
LINE
8
BLACK
6
CONTINUOUS
10
81.2522230000000008
20
-26.2793449999999993
11
81.735445999999996
21
-26.5583339999999986
0
LINE
8
BLACK
6
CONTINUOUS
10
82.0751209999999958
20
-26.1156599999999983
11
82.517793999999995
21
-26.4553359999999991
0
LINE
8
BLACK
6
CONTINUOUS
10
87.4478780000000029
20
-28.497442999999997
11
88.0010819999999967
21
-28.5702739999999977
0
LINE
8
BLACK
6
CONTINUOUS
10
87.928251000000003
20
-35.8265219999999971
11
88.0010819999999967
21
-36.3797250000000005
0
LINE
8
BLACK
6
CONTINUOUS
10
82.9123439999999903
20
-38.889212999999998
11
82.517793999999995
21
-38.4946640000000002
0
LINE
8
BLACK
6
CONTINUOUS
10
83.3068939999999998
20
-38.4946640000000002
11
82.9123439999999903
21
-38.889212999999998
0
LINE
8
BLACK
6
CONTINUOUS
10
83.749566999999999
20
-38.8343389999999999
11
83.3068939999999998
21
-38.4946640000000002
0
LINE
8
BLACK
6
CONTINUOUS
10
80.1123439999999931
20
-19.4749999999999979
11
79.9186049999999994
21
-19.2812610000000006
0
ARC
8
BLACK
10
82.9123439999999903
20
-19.4749859999999977
40
3.0000011104406274
50
-86.29753030
51
-3.70294740
0
LINE
8
BLACK
6
CONTINUOUS
10
85.9060819999999978
20
-19.6687370000000001
11
85.7123440000000016
21
-19.4749999999999979
0
LINE
8
BLACK
6
CONTINUOUS
10
88.456286999999989
20
-26.1239449999999991
11
88.154057999999992
21
-25.7300729999999973
0
LINE
8
BLACK
6
CONTINUOUS
10
88.5396609999999953
20
-28.6590150000000001
11
88.7296499999999924
21
-28.2003399999999971
0
LINE
8
BLACK
6
CONTINUOUS
10
91.6283249999999896
20
-31.747678999999998
11
91.438334999999995
21
-31.2890039999999985
0
LINE
8
BLACK
6
CONTINUOUS
10
94.1633939999999967
20
-31.8310519999999997
11
93.8123399999999918
21
-32.1821059999999974
0
LINE
8
BLACK
6
CONTINUOUS
10
93.8123399999999918
20
-32.1821059999999974
11
93.4612860000000012
21
-31.8310519999999997
0
LINE
8
BLACK
6
CONTINUOUS
10
88.7296499999999924
20
-28.2003399999999971
11
88.2996979999999922
21
-27.9521079999999991
0
LINE
8
BLACK
6
CONTINUOUS
10
92.7651839999999908
20
-31.7394089999999984
11
92.3352319999999906
21
-31.9876419999999975
0
LINE
8
BLACK
6
CONTINUOUS
10
96.7943879999999979
20
-30.9379499999999972
11
96.665892999999997
21
-31.4174989999999994
0
LINE
8
BLACK
6
CONTINUOUS
10
82.7186069999999916
20
-22.4687349999999988
11
82.9123439999999903
21
-22.2749999999999986
0
LINE
8
BLACK
6
CONTINUOUS
10
89.7768059999999934
20
-30.5105339999999998
11
89.7768059999999934
21
-30.0140679999999982
0
LINE
8
BLACK
6
CONTINUOUS
10
96.1863439999999912
20
-31.2890039999999985
11
95.9963549999999941
21
-31.747678999999998
0
LINE
8
BLACK
6
CONTINUOUS
10
90.3380729999999943
20
-31.0027519999999974
11
90.2732719999999915
21
-30.5105339999999998
0
LINE
8
BLACK
6
CONTINUOUS
10
89.7768059999999934
20
-22.4394659999999995
11
90.2732719999999915
21
-22.4394659999999995
0
LINE
8
BLACK
6
CONTINUOUS
10
88.2996979999999922
20
-27.9521079999999991
11
88.5479309999999913
21
-27.522155999999999
0
LINE
8
BLACK
6
CONTINUOUS
10
89.2845879999999994
20
-29.9492659999999979
11
89.3493890000000022
21
-29.4570480000000003
0
LINE
8
BLACK
6
CONTINUOUS
10
90.9587859999999893
20
-31.4174989999999994
11
90.830292
21
-30.9379499999999972
0
LINE
8
BLACK
6
CONTINUOUS
10
95.289447999999993
20
-31.9876419999999975
11
94.8594959999999929
21
-31.7394089999999984
0
LINE
8
BLACK
6
CONTINUOUS
10
89.3493890000000022
20
-23.4929519999999989
11
89.2845879999999994
21
-23.0007330000000003
0
LINE
8
BLACK
6
CONTINUOUS
10
88.2996979999999922
20
-24.9978920000000002
11
88.7296499999999924
21
-24.7496589999999976
0
LINE
8
BLACK
6
CONTINUOUS
10
88.154057999999992
20
-25.7300729999999973
11
88.5479309999999913
21
-25.4278440000000003
0
LINE
8
BLACK
6
CONTINUOUS
10
88.9983349999999973
20
-24.1009949999999975
11
88.8698399999999964
21
-23.6214459999999988
0
LINE
8
BLACK
6
CONTINUOUS
10
88.8698399999999964
20
-29.3285529999999994
11
88.9983349999999973
21
-28.8490039999999972
0
LINE
8
BLACK
6
CONTINUOUS
10
89.2845879999999994
20
-23.0007330000000003
11
89.7768059999999934
21
-22.9359310000000001
0
LINE
8
BLACK
6
CONTINUOUS
10
97.3514079999999922
20
-30.5105339999999998
11
97.2866059999999919
21
-31.0027519999999974
0
LINE
8
BLACK
6
CONTINUOUS
10
88.8698399999999964
20
-23.6214459999999988
11
89.3493890000000022
21
-23.4929519999999989
0
LINE
8
BLACK
6
CONTINUOUS
10
88.5479309999999913
20
-27.522155999999999
11
88.154057999999992
21
-27.2199269999999984
0
LINE
8
BLACK
6
CONTINUOUS
10
94.557266999999996
20
-32.1332809999999967
11
94.1633939999999967
21
-31.8310519999999997
0
LINE
8
BLACK
6
CONTINUOUS
10
90.2732719999999915
20
-30.5105339999999998
11
89.7768059999999934
21
-30.5105339999999998
0
LINE
8
BLACK
6
CONTINUOUS
10
88.9983349999999973
20
-28.8490039999999972
11
88.5396609999999953
21
-28.6590150000000001
0
LINE
8
BLACK
6
CONTINUOUS
10
88.456286999999989
20
-26.8260539999999992
11
88.1052329999999984
21
-26.4749999999999979
0
LINE
8
BLACK
6
CONTINUOUS
10
88.7296499999999924
20
-24.7496589999999976
11
88.5396609999999953
21
-24.2909839999999981
0
LINE
8
BLACK
6
CONTINUOUS
10
97.2866059999999919
20
-31.0027519999999974
11
96.7943879999999979
21
-30.9379499999999972
0
LINE
8
BLACK
6
CONTINUOUS
10
79.9185969999999912
20
-19.6687449999999977
11
80.1123439999999931
21
-19.4749999999999979
0
ARC
8
BLACK
10
82.9126440000000002
20
-19.4748859999999979
40
2.9996814316518678
50
3.70054021
51
29.45112080
0
LINE
8
BLACK
6
CONTINUOUS
10
95.9963549999999941
20
-31.747678999999998
11
95.5376809999999921
21
-31.5576899999999974
0
ARC
8
BLACK
10
82.9123439999999903
20
-19.4749859999999977
40
3.0000111833408223
50
-176.29691123
51
-93.70266701
0
LINE
8
BLACK
6
CONTINUOUS
10
95.5376809999999921
20
-31.5576899999999974
11
95.289447999999993
21
-31.9876419999999975
0
LINE
8
BLACK
6
CONTINUOUS
10
85.7123440000000016
20
-19.4749999999999979
11
85.9060619999999915
21
-19.2812819999999974
0
LINE
8
BLACK
6
CONTINUOUS
10
89.3493890000000022
20
-29.4570480000000003
11
88.8698399999999964
21
-29.3285529999999994
0
LINE
8
BLACK
6
CONTINUOUS
10
90.830292
20
-30.9379499999999972
11
90.3380729999999943
21
-31.0027519999999974
0
ARC
8
BLACK
10
82.9121439999999978
20
-19.4749859999999977
40
2.9998008467473301
50
150.54810818
51
176.29730269
0
LINE
8
BLACK
6
CONTINUOUS
10
89.7768059999999934
20
-22.9359310000000001
11
89.7768059999999934
21
-22.4394659999999995
0
LINE
8
BLACK
6
CONTINUOUS
10
88.5396609999999953
20
-24.2909839999999981
11
88.9983349999999973
21
-24.1009949999999975
0
LINE
8
BLACK
6
CONTINUOUS
10
92.0869989999999916
20
-31.5576899999999974
11
91.6283249999999896
21
-31.747678999999998
0
LINE
8
BLACK
6
CONTINUOUS
10
93.4612860000000012
20
-31.8310519999999997
11
93.0674130000000019
21
-32.1332809999999967
0
LINE
8
BLACK
6
CONTINUOUS
10
91.438334999999995
20
-31.2890039999999985
11
90.9587859999999893
21
-31.4174989999999994
0
LINE
8
BLACK
6
CONTINUOUS
10
92.3352319999999906
20
-31.9876419999999975
11
92.0869989999999916
21
-31.5576899999999974
0
LINE
8
BLACK
6
CONTINUOUS
10
96.665892999999997
20
-31.4174989999999994
11
96.1863439999999912
21
-31.2890039999999985
0
LINE
8
BLACK
6
CONTINUOUS
10
93.0674130000000019
20
-32.1332809999999967
11
92.7651839999999908
21
-31.7394089999999984
0
LINE
8
BLACK
6
CONTINUOUS
10
88.5479309999999913
20
-25.4278440000000003
11
88.2996979999999922
21
-24.9978920000000002
0
LINE
8
BLACK
6
CONTINUOUS
10
94.8594959999999929
20
-31.7394089999999984
11
94.557266999999996
21
-32.1332809999999967
0
LINE
8
BLACK
6
CONTINUOUS
10
89.7768059999999934
20
-30.0140679999999982
11
89.2845879999999994
21
-29.9492659999999979
0
LINE
8
BLACK
6
CONTINUOUS
10
88.154057999999992
20
-27.2199269999999984
11
88.456286999999989
21
-26.8260539999999992
0
LINE
8
BLACK
6
CONTINUOUS
10
82.9123439999999903
20
-22.2749999999999986
11
83.1060700000000026
21
-22.4687249999999992
0
LINE
8
BLACK
6
CONTINUOUS
10
88.1052329999999984
20
-26.4749999999999979
11
88.456286999999989
21
-26.1239449999999991
0
LINE
8
BLACK
6
CONTINUOUS
10
98.7548389999999898
20
-29.3285529999999994
11
98.2752899999999983
21
-29.4570480000000003
0
LINE
8
BLACK
6
CONTINUOUS
10
99.0850190000000026
20
-28.6590150000000001
11
98.6263450000000006
21
-28.8490039999999972
0
LINE
8
BLACK
6
CONTINUOUS
10
99.0767489999999924
20
-27.522155999999999
11
99.3249819999999914
21
-27.9521079999999991
0
LINE
8
BLACK
6
CONTINUOUS
10
99.4706219999999917
20
-27.2199269999999984
11
99.0767489999999924
21
-27.522155999999999
0
LINE
8
BLACK
6
CONTINUOUS
10
99.4706219999999917
20
-25.7300729999999973
11
99.1683919999999972
21
-26.1239449999999991
0
LINE
8
BLACK
6
CONTINUOUS
10
99.1683919999999972
20
-26.8260539999999992
11
99.4706219999999917
21
-27.2199269999999984
0
LINE
8
BLACK
6
CONTINUOUS
10
99.1683919999999972
20
-26.1239449999999991
11
99.5194469999999995
21
-26.4749999999999979
0
LINE
8
BLACK
6
CONTINUOUS
10
99.3249819999999914
20
-24.9978920000000002
11
99.0767489999999924
21
-25.4278440000000003
0
LINE
8
BLACK
6
CONTINUOUS
10
96.7943879999999979
20
-22.0120489999999975
11
97.2866059999999919
21
-21.9472469999999973
0
LINE
8
BLACK
6
CONTINUOUS
10
91.1537610000000029
20
-26.4749999999999979
11
90.8299279999999953
21
-26.7988329999999983
0
LINE
8
BLACK
6
CONTINUOUS
10
94.557266999999996
20
-20.8167179999999981
11
94.8594959999999929
21
-21.2105909999999973
0
LINE
8
BLACK
6
CONTINUOUS
10
90.8298759999999987
20
-26.1511139999999997
11
91.1537610000000029
21
-26.4749999999999979
0
LINE
8
BLACK
6
CONTINUOUS
10
94.1633939999999967
20
-21.1189469999999986
11
94.557266999999996
21
-20.8167179999999981
0
LINE
8
BLACK
6
CONTINUOUS
10
95.289447999999993
20
-20.9623579999999983
11
95.5376809999999921
21
-21.3923099999999984
0
LINE
8
BLACK
6
CONTINUOUS
10
96.665892999999997
20
-21.5324999999999989
11
96.7943879999999979
21
-22.0120489999999975
0
LINE
8
BLACK
6
CONTINUOUS
10
98.8950299999999913
20
-24.7496589999999976
11
99.3249819999999914
21
-24.9978920000000002
0
LINE
8
BLACK
6
CONTINUOUS
10
99.0850190000000026
20
-24.2909839999999981
11
98.8950299999999913
21
-24.7496589999999976
0
LINE
8
BLACK
6
CONTINUOUS
10
98.3400919999999985
20
-23.0007330000000003
11
98.2752899999999983
21
-23.4929519999999989
0
LINE
8
BLACK
6
CONTINUOUS
10
97.3514079999999922
20
-22.4394659999999995
11
97.8478739999999902
21
-22.4394659999999995
0
LINE
8
BLACK
6
CONTINUOUS
10
91.438334999999995
20
-21.6609949999999998
11
91.6283249999999896
21
-21.2023209999999978
0
LINE
8
BLACK
6
CONTINUOUS
10
90.3380729999999943
20
-21.9472469999999973
11
90.830292
21
-22.0120489999999975
0
LINE
8
BLACK
6
CONTINUOUS
10
96.1863439999999912
20
-21.6609949999999998
11
96.665892999999997
21
-21.5324999999999989
0
LINE
8
BLACK
6
CONTINUOUS
10
90.830292
20
-22.0120489999999975
11
90.9587859999999893
21
-21.5324999999999989
0
LINE
8
BLACK
6
CONTINUOUS
10
94.8594959999999929
20
-21.2105909999999973
11
95.289447999999993
21
-20.9623579999999983
0
LINE
8
BLACK
6
CONTINUOUS
10
93.470918999999995
20
-25.
11
91.2000000000000028
21
-25.
0
LINE
8
BLACK
6
CONTINUOUS
10
94.1362179999999995
20
-29.457456999999998
11
93.8123399999999918
21
-29.133578
0
LINE
8
BLACK
6
CONTINUOUS
10
96.7948169999999948
20
-26.1510999999999996
11
96.470918999999995
21
-26.4749999999999979
0
LINE
8
BLACK
6
CONTINUOUS
10
99.3249819999999914
20
-27.9521079999999991
11
98.8950299999999913
21
-28.2003399999999971
0
ARC
8
BLACK
10
93.8123739999999913
20
-26.4750279999999982
40
2.9999609078748004
50
-83.80287601
51
-6.19735183
0
LINE
8
BLACK
6
CONTINUOUS
10
99.5194469999999995
20
-26.4749999999999979
11
99.1683919999999972
21
-26.8260539999999992
0
LINE
8
BLACK
6
CONTINUOUS
10
95.9963549999999941
20
-21.2023209999999978
11
96.1863439999999912
21
-21.6609949999999998
0
LINE
8
BLACK
6
CONTINUOUS
10
95.5376809999999921
20
-21.3923099999999984
11
95.9963549999999941
21
-21.2023209999999978
0
LINE
8
BLACK
6
CONTINUOUS
10
93.470918999999995
20
-25.
11
94.1537609999999887
21
-25.
0
ARC
8
BLACK
10
93.8123739999999913
20
-26.4750279999999982
40
2.9999837473959752
50
6.19869004
51
29.45097510
0
LINE
8
BLACK
6
CONTINUOUS
10
93.0674130000000019
20
-20.8167179999999981
11
93.4612860000000012
21
-21.1189469999999986
0
LINE
8
BLACK
6
CONTINUOUS
10
94.1537609999999887
20
-25.
11
96.4246899999999982
21
-25.
0
ARC
8
BLACK
10
93.8124739999999946
20
-26.4750279999999982
40
3.0001351817876474
50
150.55050852
51
173.80189539
0
LINE
8
BLACK
6
CONTINUOUS
10
97.8478739999999902
20
-22.9359310000000001
11
98.3400919999999985
21
-23.0007330000000003
0
LINE
8
BLACK
6
CONTINUOUS
10
97.8478739999999902
20
-30.5105339999999998
11
97.3514079999999922
21
-30.5105339999999998
0
LINE
8
BLACK
6
CONTINUOUS
10
98.6263450000000006
20
-28.8490039999999972
11
98.7548389999999898
21
-29.3285529999999994
0
LINE
8
BLACK
6
CONTINUOUS
10
98.8950299999999913
20
-28.2003399999999971
11
99.0850190000000026
21
-28.6590150000000001
0
LINE
8
BLACK
6
CONTINUOUS
10
98.7548389999999898
20
-23.6214459999999988
11
98.6263450000000006
21
-24.1009949999999975
0
LINE
8
BLACK
6
CONTINUOUS
10
97.8478739999999902
20
-22.4394659999999995
11
97.8478739999999902
21
-22.9359310000000001
0
LINE
8
BLACK
6
CONTINUOUS
10
90.9587859999999893
20
-21.5324999999999989
11
91.438334999999995
21
-21.6609949999999998
0
LINE
8
BLACK
6
CONTINUOUS
10
97.8478739999999902
20
-30.0140679999999982
11
97.8478739999999902
21
-30.5105339999999998
0
LINE
8
BLACK
6
CONTINUOUS
10
93.4612860000000012
20
-21.1189469999999986
11
93.8123399999999918
21
-20.7678930000000008
0
LINE
8
BLACK
6
CONTINUOUS
10
91.6283249999999896
20
-21.2023209999999978
11
92.0869989999999916
21
-21.3923099999999984
0
LINE
8
BLACK
6
CONTINUOUS
10
98.3400919999999985
20
-29.9492659999999979
11
97.8478739999999902
21
-30.0140679999999982
0
LINE
8
BLACK
6
CONTINUOUS
10
92.7651839999999908
20
-21.2105909999999973
11
93.0674130000000019
21
-20.8167179999999981
0
LINE
8
BLACK
6
CONTINUOUS
10
92.0869989999999916
20
-21.3923099999999984
11
92.3352319999999906
21
-20.9623579999999983
0
LINE
8
BLACK
6
CONTINUOUS
10
90.2732719999999915
20
-22.4394659999999995
11
90.3380729999999943
21
-21.9472469999999973
0
ARC
8
BLACK
10
93.8123739999999913
20
-26.4750279999999982
40
2.9999746686692204
50
-173.80365156
51
-96.19853359
0
LINE
8
BLACK
6
CONTINUOUS
10
98.2752899999999983
20
-29.4570480000000003
11
98.3400919999999985
21
-29.9492659999999979
0
LINE
8
BLACK
6
CONTINUOUS
10
98.2752899999999983
20
-23.4929519999999989
11
98.7548389999999898
21
-23.6214459999999988
0
LINE
8
BLACK
6
CONTINUOUS
10
93.8123399999999918
20
-20.7678930000000008
11
94.1633939999999967
21
-21.1189469999999986
0
LINE
8
BLACK
6
CONTINUOUS
10
97.2866059999999919
20
-21.9472469999999973
11
97.3514079999999922
21
-22.4394659999999995
0
LINE
8
BLACK
6
CONTINUOUS
10
92.3352319999999906
20
-20.9623579999999983
11
92.7651839999999908
21
-21.2105909999999973
0
LINE
8
BLACK
6
CONTINUOUS
10
96.470918999999995
20
-26.4749999999999979
11
96.7948030000000017
21
-26.7988839999999975
0
LINE
8
BLACK
6
CONTINUOUS
10
99.0767489999999924
20
-25.4278440000000003
11
99.4706219999999917
21
-25.7300729999999973
0
LINE
8
BLACK
6
CONTINUOUS
10
98.6263450000000006
20
-24.1009949999999975
11
99.0850190000000026
21
-24.2909839999999981
0
LINE
8
BLACK
6
CONTINUOUS
10
77.5018869999999964
20
-16.8068579999999983
11
77.3574720000000013
21
-16.2678930000000008
0
LINE
8
BLACK
6
CONTINUOUS
10
77.8964369999999917
20
-22.8265220000000006
11
77.3574720000000013
21
-22.6821059999999974
0
LINE
8
BLACK
6
CONTINUOUS
10
79.7052369999999968
20
-25.029871
11
79.5608220000000017
21
-24.490907
0
LINE
8
BLACK
6
CONTINUOUS
10
77.8236059999999981
20
-23.3797250000000005
11
77.8964369999999917
21
-22.8265220000000006
0
LINE
8
BLACK
6
CONTINUOUS
10
79.5608220000000017
20
-24.490907
11
79.0076179999999937
21
-24.5637369999999997
0
LINE
8
BLACK
6
CONTINUOUS
10
77.8964369999999917
20
-16.1234779999999986
11
77.8236059999999981
21
-15.5702739999999995
0
LINE
8
BLACK
6
CONTINUOUS
10
82.5709229999999934
20
-18.
11
80.2999999999999972
21
-18.
0
LINE
8
BLACK
6
CONTINUOUS
10
77.1999119999999976
20
-17.5358899999999984
11
76.9863830000000036
21
-17.0203859999999985
0
LINE
8
BLACK
6
CONTINUOUS
10
77.3574720000000013
20
-16.2678930000000008
11
77.8964369999999917
21
-16.1234779999999986
0
LINE
8
BLACK
6
CONTINUOUS
10
79.0076179999999937
20
-24.5637369999999997
11
78.9347879999999975
21
-24.0105329999999988
0
LINE
8
BLACK
6
CONTINUOUS
10
82.517793999999995
20
-25.4946640000000002
11
82.0751209999999958
21
-25.8343389999999999
0
LINE
8
BLACK
6
CONTINUOUS
10
82.0751209999999958
20
-25.8343389999999999
11
81.735445999999996
21
-25.3916649999999997
0
LINE
8
BLACK
6
CONTINUOUS
10
81.2522230000000008
20
-25.670653999999999
11
80.9732350000000025
21
-25.1874310000000001
0
LINE
8
BLACK
6
CONTINUOUS
10
76.9863830000000036
20
-17.0203859999999985
11
77.5018869999999964
21
-16.8068579999999983
0
LINE
8
BLACK
6
CONTINUOUS
10
76.8926799999999986
20
-19.8695489999999992
11
76.4981300000000033
21
-19.4749999999999979
0
LINE
8
BLACK
6
CONTINUOUS
10
76.9863830000000036
20
-21.9296129999999998
11
77.1999119999999976
21
-21.4141089999999998
0
LINE
8
BLACK
6
CONTINUOUS
10
77.3574720000000013
20
-22.6821059999999974
11
77.5018869999999964
21
-22.1431419999999974
0
LINE
8
BLACK
6
CONTINUOUS
10
80.4577309999999954
20
-25.4009599999999978
11
80.2442020000000014
21
-24.8854559999999978
0
LINE
8
BLACK
6
CONTINUOUS
10
76.9956779999999981
20
-20.6518979999999992
11
76.5530049999999989
21
-20.3122219999999984
0
LINE
8
BLACK
6
CONTINUOUS
10
83.2537650000000014
20
-18.
11
85.5246929999999992
21
-18.
0
LINE
8
BLACK
6
CONTINUOUS
10
76.8926799999999986
20
-19.080449999999999
11
76.5530049999999989
21
-18.6377769999999998
0
LINE
8
BLACK
6
CONTINUOUS
10
76.5530049999999989
20
-20.3122219999999984
11
76.8926799999999986
21
-19.8695489999999992
0
LINE
8
BLACK
6
CONTINUOUS
10
78.9347879999999975
20
-24.0105329999999988
11
78.3768099999999919
21
-24.0105329999999988
0
LINE
8
BLACK
6
CONTINUOUS
10
80.2442020000000014
20
-24.8854559999999978
11
79.7052369999999968
21
-25.029871
0
LINE
8
BLACK
6
CONTINUOUS
10
78.3768099999999919
20
-23.4525559999999977
11
77.8236059999999981
21
-23.3797250000000005
0
LINE
8
BLACK
6
CONTINUOUS
10
78.3768099999999919
20
-14.9394659999999995
11
78.9347879999999975
21
-14.9394659999999995
0
LINE
8
BLACK
6
CONTINUOUS
10
76.4981300000000033
20
-19.4749999999999979
11
76.8926799999999986
21
-19.080449999999999
0
LINE
8
BLACK
6
CONTINUOUS
10
77.1999119999999976
20
-21.4141089999999998
11
76.7166890000000024
21
-21.1351200000000006
0
LINE
8
BLACK
6
CONTINUOUS
10
80.9732350000000025
20
-25.1874310000000001
11
80.4577309999999954
21
-25.4009599999999978
0
LINE
8
BLACK
6
CONTINUOUS
10
78.3768099999999919
20
-15.4974429999999987
11
78.3768099999999919
21
-14.9394659999999995
0
LINE
8
BLACK
6
CONTINUOUS
10
76.7166890000000024
20
-17.8148789999999977
11
77.1999119999999976
21
-17.5358899999999984
0
LINE
8
BLACK
6
CONTINUOUS
10
76.9956779999999981
20
-18.2981020000000001
11
76.7166890000000024
21
-17.8148789999999977
0
LINE
8
BLACK
6
CONTINUOUS
10
81.735445999999996
20
-25.3916649999999997
11
81.2522230000000008
21
-25.670653999999999
0
LINE
8
BLACK
6
CONTINUOUS
10
76.7166890000000024
20
-21.1351200000000006
11
76.9956779999999981
21
-20.6518979999999992
0
LINE
8
BLACK
6
CONTINUOUS
10
76.5530049999999989
20
-18.6377769999999998
11
76.9956779999999981
21
-18.2981020000000001
0
LINE
8
BLACK
6
CONTINUOUS
10
77.5018869999999964
20
-22.1431419999999974
11
76.9863830000000036
21
-21.9296129999999998
0
LINE
8
BLACK
6
CONTINUOUS
10
78.3768099999999919
20
-24.0105329999999988
11
78.3768099999999919
21
-23.4525559999999977
0
LINE
8
BLACK
6
CONTINUOUS
10
82.5709229999999934
20
-18.
11
83.2537650000000014
21
-18.
0
LINE
8
BLACK
6
CONTINUOUS
10
77.8236059999999981
20
-15.5702739999999995
11
78.3768099999999919
21
-15.4974429999999987
0
LINE
8
BLACK
6
CONTINUOUS
10
84.0892419999999987
20
-25.3916649999999997
11
83.749566999999999
21
-25.8343389999999999
0
LINE
8
BLACK
6
CONTINUOUS
10
84.572464999999994
20
-25.670653999999999
11
84.0892419999999987
21
-25.3916649999999997
0
LINE
8
BLACK
6
CONTINUOUS
10
84.8514529999999922
20
-25.1874310000000001
11
84.572464999999994
21
-25.670653999999999
0
LINE
8
BLACK
6
CONTINUOUS
10
85.3669569999999993
20
-25.4009599999999978
11
84.8514529999999922
21
-25.1874310000000001
0
LINE
8
BLACK
6
CONTINUOUS
10
85.5804859999999934
20
-24.8854559999999978
11
85.3669569999999993
21
-25.4009599999999978
0
LINE
8
BLACK
6
CONTINUOUS
10
86.119450999999998
20
-25.029871
11
85.5804859999999934
21
-24.8854559999999978
0
LINE
8
BLACK
6
CONTINUOUS
10
86.2638659999999931
20
-24.490907
11
86.119450999999998
21
-25.029871
0
LINE
8
BLACK
6
CONTINUOUS
10
86.8170700000000011
20
-24.5637369999999997
11
86.2638659999999931
21
-24.490907
0
LINE
8
BLACK
6
CONTINUOUS
10
86.8898999999999972
20
-24.0105329999999988
11
86.8170700000000011
21
-24.5637369999999997
0
LINE
8
BLACK
6
CONTINUOUS
10
87.4478780000000029
20
-24.0105329999999988
11
86.8898999999999972
21
-24.0105329999999988
0
LINE
8
BLACK
6
CONTINUOUS
10
88.8383049999999912
20
-21.9296129999999998
11
88.3228009999999983
21
-22.1431419999999974
0
LINE
8
BLACK
6
CONTINUOUS
10
89.1079989999999924
20
-17.8148789999999977
11
88.8290099999999967
21
-18.2981020000000001
0
LINE
8
BLACK
6
CONTINUOUS
10
83.3068939999999998
20
-13.4553359999999991
11
83.749566999999999
21
-13.1156600000000001
0
LINE
8
BLACK
6
CONTINUOUS
10
87.4478780000000029
20
-23.4525559999999977
11
87.4478780000000029
21
-24.0105329999999988
0
LINE
8
BLACK
6
CONTINUOUS
10
88.4672159999999934
20
-22.6821059999999974
11
87.928251000000003
21
-22.8265220000000006
0
LINE
8
BLACK
6
CONTINUOUS
10
89.1079989999999924
20
-21.1351200000000006
11
88.6247759999999971
21
-21.4141089999999998
0
LINE
8
BLACK
6
CONTINUOUS
10
88.8290099999999967
20
-18.2981020000000001
11
89.2716829999999959
21
-18.6377769999999998
0
LINE
8
BLACK
6
CONTINUOUS
10
88.8290099999999967
20
-20.6518979999999992
11
89.1079989999999924
21
-21.1351200000000006
0
LINE
8
BLACK
6
CONTINUOUS
10
81.735445999999996
20
-13.5583339999999986
11
82.0751209999999958
21
-13.1156600000000001
0
LINE
8
BLACK
6
CONTINUOUS
10
89.3265579999999915
20
-19.4749999999999979
11
88.9320079999999962
21
-19.8695489999999992
0
LINE
8
BLACK
6
CONTINUOUS
10
88.0010819999999967
20
-23.3797250000000005
11
87.4478780000000029
21
-23.4525559999999977
0
LINE
8
BLACK
6
CONTINUOUS
10
85.5804859999999934
20
-14.0645429999999987
11
86.119450999999998
21
-13.9201280000000001
0
LINE
8
BLACK
6
CONTINUOUS
10
80.2442020000000014
20
-14.0645429999999987
11
80.4577309999999954
21
-13.5490389999999987
0
LINE
8
BLACK
6
CONTINUOUS
10
88.9320079999999962
20
-19.080449999999999
11
89.3265579999999915
21
-19.4749999999999979
0
LINE
8
BLACK
6
CONTINUOUS
10
88.3228009999999983
20
-22.1431419999999974
11
88.4672159999999934
21
-22.6821059999999974
0
LINE
8
BLACK
6
CONTINUOUS
10
83.749566999999999
20
-13.1156600000000001
11
84.0892419999999987
21
-13.5583339999999986
0
LINE
8
BLACK
6
CONTINUOUS
10
79.0076179999999937
20
-14.3862619999999986
11
79.5608220000000017
21
-14.4590920000000001
0
LINE
8
BLACK
6
CONTINUOUS
10
88.6247759999999971
20
-21.4141089999999998
11
88.8383049999999912
21
-21.9296129999999998
0
LINE
8
BLACK
6
CONTINUOUS
10
93.8123399999999918
20
-29.133578
11
93.4884550000000019
21
-29.4574639999999981
0
LINE
8
BLACK
6
CONTINUOUS
10
80.4577309999999954
20
-13.5490389999999987
11
80.9732350000000025
21
-13.7625679999999999
0
LINE
8
BLACK
6
CONTINUOUS
10
88.9320079999999962
20
-19.8695489999999992
11
89.2716829999999959
21
-20.3122219999999984
0
LINE
8
BLACK
6
CONTINUOUS
10
89.2716829999999959
20
-18.6377769999999998
11
88.9320079999999962
21
-19.080449999999999
0
LINE
8
BLACK
6
CONTINUOUS
10
80.9732350000000025
20
-13.7625679999999999
11
81.2522230000000008
21
-13.2793449999999993
0
LINE
8
BLACK
6
CONTINUOUS
10
86.119450999999998
20
-13.9201280000000001
11
86.2638659999999931
21
-14.4590920000000001
0
LINE
8
BLACK
6
CONTINUOUS
10
87.4478780000000029
20
-14.9394659999999995
11
87.4478780000000029
21
-15.4974429999999987
0
LINE
8
BLACK
6
CONTINUOUS
10
88.8383049999999912
20
-17.0203859999999985
11
88.6247759999999971
21
-17.5358899999999984
0
LINE
8
BLACK
6
CONTINUOUS
10
87.928251000000003
20
-16.1234779999999986
11
88.4672159999999934
21
-16.2678930000000008
0
LINE
8
BLACK
6
CONTINUOUS
10
88.4672159999999934
20
-16.2678930000000008
11
88.3228009999999983
21
-16.8068579999999983
0
LINE
8
BLACK
6
CONTINUOUS
10
88.3228009999999983
20
-16.8068579999999983
11
88.8383049999999912
21
-17.0203859999999985
0
LINE
8
BLACK
6
CONTINUOUS
10
86.8170700000000011
20
-14.3862619999999986
11
86.8898999999999972
21
-14.9394659999999995
0
LINE
8
BLACK
6
CONTINUOUS
10
82.9123439999999903
20
-13.0607860000000002
11
83.3068939999999998
21
-13.4553359999999991
0
LINE
8
BLACK
6
CONTINUOUS
10
79.5608220000000017
20
-14.4590920000000001
11
79.7052369999999968
21
-13.9201280000000001
0
LINE
8
BLACK
6
CONTINUOUS
10
86.8898999999999972
20
-14.9394659999999995
11
87.4478780000000029
21
-14.9394659999999995
0
LINE
8
BLACK
6
CONTINUOUS
10
84.8514529999999922
20
-13.7625679999999999
11
85.3669569999999993
21
-13.5490389999999987
0
LINE
8
BLACK
6
CONTINUOUS
10
78.9347879999999975
20
-14.9394659999999995
11
79.0076179999999937
21
-14.3862619999999986
0
LINE
8
BLACK
6
CONTINUOUS
10
85.3669569999999993
20
-13.5490389999999987
11
85.5804859999999934
21
-14.0645429999999987
0
LINE
8
BLACK
6
CONTINUOUS
10
84.572464999999994
20
-13.2793449999999993
11
84.8514529999999922
21
-13.7625679999999999
0
LINE
8
BLACK
6
CONTINUOUS
10
82.517793999999995
20
-13.4553359999999991
11
82.9123439999999903
21
-13.0607860000000002
0
LINE
8
BLACK
6
CONTINUOUS
10
79.7052369999999968
20
-13.9201280000000001
11
80.2442020000000014
21
-14.0645429999999987
0
LINE
8
BLACK
6
CONTINUOUS
10
89.2716829999999959
20
-20.3122219999999984
11
88.8290099999999967
21
-20.6518979999999992
0
LINE
8
BLACK
6
CONTINUOUS
10
86.2638659999999931
20
-14.4590920000000001
11
86.8170700000000011
21
-14.3862619999999986
0
LINE
8
BLACK
6
CONTINUOUS
10
88.6247759999999971
20
-17.5358899999999984
11
89.1079989999999924
21
-17.8148789999999977
0
LINE
8
BLACK
6
CONTINUOUS
10
88.0010819999999967
20
-15.5702739999999995
11
87.928251000000003
21
-16.1234779999999986
0
LINE
8
BLACK
6
CONTINUOUS
10
84.0892419999999987
20
-13.5583339999999986
11
84.572464999999994
21
-13.2793449999999993
0
LINE
8
BLACK
6
CONTINUOUS
10
81.2522230000000008
20
-13.2793449999999993
11
81.735445999999996
21
-13.5583339999999986
0
LINE
8
BLACK
6
CONTINUOUS
10
82.0751209999999958
20
-13.1156600000000001
11
82.517793999999995
21
-13.4553359999999991
0
LINE
8
BLACK
6
CONTINUOUS
10
87.4478780000000029
20
-15.4974429999999987
11
88.0010819999999967
21
-15.5702739999999995
0
LINE
8
BLACK
6
CONTINUOUS
10
87.928251000000003
20
-22.8265220000000006
11
88.0010819999999967
21
-23.3797250000000005
0
LINE
8
BLACK
6
CONTINUOUS
10
82.9123439999999903
20
-25.889212999999998
11
82.517793999999995
21
-25.4946640000000002
0
LINE
8
BLACK
6
CONTINUOUS
10
83.3068939999999998
20
-25.4946640000000002
11
82.9123439999999903
21
-25.889212999999998
0
LINE
8
BLACK
6
CONTINUOUS
10
83.749566999999999
20
-25.8343389999999999
11
83.3068939999999998
21
-25.4946640000000002
0
LINE
8
BLACK
6
CONTINUOUS
10
80.1123439999999931
20
-6.4749999999999996
11
79.9186049999999994
21
-6.2812609999999998
0
ARC
8
BLACK
10
82.9123439999999903
20
-6.4749859999999995
40
3.0000011104406274
50
-86.29753030
51
-3.70294740
0
LINE
8
BLACK
6
CONTINUOUS
10
85.9060819999999978
20
-6.6687370000000001
11
85.7123440000000016
21
-6.4749999999999996
0
LINE
8
BLACK
6
CONTINUOUS
10
88.456286999999989
20
-13.1239449999999991
11
88.154057999999992
21
-12.7300729999999991
0
LINE
8
BLACK
6
CONTINUOUS
10
88.5396609999999953
20
-15.6590150000000001
11
88.7296499999999924
21
-15.2003399999999989
0
LINE
8
BLACK
6
CONTINUOUS
10
91.6283249999999896
20
-18.747678999999998
11
91.438334999999995
21
-18.2890039999999985
0
LINE
8
BLACK
6
CONTINUOUS
10
94.1633939999999967
20
-18.8310519999999997
11
93.8123399999999918
21
-19.1821059999999974
0
LINE
8
BLACK
6
CONTINUOUS
10
93.8123399999999918
20
-19.1821059999999974
11
93.4612860000000012
21
-18.8310519999999997
0
LINE
8
BLACK
6
CONTINUOUS
10
88.7296499999999924
20
-15.2003399999999989
11
88.2996979999999922
21
-14.9521079999999991
0
LINE
8
BLACK
6
CONTINUOUS
10
92.7651839999999908
20
-18.7394089999999984
11
92.3352319999999906
21
-18.9876419999999975
0
LINE
8
BLACK
6
CONTINUOUS
10
96.7943879999999979
20
-17.9379500000000007
11
96.665892999999997
21
-18.4174989999999994
0
LINE
8
BLACK
6
CONTINUOUS
10
82.7186069999999916
20
-9.4687349999999988
11
82.9123439999999903
21
-9.2750000000000004
0
LINE
8
BLACK
6
CONTINUOUS
10
89.7768059999999934
20
-17.5105339999999998
11
89.7768059999999934
21
-17.0140679999999982
0
LINE
8
BLACK
6
CONTINUOUS
10
96.1863439999999912
20
-18.2890039999999985
11
95.9963549999999941
21
-18.747678999999998
0
LINE
8
BLACK
6
CONTINUOUS
10
90.3380729999999943
20
-18.0027519999999974
11
90.2732719999999915
21
-17.5105339999999998
0
LINE
8
BLACK
6
CONTINUOUS
10
89.7768059999999934
20
-9.4394659999999995
11
90.2732719999999915
21
-9.4394659999999995
0
LINE
8
BLACK
6
CONTINUOUS
10
88.2996979999999922
20
-14.9521079999999991
11
88.5479309999999913
21
-14.522155999999999
0
LINE
8
BLACK
6
CONTINUOUS
10
89.2845879999999994
20
-16.9492659999999979
11
89.3493890000000022
21
-16.4570480000000003
0
LINE
8
BLACK
6
CONTINUOUS
10
90.9587859999999893
20
-18.4174989999999994
11
90.830292
21
-17.9379500000000007
0
LINE
8
BLACK
6
CONTINUOUS
10
95.289447999999993
20
-18.9876419999999975
11
94.8594959999999929
21
-18.7394089999999984
0
LINE
8
BLACK
6
CONTINUOUS
10
89.3493890000000022
20
-10.4929519999999989
11
89.2845879999999994
21
-10.0007330000000003
0
LINE
8
BLACK
6
CONTINUOUS
10
88.2996979999999922
20
-11.9978920000000002
11
88.7296499999999924
21
-11.7496589999999994
0
LINE
8
BLACK
6
CONTINUOUS
10
88.154057999999992
20
-12.7300729999999991
11
88.5479309999999913
21
-12.4278439999999986
0
LINE
8
BLACK
6
CONTINUOUS
10
88.9983349999999973
20
-11.1009949999999993
11
88.8698399999999964
21
-10.6214459999999988
0
LINE
8
BLACK
6
CONTINUOUS
10
88.8698399999999964
20
-16.3285529999999994
11
88.9983349999999973
21
-15.849003999999999
0
LINE
8
BLACK
6
CONTINUOUS
10
89.2845879999999994
20
-10.0007330000000003
11
89.7768059999999934
21
-9.9359310000000001
0
LINE
8
BLACK
6
CONTINUOUS
10
97.3514079999999922
20
-17.5105339999999998
11
97.2866059999999919
21
-18.0027519999999974
0
LINE
8
BLACK
6
CONTINUOUS
10
88.8698399999999964
20
-10.6214459999999988
11
89.3493890000000022
21
-10.4929519999999989
0
LINE
8
BLACK
6
CONTINUOUS
10
88.5479309999999913
20
-14.522155999999999
11
88.154057999999992
21
-14.2199270000000002
0
LINE
8
BLACK
6
CONTINUOUS
10
94.557266999999996
20
-19.1332810000000002
11
94.1633939999999967
21
-18.8310519999999997
0
LINE
8
BLACK
6
CONTINUOUS
10
90.2732719999999915
20
-17.5105339999999998
11
89.7768059999999934
21
-17.5105339999999998
0
LINE
8
BLACK
6
CONTINUOUS
10
88.9983349999999973
20
-15.849003999999999
11
88.5396609999999953
21
-15.6590150000000001
0
LINE
8
BLACK
6
CONTINUOUS
10
88.456286999999989
20
-13.8260539999999992
11
88.1052329999999984
21
-13.4749999999999996
0
LINE
8
BLACK
6
CONTINUOUS
10
88.7296499999999924
20
-11.7496589999999994
11
88.5396609999999953
21
-11.2909839999999999
0
LINE
8
BLACK
6
CONTINUOUS
10
97.2866059999999919
20
-18.0027519999999974
11
96.7943879999999979
21
-17.9379500000000007
0
LINE
8
BLACK
6
CONTINUOUS
10
79.9185969999999912
20
-6.6687449999999995
11
80.1123439999999931
21
-6.4749999999999996
0
ARC
8
BLACK
10
82.9126440000000002
20
-6.4748859999999997
40
2.9996814316518678
50
3.70054021
51
29.45112080
0
LINE
8
BLACK
6
CONTINUOUS
10
95.9963549999999941
20
-18.747678999999998
11
95.5376809999999921
21
-18.5576900000000009
0
ARC
8
BLACK
10
82.9123439999999903
20
-6.4749859999999995
40
3.0000111833408223
50
-176.29691123
51
-93.70266701
0
LINE
8
BLACK
6
CONTINUOUS
10
95.5376809999999921
20
-18.5576900000000009
11
95.289447999999993
21
-18.9876419999999975
0
LINE
8
BLACK
6
CONTINUOUS
10
85.7123440000000016
20
-6.4749999999999996
11
85.9060619999999915
21
-6.281282
0
LINE
8
BLACK
6
CONTINUOUS
10
89.3493890000000022
20
-16.4570480000000003
11
88.8698399999999964
21
-16.3285529999999994
0
LINE
8
BLACK
6
CONTINUOUS
10
90.830292
20
-17.9379500000000007
11
90.3380729999999943
21
-18.0027519999999974
0
ARC
8
BLACK
10
82.9121439999999978
20
-6.4749859999999995
40
2.9998008467473301
50
150.54810818
51
176.29730269
0
LINE
8
BLACK
6
CONTINUOUS
10
89.7768059999999934
20
-9.9359310000000001
11
89.7768059999999934
21
-9.4394659999999995
0
LINE
8
BLACK
6
CONTINUOUS
10
88.5396609999999953
20
-11.2909839999999999
11
88.9983349999999973
21
-11.1009949999999993
0
LINE
8
BLACK
6
CONTINUOUS
10
92.0869989999999916
20
-18.5576900000000009
11
91.6283249999999896
21
-18.747678999999998
0
LINE
8
BLACK
6
CONTINUOUS
10
93.4612860000000012
20
-18.8310519999999997
11
93.0674130000000019
21
-19.1332810000000002
0
LINE
8
BLACK
6
CONTINUOUS
10
91.438334999999995
20
-18.2890039999999985
11
90.9587859999999893
21
-18.4174989999999994
0
LINE
8
BLACK
6
CONTINUOUS
10
92.3352319999999906
20
-18.9876419999999975
11
92.0869989999999916
21
-18.5576900000000009
0
LINE
8
BLACK
6
CONTINUOUS
10
96.665892999999997
20
-18.4174989999999994
11
96.1863439999999912
21
-18.2890039999999985
0
LINE
8
BLACK
6
CONTINUOUS
10
93.0674130000000019
20
-19.1332810000000002
11
92.7651839999999908
21
-18.7394089999999984
0
LINE
8
BLACK
6
CONTINUOUS
10
88.5479309999999913
20
-12.4278439999999986
11
88.2996979999999922
21
-11.9978920000000002
0
LINE
8
BLACK
6
CONTINUOUS
10
94.8594959999999929
20
-18.7394089999999984
11
94.557266999999996
21
-19.1332810000000002
0
LINE
8
BLACK
6
CONTINUOUS
10
89.7768059999999934
20
-17.0140679999999982
11
89.2845879999999994
21
-16.9492659999999979
0
LINE
8
BLACK
6
CONTINUOUS
10
88.154057999999992
20
-14.2199270000000002
11
88.456286999999989
21
-13.8260539999999992
0
LINE
8
BLACK
6
CONTINUOUS
10
82.9123439999999903
20
-9.2750000000000004
11
83.1060700000000026
21
-9.4687249999999992
0
LINE
8
BLACK
6
CONTINUOUS
10
88.1052329999999984
20
-13.4749999999999996
11
88.456286999999989
21
-13.1239449999999991
0
LINE
8
BLACK
6
CONTINUOUS
10
98.7548389999999898
20
-16.3285529999999994
11
98.2752899999999983
21
-16.4570480000000003
0
LINE
8
BLACK
6
CONTINUOUS
10
99.0850190000000026
20
-15.6590150000000001
11
98.6263450000000006
21
-15.849003999999999
0
LINE
8
BLACK
6
CONTINUOUS
10
99.0767489999999924
20
-14.522155999999999
11
99.3249819999999914
21
-14.9521079999999991
0
LINE
8
BLACK
6
CONTINUOUS
10
99.4706219999999917
20
-14.2199270000000002
11
99.0767489999999924
21
-14.522155999999999
0
LINE
8
BLACK
6
CONTINUOUS
10
99.4706219999999917
20
-12.7300729999999991
11
99.1683919999999972
21
-13.1239449999999991
0
LINE
8
BLACK
6
CONTINUOUS
10
99.1683919999999972
20
-13.8260539999999992
11
99.4706219999999917
21
-14.2199270000000002
0
LINE
8
BLACK
6
CONTINUOUS
10
99.1683919999999972
20
-13.1239449999999991
11
99.5194469999999995
21
-13.4749999999999996
0
LINE
8
BLACK
6
CONTINUOUS
10
99.3249819999999914
20
-11.9978920000000002
11
99.0767489999999924
21
-12.4278439999999986
0
LINE
8
BLACK
6
CONTINUOUS
10
96.7943879999999979
20
-9.0120489999999993
11
97.2866059999999919
21
-8.9472469999999991
0
LINE
8
BLACK
6
CONTINUOUS
10
91.1537610000000029
20
-13.4749999999999996
11
90.8299279999999953
21
-13.7988330000000001
0
LINE
8
BLACK
6
CONTINUOUS
10
94.557266999999996
20
-7.8167179999999998
11
94.8594959999999929
21
-8.2105909999999991
0
LINE
8
BLACK
6
CONTINUOUS
10
90.8298759999999987
20
-13.1511139999999997
11
91.1537610000000029
21
-13.4749999999999996
0
LINE
8
BLACK
6
CONTINUOUS
10
94.1633939999999967
20
-8.1189470000000004
11
94.557266999999996
21
-7.8167179999999998
0
LINE
8
BLACK
6
CONTINUOUS
10
95.289447999999993
20
-7.962358
11
95.5376809999999921
21
-8.3923100000000002
0
LINE
8
BLACK
6
CONTINUOUS
10
96.665892999999997
20
-8.5324999999999989
11
96.7943879999999979
21
-9.0120489999999993
0
LINE
8
BLACK
6
CONTINUOUS
10
98.8950299999999913
20
-11.7496589999999994
11
99.3249819999999914
21
-11.9978920000000002
0
LINE
8
BLACK
6
CONTINUOUS
10
99.0850190000000026
20
-11.2909839999999999
11
98.8950299999999913
21
-11.7496589999999994
0
LINE
8
BLACK
6
CONTINUOUS
10
98.3400919999999985
20
-10.0007330000000003
11
98.2752899999999983
21
-10.4929519999999989
0
LINE
8
BLACK
6
CONTINUOUS
10
97.3514079999999922
20
-9.4394659999999995
11
97.8478739999999902
21
-9.4394659999999995
0
LINE
8
BLACK
6
CONTINUOUS
10
91.438334999999995
20
-8.6609949999999998
11
91.6283249999999896
21
-8.2023209999999995
0
LINE
8
BLACK
6
CONTINUOUS
10
90.3380729999999943
20
-8.9472469999999991
11
90.830292
21
-9.0120489999999993
0
LINE
8
BLACK
6
CONTINUOUS
10
96.1863439999999912
20
-8.6609949999999998
11
96.665892999999997
21
-8.5324999999999989
0
LINE
8
BLACK
6
CONTINUOUS
10
90.830292
20
-9.0120489999999993
11
90.9587859999999893
21
-8.5324999999999989
0
LINE
8
BLACK
6
CONTINUOUS
10
94.8594959999999929
20
-8.2105909999999991
11
95.289447999999993
21
-7.962358
0
LINE
8
BLACK
6
CONTINUOUS
10
93.470918999999995
20
-12.
11
91.2000000000000028
21
-12.
0
LINE
8
BLACK
6
CONTINUOUS
10
94.1362179999999995
20
-16.457456999999998
11
93.8123399999999918
21
-16.133578
0
LINE
8
BLACK
6
CONTINUOUS
10
96.7948169999999948
20
-13.1510999999999996
11
96.470918999999995
21
-13.4749999999999996
0
LINE
8
BLACK
6
CONTINUOUS
10
99.3249819999999914
20
-14.9521079999999991
11
98.8950299999999913
21
-15.2003399999999989
0
ARC
8
BLACK
10
93.8123739999999913
20
-13.475028
40
2.9999609078748004
50
-83.80287601
51
-6.19735183
0
LINE
8
BLACK
6
CONTINUOUS
10
99.5194469999999995
20
-13.4749999999999996
11
99.1683919999999972
21
-13.8260539999999992
0
LINE
8
BLACK
6
CONTINUOUS
10
95.9963549999999941
20
-8.2023209999999995
11
96.1863439999999912
21
-8.6609949999999998
0
LINE
8
BLACK
6
CONTINUOUS
10
95.5376809999999921
20
-8.3923100000000002
11
95.9963549999999941
21
-8.2023209999999995
0
LINE
8
BLACK
6
CONTINUOUS
10
93.470918999999995
20
-12.
11
94.1537609999999887
21
-12.
0
ARC
8
BLACK
10
93.8123739999999913
20
-13.475028
40
2.9999837473959752
50
6.19869004
51
29.45097510
0
LINE
8
BLACK
6
CONTINUOUS
10
93.0674130000000019
20
-7.8167179999999998
11
93.4612860000000012
21
-8.1189470000000004
0
LINE
8
BLACK
6
CONTINUOUS
10
94.1537609999999887
20
-12.
11
96.4246899999999982
21
-12.
0
ARC
8
BLACK
10
93.8124739999999946
20
-13.475028
40
3.0001351817876474
50
150.55050852
51
173.80189539
0
LINE
8
BLACK
6
CONTINUOUS
10
97.8478739999999902
20
-9.9359310000000001
11
98.3400919999999985
21
-10.0007330000000003
0
LINE
8
BLACK
6
CONTINUOUS
10
97.8478739999999902
20
-17.5105339999999998
11
97.3514079999999922
21
-17.5105339999999998
0
LINE
8
BLACK
6
CONTINUOUS
10
98.6263450000000006
20
-15.849003999999999
11
98.7548389999999898
21
-16.3285529999999994
0
LINE
8
BLACK
6
CONTINUOUS
10
98.8950299999999913
20
-15.2003399999999989
11
99.0850190000000026
21
-15.6590150000000001
0
LINE
8
BLACK
6
CONTINUOUS
10
98.7548389999999898
20
-10.6214459999999988
11
98.6263450000000006
21
-11.1009949999999993
0
LINE
8
BLACK
6
CONTINUOUS
10
97.8478739999999902
20
-9.4394659999999995
11
97.8478739999999902
21
-9.9359310000000001
0
LINE
8
BLACK
6
CONTINUOUS
10
90.9587859999999893
20
-8.5324999999999989
11
91.438334999999995
21
-8.6609949999999998
0
LINE
8
BLACK
6
CONTINUOUS
10
97.8478739999999902
20
-17.0140679999999982
11
97.8478739999999902
21
-17.5105339999999998
0
LINE
8
BLACK
6
CONTINUOUS
10
93.4612860000000012
20
-8.1189470000000004
11
93.8123399999999918
21
-7.7678929999999999
0
LINE
8
BLACK
6
CONTINUOUS
10
91.6283249999999896
20
-8.2023209999999995
11
92.0869989999999916
21
-8.3923100000000002
0
LINE
8
BLACK
6
CONTINUOUS
10
98.3400919999999985
20
-16.9492659999999979
11
97.8478739999999902
21
-17.0140679999999982
0
LINE
8
BLACK
6
CONTINUOUS
10
92.7651839999999908
20
-8.2105909999999991
11
93.0674130000000019
21
-7.8167179999999998
0
LINE
8
BLACK
6
CONTINUOUS
10
92.0869989999999916
20
-8.3923100000000002
11
92.3352319999999906
21
-7.962358
0
LINE
8
BLACK
6
CONTINUOUS
10
90.2732719999999915
20
-9.4394659999999995
11
90.3380729999999943
21
-8.9472469999999991
0
ARC
8
BLACK
10
93.8123739999999913
20
-13.475028
40
2.9999746686692204
50
-173.80365156
51
-96.19853359
0
LINE
8
BLACK
6
CONTINUOUS
10
98.2752899999999983
20
-16.4570480000000003
11
98.3400919999999985
21
-16.9492659999999979
0
LINE
8
BLACK
6
CONTINUOUS
10
98.2752899999999983
20
-10.4929519999999989
11
98.7548389999999898
21
-10.6214459999999988
0
LINE
8
BLACK
6
CONTINUOUS
10
93.8123399999999918
20
-7.7678929999999999
11
94.1633939999999967
21
-8.1189470000000004
0
LINE
8
BLACK
6
CONTINUOUS
10
97.2866059999999919
20
-8.9472469999999991
11
97.3514079999999922
21
-9.4394659999999995
0
LINE
8
BLACK
6
CONTINUOUS
10
92.3352319999999906
20
-7.962358
11
92.7651839999999908
21
-8.2105909999999991
0
LINE
8
BLACK
6
CONTINUOUS
10
96.470918999999995
20
-13.4749999999999996
11
96.7948030000000017
21
-13.7988839999999993
0
LINE
8
BLACK
6
CONTINUOUS
10
99.0767489999999924
20
-12.4278439999999986
11
99.4706219999999917
21
-12.7300729999999991
0
LINE
8
BLACK
6
CONTINUOUS
10
98.6263450000000006
20
-11.1009949999999993
11
99.0850190000000026
21
-11.2909839999999999
0
LINE
8
BLACK
6
CONTINUOUS
10
77.5018869999999964
20
-3.8068579999999996
11
77.3574720000000013
21
-3.2678929999999999
0
LINE
8
BLACK
6
CONTINUOUS
10
77.8964369999999917
20
-9.8265219999999989
11
77.3574720000000013
21
-9.6821059999999992
0
LINE
8
BLACK
6
CONTINUOUS
10
79.7052369999999968
20
-12.029871
11
79.5608220000000017
21
-11.490907
0
LINE
8
BLACK
6
CONTINUOUS
10
77.8236059999999981
20
-10.3797249999999988
11
77.8964369999999917
21
-9.8265219999999989
0
LINE
8
BLACK
6
CONTINUOUS
10
79.5608220000000017
20
-11.490907
11
79.0076179999999937
21
-11.5637369999999997
0
LINE
8
BLACK
6
CONTINUOUS
10
77.8964369999999917
20
-3.123478
11
77.8236059999999981
21
-2.5702739999999999
0
LINE
8
BLACK
6
CONTINUOUS
10
82.5709229999999934
20
-5.
11
80.2999999999999972
21
-5.
0
LINE
8
BLACK
6
CONTINUOUS
10
77.1999119999999976
20
-4.5358900000000002
11
76.9863830000000036
21
-4.0203860000000002
0
LINE
8
BLACK
6
CONTINUOUS
10
77.3574720000000013
20
-3.2678929999999999
11
77.8964369999999917
21
-3.123478
0
LINE
8
BLACK
6
CONTINUOUS
10
79.0076179999999937
20
-11.5637369999999997
11
78.9347879999999975
21
-11.0105329999999988
0
LINE
8
BLACK
6
CONTINUOUS
10
82.517793999999995
20
-12.4946640000000002
11
82.0751209999999958
21
-12.8343389999999999
0
LINE
8
BLACK
6
CONTINUOUS
10
82.0751209999999958
20
-12.8343389999999999
11
81.735445999999996
21
-12.3916649999999997
0
LINE
8
BLACK
6
CONTINUOUS
10
81.2522230000000008
20
-12.670653999999999
11
80.9732350000000025
21
-12.1874310000000001
0
LINE
8
BLACK
6
CONTINUOUS
10
76.9863830000000036
20
-4.0203860000000002
11
77.5018869999999964
21
-3.8068579999999996
0
LINE
8
BLACK
6
CONTINUOUS
10
76.8926799999999986
20
-6.8695490000000001
11
76.4981300000000033
21
-6.4749999999999996
0
LINE
8
BLACK
6
CONTINUOUS
10
76.9863830000000036
20
-8.9296129999999998
11
77.1999119999999976
21
-8.4141089999999998
0
LINE
8
BLACK
6
CONTINUOUS
10
77.3574720000000013
20
-9.6821059999999992
11
77.5018869999999964
21
-9.1431419999999992
0
LINE
8
BLACK
6
CONTINUOUS
10
80.4577309999999954
20
-12.4009599999999995
11
80.2442020000000014
21
-11.8854559999999996
0
LINE
8
BLACK
6
CONTINUOUS
10
76.9956779999999981
20
-7.6518980000000001
11
76.5530049999999989
21
-7.3122219999999993
0
LINE
8
BLACK
6
CONTINUOUS
10
83.2537650000000014
20
-5.
11
85.5246929999999992
21
-5.
0
LINE
8
BLACK
6
CONTINUOUS
10
76.8926799999999986
20
-6.0804499999999999
11
76.5530049999999989
21
-5.6377769999999998
0
LINE
8
BLACK
6
CONTINUOUS
10
76.5530049999999989
20
-7.3122219999999993
11
76.8926799999999986
21
-6.8695490000000001
0
LINE
8
BLACK
6
CONTINUOUS
10
78.9347879999999975
20
-11.0105329999999988
11
78.3768099999999919
21
-11.0105329999999988
0
LINE
8
BLACK
6
CONTINUOUS
10
80.2442020000000014
20
-11.8854559999999996
11
79.7052369999999968
21
-12.029871
0
LINE
8
BLACK
6
CONTINUOUS
10
78.3768099999999919
20
-10.4525559999999995
11
77.8236059999999981
21
-10.3797249999999988
0
LINE
8
BLACK
6
CONTINUOUS
10
78.3768099999999919
20
-1.9394659999999999
11
78.9347879999999975
21
-1.9394659999999999
0
LINE
8
BLACK
6
CONTINUOUS
10
76.4981300000000033
20
-6.4749999999999996
11
76.8926799999999986
21
-6.0804499999999999
0
LINE
8
BLACK
6
CONTINUOUS
10
77.1999119999999976
20
-8.4141089999999998
11
76.7166890000000024
21
-8.1351199999999988
0
LINE
8
BLACK
6
CONTINUOUS
10
80.9732350000000025
20
-12.1874310000000001
11
80.4577309999999954
21
-12.4009599999999995
0
LINE
8
BLACK
6
CONTINUOUS
10
78.3768099999999919
20
-2.4974430000000001
11
78.3768099999999919
21
-1.9394659999999999
0
LINE
8
BLACK
6
CONTINUOUS
10
76.7166890000000024
20
-4.8148789999999995
11
77.1999119999999976
21
-4.5358900000000002
0
LINE
8
BLACK
6
CONTINUOUS
10
76.9956779999999981
20
-5.2981020000000001
11
76.7166890000000024
21
-4.8148789999999995
0
LINE
8
BLACK
6
CONTINUOUS
10
81.735445999999996
20
-12.3916649999999997
11
81.2522230000000008
21
-12.670653999999999
0
LINE
8
BLACK
6
CONTINUOUS
10
76.7166890000000024
20
-8.1351199999999988
11
76.9956779999999981
21
-7.6518980000000001
0
LINE
8
BLACK
6
CONTINUOUS
10
76.5530049999999989
20
-5.6377769999999998
11
76.9956779999999981
21
-5.2981020000000001
0
LINE
8
BLACK
6
CONTINUOUS
10
77.5018869999999964
20
-9.1431419999999992
11
76.9863830000000036
21
-8.9296129999999998
0
LINE
8
BLACK
6
CONTINUOUS
10
78.3768099999999919
20
-11.0105329999999988
11
78.3768099999999919
21
-10.4525559999999995
0
LINE
8
BLACK
6
CONTINUOUS
10
82.5709229999999934
20
-5.
11
83.2537650000000014
21
-5.
0
LINE
8
BLACK
6
CONTINUOUS
10
77.8236059999999981
20
-2.5702739999999999
11
78.3768099999999919
21
-2.4974430000000001
0
LINE
8
BLACK
6
CONTINUOUS
10
84.0892419999999987
20
-12.3916649999999997
11
83.749566999999999
21
-12.8343389999999999
0
LINE
8
BLACK
6
CONTINUOUS
10
84.572464999999994
20
-12.670653999999999
11
84.0892419999999987
21
-12.3916649999999997
0
LINE
8
BLACK
6
CONTINUOUS
10
84.8514529999999922
20
-12.1874310000000001
11
84.572464999999994
21
-12.670653999999999
0
LINE
8
BLACK
6
CONTINUOUS
10
85.3669569999999993
20
-12.4009599999999995
11
84.8514529999999922
21
-12.1874310000000001
0
LINE
8
BLACK
6
CONTINUOUS
10
85.5804859999999934
20
-11.8854559999999996
11
85.3669569999999993
21
-12.4009599999999995
0
LINE
8
BLACK
6
CONTINUOUS
10
86.119450999999998
20
-12.029871
11
85.5804859999999934
21
-11.8854559999999996
0
LINE
8
BLACK
6
CONTINUOUS
10
86.2638659999999931
20
-11.490907
11
86.119450999999998
21
-12.029871
0
LINE
8
BLACK
6
CONTINUOUS
10
86.8170700000000011
20
-11.5637369999999997
11
86.2638659999999931
21
-11.490907
0
LINE
8
BLACK
6
CONTINUOUS
10
86.8898999999999972
20
-11.0105329999999988
11
86.8170700000000011
21
-11.5637369999999997
0
LINE
8
BLACK
6
CONTINUOUS
10
87.4478780000000029
20
-11.0105329999999988
11
86.8898999999999972
21
-11.0105329999999988
0
LINE
8
BLACK
6
CONTINUOUS
10
88.8383049999999912
20
-8.9296129999999998
11
88.3228009999999983
21
-9.1431419999999992
0
LINE
8
BLACK
6
CONTINUOUS
10
89.1079989999999924
20
-4.8148789999999995
11
88.8290099999999967
21
-5.2981020000000001
0
LINE
8
BLACK
6
CONTINUOUS
10
83.3068939999999998
20
-0.455336
11
83.749566999999999
21
-0.11566
0
LINE
8
BLACK
6
CONTINUOUS
10
87.4478780000000029
20
-10.4525559999999995
11
87.4478780000000029
21
-11.0105329999999988
0
LINE
8
BLACK
6
CONTINUOUS
10
88.4672159999999934
20
-9.6821059999999992
11
87.928251000000003
21
-9.8265219999999989
0
LINE
8
BLACK
6
CONTINUOUS
10
89.1079989999999924
20
-8.1351199999999988
11
88.6247759999999971
21
-8.4141089999999998
0
LINE
8
BLACK
6
CONTINUOUS
10
88.8290099999999967
20
-5.2981020000000001
11
89.2716829999999959
21
-5.6377769999999998
0
LINE
8
BLACK
6
CONTINUOUS
10
88.8290099999999967
20
-7.6518980000000001
11
89.1079989999999924
21
-8.1351199999999988
0
LINE
8
BLACK
6
CONTINUOUS
10
81.735445999999996
20
-0.558334
11
82.0751209999999958
21
-0.11566
0
LINE
8
BLACK
6
CONTINUOUS
10
89.3265579999999915
20
-6.4749999999999996
11
88.9320079999999962
21
-6.8695490000000001
0
LINE
8
BLACK
6
CONTINUOUS
10
88.0010819999999967
20
-10.3797249999999988
11
87.4478780000000029
21
-10.4525559999999995
0
LINE
8
BLACK
6
CONTINUOUS
10
85.5804859999999934
20
-1.064543
11
86.119450999999998
21
-0.9201279999999999
0
LINE
8
BLACK
6
CONTINUOUS
10
80.2442020000000014
20
-1.064543
11
80.4577309999999954
21
-0.5490389999999999
0
LINE
8
BLACK
6
CONTINUOUS
10
88.9320079999999962
20
-6.0804499999999999
11
89.3265579999999915
21
-6.4749999999999996
0
LINE
8
BLACK
6
CONTINUOUS
10
88.3228009999999983
20
-9.1431419999999992
11
88.4672159999999934
21
-9.6821059999999992
0
LINE
8
BLACK
6
CONTINUOUS
10
83.749566999999999
20
-0.11566
11
84.0892419999999987
21
-0.558334
0
LINE
8
BLACK
6
CONTINUOUS
10
79.0076179999999937
20
-1.3862619999999999
11
79.5608220000000017
21
-1.4590919999999998
0
LINE
8
BLACK
6
CONTINUOUS
10
88.6247759999999971
20
-8.4141089999999998
11
88.8383049999999912
21
-8.9296129999999998
0
LINE
8
BLACK
6
CONTINUOUS
10
93.8123399999999918
20
-16.133578
11
93.4884550000000019
21
-16.4574639999999981
0
LINE
8
BLACK
6
CONTINUOUS
10
80.4577309999999954
20
-0.5490389999999999
11
80.9732350000000025
21
-0.7625679999999999
0
LINE
8
BLACK
6
CONTINUOUS
10
88.9320079999999962
20
-6.8695490000000001
11
89.2716829999999959
21
-7.3122219999999993
0
LINE
8
BLACK
6
CONTINUOUS
10
89.2716829999999959
20
-5.6377769999999998
11
88.9320079999999962
21
-6.0804499999999999
0
LINE
8
BLACK
6
CONTINUOUS
10
80.9732350000000025
20
-0.7625679999999999
11
81.2522230000000008
21
-0.279345
0
LINE
8
BLACK
6
CONTINUOUS
10
86.119450999999998
20
-0.9201279999999999
11
86.2638659999999931
21
-1.4590919999999998
0
LINE
8
BLACK
6
CONTINUOUS
10
87.4478780000000029
20
-1.9394659999999999
11
87.4478780000000029
21
-2.4974430000000001
0
LINE
8
BLACK
6
CONTINUOUS
10
88.8383049999999912
20
-4.0203860000000002
11
88.6247759999999971
21
-4.5358900000000002
0
LINE
8
BLACK
6
CONTINUOUS
10
87.928251000000003
20
-3.123478
11
88.4672159999999934
21
-3.2678929999999999
0
LINE
8
BLACK
6
CONTINUOUS
10
88.4672159999999934
20
-3.2678929999999999
11
88.3228009999999983
21
-3.8068579999999996
0
LINE
8
BLACK
6
CONTINUOUS
10
88.3228009999999983
20
-3.8068579999999996
11
88.8383049999999912
21
-4.0203860000000002
0
LINE
8
BLACK
6
CONTINUOUS
10
86.8170700000000011
20
-1.3862619999999999
11
86.8898999999999972
21
-1.9394659999999999
0
LINE
8
BLACK
6
CONTINUOUS
10
82.9123439999999903
20
-0.060786
11
83.3068939999999998
21
-0.455336
0
LINE
8
BLACK
6
CONTINUOUS
10
79.5608220000000017
20
-1.4590919999999998
11
79.7052369999999968
21
-0.9201279999999999
0
LINE
8
BLACK
6
CONTINUOUS
10
86.8898999999999972
20
-1.9394659999999999
11
87.4478780000000029
21
-1.9394659999999999
0
LINE
8
BLACK
6
CONTINUOUS
10
84.8514529999999922
20
-0.7625679999999999
11
85.3669569999999993
21
-0.5490389999999999
0
LINE
8
BLACK
6
CONTINUOUS
10
78.9347879999999975
20
-1.9394659999999999
11
79.0076179999999937
21
-1.3862619999999999
0
LINE
8
BLACK
6
CONTINUOUS
10
85.3669569999999993
20
-0.5490389999999999
11
85.5804859999999934
21
-1.064543
0
LINE
8
BLACK
6
CONTINUOUS
10
84.572464999999994
20
-0.279345
11
84.8514529999999922
21
-0.7625679999999999
0
LINE
8
BLACK
6
CONTINUOUS
10
82.517793999999995
20
-0.455336
11
82.9123439999999903
21
-0.060786
0
LINE
8
BLACK
6
CONTINUOUS
10
79.7052369999999968
20
-0.9201279999999999
11
80.2442020000000014
21
-1.064543
0
LINE
8
BLACK
6
CONTINUOUS
10
89.2716829999999959
20
-7.3122219999999993
11
88.8290099999999967
21
-7.6518980000000001
0
LINE
8
BLACK
6
CONTINUOUS
10
86.2638659999999931
20
-1.4590919999999998
11
86.8170700000000011
21
-1.3862619999999999
0
LINE
8
BLACK
6
CONTINUOUS
10
88.6247759999999971
20
-4.5358900000000002
11
89.1079989999999924
21
-4.8148789999999995
0
LINE
8
BLACK
6
CONTINUOUS
10
88.0010819999999967
20
-2.5702739999999999
11
87.928251000000003
21
-3.123478
0
LINE
8
BLACK
6
CONTINUOUS
10
84.0892419999999987
20
-0.558334
11
84.572464999999994
21
-0.279345
0
LINE
8
BLACK
6
CONTINUOUS
10
81.2522230000000008
20
-0.279345
11
81.735445999999996
21
-0.558334
0
LINE
8
BLACK
6
CONTINUOUS
10
82.0751209999999958
20
-0.11566
11
82.517793999999995
21
-0.455336
0
LINE
8
BLACK
6
CONTINUOUS
10
87.4478780000000029
20
-2.4974430000000001
11
88.0010819999999967
21
-2.5702739999999999
0
LINE
8
BLACK
6
CONTINUOUS
10
87.928251000000003
20
-9.8265219999999989
11
88.0010819999999967
21
-10.3797249999999988
0
LINE
8
BLACK
6
CONTINUOUS
10
82.9123439999999903
20
-12.8892129999999998
11
82.517793999999995
21
-12.4946640000000002
0
LINE
8
BLACK
6
CONTINUOUS
10
83.3068939999999998
20
-12.4946640000000002
11
82.9123439999999903
21
-12.8892129999999998
0
LINE
8
BLACK
6
CONTINUOUS
10
83.749566999999999
20
-12.8343389999999999
11
83.3068939999999998
21
-12.4946640000000002
0
LINE
8
BLACK
6
CONTINUOUS
10
83.749566999999999
20
-90.8343389999999999
11
83.3068939999999998
21
-90.4946640000000002
0
LINE
8
BLACK
6
CONTINUOUS
10
83.3068939999999998
20
-90.4946640000000002
11
82.9123439999999903
21
-90.889212999999998
0
LINE
8
BLACK
6
CONTINUOUS
10
82.9123439999999903
20
-90.889212999999998
11
82.517793999999995
21
-90.4946640000000002
0
LINE
8
BLACK
6
CONTINUOUS
10
87.928251000000003
20
-87.8265219999999971
11
88.0010819999999967
21
-88.3797249999999934
0
LINE
8
BLACK
6
CONTINUOUS
10
87.4478780000000029
20
-80.4974429999999899
11
88.0010819999999967
21
-80.5702739999999977
0
LINE
8
BLACK
6
CONTINUOUS
10
82.0751209999999958
20
-78.1156599999999912
11
82.517793999999995
21
-78.4553360000000026
0
LINE
8
BLACK
6
CONTINUOUS
10
81.2522230000000008
20
-78.2793449999999922
11
81.735445999999996
21
-78.5583340000000021
0
LINE
8
BLACK
6
CONTINUOUS
10
84.0892419999999987
20
-78.5583340000000021
11
84.572464999999994
21
-78.2793449999999922
0
LINE
8
BLACK
6
CONTINUOUS
10
88.0010819999999967
20
-80.5702739999999977
11
87.928251000000003
21
-81.1234779999999915
0
LINE
8
BLACK
6
CONTINUOUS
10
88.6247759999999971
20
-82.5358899999999949
11
89.1079989999999924
21
-82.8148789999999906
0
LINE
8
BLACK
6
CONTINUOUS
10
86.2638659999999931
20
-79.4590919999999983
11
86.8170700000000011
21
-79.3862620000000021
0
LINE
8
BLACK
6
CONTINUOUS
10
89.2716829999999959
20
-85.3122219999999913
11
88.8290099999999967
21
-85.6518980000000028
0
LINE
8
BLACK
6
CONTINUOUS
10
79.7052369999999968
20
-78.9201279999999912
11
80.2442020000000014
21
-79.0645430000000005
0
LINE
8
BLACK
6
CONTINUOUS
10
82.517793999999995
20
-78.4553360000000026
11
82.9123439999999903
21
-78.0607859999999931
0
LINE
8
BLACK
6
CONTINUOUS
10
84.572464999999994
20
-78.2793449999999922
11
84.8514529999999922
21
-78.7625680000000017
0
LINE
8
BLACK
6
CONTINUOUS
10
85.3669569999999993
20
-78.5490389999999934
11
85.5804859999999934
21
-79.0645430000000005
0
LINE
8
BLACK
6
CONTINUOUS
10
78.9347879999999975
20
-79.9394659999999959
11
79.0076179999999937
21
-79.3862620000000021
0
LINE
8
BLACK
6
CONTINUOUS
10
84.8514529999999922
20
-78.7625680000000017
11
85.3669569999999993
21
-78.5490389999999934
0
LINE
8
BLACK
6
CONTINUOUS
10
86.8898999999999972
20
-79.9394659999999959
11
87.4478780000000029
21
-79.9394659999999959
0
LINE
8
BLACK
6
CONTINUOUS
10
79.5608220000000017
20
-79.4590919999999983
11
79.7052369999999968
21
-78.9201279999999912
0
LINE
8
BLACK
6
CONTINUOUS
10
82.9123439999999903
20
-78.0607859999999931
11
83.3068939999999998
21
-78.4553360000000026
0
LINE
8
BLACK
6
CONTINUOUS
10
86.8170700000000011
20
-79.3862620000000021
11
86.8898999999999972
21
-79.9394659999999959
0
LINE
8
BLACK
6
CONTINUOUS
10
88.3228009999999983
20
-81.8068579999999912
11
88.8383049999999912
21
-82.020386000000002
0
LINE
8
BLACK
6
CONTINUOUS
10
88.4672159999999934
20
-81.2678930000000008
11
88.3228009999999983
21
-81.8068579999999912
0
LINE
8
BLACK
6
CONTINUOUS
10
87.928251000000003
20
-81.1234779999999915
11
88.4672159999999934
21
-81.2678930000000008
0
LINE
8
BLACK
6
CONTINUOUS
10
88.8383049999999912
20
-82.020386000000002
11
88.6247759999999971
21
-82.5358899999999949
0
LINE
8
BLACK
6
CONTINUOUS
10
87.4478780000000029
20
-79.9394659999999959
11
87.4478780000000029
21
-80.4974429999999899
0
LINE
8
BLACK
6
CONTINUOUS
10
86.119450999999998
20
-78.9201279999999912
11
86.2638659999999931
21
-79.4590919999999983
0
LINE
8
BLACK
6
CONTINUOUS
10
80.9732350000000025
20
-78.7625680000000017
11
81.2522230000000008
21
-78.2793449999999922
0
LINE
8
BLACK
6
CONTINUOUS
10
89.2716829999999959
20
-83.6377769999999998
11
88.9320079999999962
21
-84.080449999999999
0
LINE
8
BLACK
6
CONTINUOUS
10
88.9320079999999962
20
-84.8695489999999921
11
89.2716829999999959
21
-85.3122219999999913
0
LINE
8
BLACK
6
CONTINUOUS
10
80.4577309999999954
20
-78.5490389999999934
11
80.9732350000000025
21
-78.7625680000000017
0
LINE
8
BLACK
6
CONTINUOUS
10
93.8123399999999918
20
-94.133578
11
93.4884550000000019
21
-94.4574640000000016
0
LINE
8
BLACK
6
CONTINUOUS
10
88.6247759999999971
20
-86.4141089999999963
11
88.8383049999999912
21
-86.9296129999999891
0
LINE
8
BLACK
6
CONTINUOUS
10
79.0076179999999937
20
-79.3862620000000021
11
79.5608220000000017
21
-79.4590919999999983
0
LINE
8
BLACK
6
CONTINUOUS
10
83.749566999999999
20
-78.1156599999999912
11
84.0892419999999987
21
-78.5583340000000021
0
LINE
8
BLACK
6
CONTINUOUS
10
88.3228009999999983
20
-87.1431419999999974
11
88.4672159999999934
21
-87.6821059999999903
0
LINE
8
BLACK
6
CONTINUOUS
10
88.9320079999999962
20
-84.080449999999999
11
89.3265579999999915
21
-84.4749999999999943
0
LINE
8
BLACK
6
CONTINUOUS
10
80.2442020000000014
20
-79.0645430000000005
11
80.4577309999999954
21
-78.5490389999999934
0
LINE
8
BLACK
6
CONTINUOUS
10
85.5804859999999934
20
-79.0645430000000005
11
86.119450999999998
21
-78.9201279999999912
0
LINE
8
BLACK
6
CONTINUOUS
10
88.0010819999999967
20
-88.3797249999999934
11
87.4478780000000029
21
-88.4525560000000013
0
LINE
8
BLACK
6
CONTINUOUS
10
89.3265579999999915
20
-84.4749999999999943
11
88.9320079999999962
21
-84.8695489999999921
0
LINE
8
BLACK
6
CONTINUOUS
10
81.735445999999996
20
-78.5583340000000021
11
82.0751209999999958
21
-78.1156599999999912
0
LINE
8
BLACK
6
CONTINUOUS
10
88.8290099999999967
20
-85.6518980000000028
11
89.1079989999999924
21
-86.1351200000000006
0
LINE
8
BLACK
6
CONTINUOUS
10
88.8290099999999967
20
-83.2981020000000001
11
89.2716829999999959
21
-83.6377769999999998
0
LINE
8
BLACK
6
CONTINUOUS
10
89.1079989999999924
20
-86.1351200000000006
11
88.6247759999999971
21
-86.4141089999999963
0
LINE
8
BLACK
6
CONTINUOUS
10
88.4672159999999934
20
-87.6821059999999903
11
87.928251000000003
21
-87.8265219999999971
0
LINE
8
BLACK
6
CONTINUOUS
10
87.4478780000000029
20
-88.4525560000000013
11
87.4478780000000029
21
-89.0105329999999952
0
LINE
8
BLACK
6
CONTINUOUS
10
83.3068939999999998
20
-78.4553360000000026
11
83.749566999999999
21
-78.1156599999999912
0
LINE
8
BLACK
6
CONTINUOUS
10
89.1079989999999924
20
-82.8148789999999906
11
88.8290099999999967
21
-83.2981020000000001
0
LINE
8
BLACK
6
CONTINUOUS
10
88.8383049999999912
20
-86.9296129999999891
11
88.3228009999999983
21
-87.1431419999999974
0
LINE
8
BLACK
6
CONTINUOUS
10
87.4478780000000029
20
-89.0105329999999952
11
86.8898999999999972
21
-89.0105329999999952
0
LINE
8
BLACK
6
CONTINUOUS
10
86.8898999999999972
20
-89.0105329999999952
11
86.8170700000000011
21
-89.5637369999999891
0
LINE
8
BLACK
6
CONTINUOUS
10
86.8170700000000011
20
-89.5637369999999891
11
86.2638659999999931
21
-89.4909069999999929
0
LINE
8
BLACK
6
CONTINUOUS
10
86.2638659999999931
20
-89.4909069999999929
11
86.119450999999998
21
-90.029871
0
LINE
8
BLACK
6
CONTINUOUS
10
86.119450999999998
20
-90.029871
11
85.5804859999999934
21
-89.8854559999999907
0
LINE
8
BLACK
6
CONTINUOUS
10
85.5804859999999934
20
-89.8854559999999907
11
85.3669569999999993
21
-90.4009599999999978
0
LINE
8
BLACK
6
CONTINUOUS
10
85.3669569999999993
20
-90.4009599999999978
11
84.8514529999999922
21
-90.1874309999999895
0
LINE
8
BLACK
6
CONTINUOUS
10
84.8514529999999922
20
-90.1874309999999895
11
84.572464999999994
21
-90.670653999999999
0
LINE
8
BLACK
6
CONTINUOUS
10
84.572464999999994
20
-90.670653999999999
11
84.0892419999999987
21
-90.391664999999989
0
LINE
8
BLACK
6
CONTINUOUS
10
84.0892419999999987
20
-90.391664999999989
11
83.749566999999999
21
-90.8343389999999999
0
LINE
8
BLACK
6
CONTINUOUS
10
77.8236059999999981
20
-80.5702739999999977
11
78.3768099999999919
21
-80.4974429999999899
0
LINE
8
BLACK
6
CONTINUOUS
10
82.5709229999999934
20
-83.
11
83.2537650000000014
21
-83.
0
LINE
8
BLACK
6
CONTINUOUS
10
78.3768099999999919
20
-89.0105329999999952
11
78.3768099999999919
21
-88.4525560000000013
0
LINE
8
BLACK
6
CONTINUOUS
10
77.5018869999999964
20
-87.1431419999999974
11
76.9863830000000036
21
-86.9296129999999891
0
LINE
8
BLACK
6
CONTINUOUS
10
76.5530049999999989
20
-83.6377769999999998
11
76.9956779999999981
21
-83.2981020000000001
0
LINE
8
BLACK
6
CONTINUOUS
10
76.7166890000000024
20
-86.1351200000000006
11
76.9956779999999981
21
-85.6518980000000028
0
LINE
8
BLACK
6
CONTINUOUS
10
81.735445999999996
20
-90.391664999999989
11
81.2522230000000008
21
-90.670653999999999
0
LINE
8
BLACK
6
CONTINUOUS
10
76.9956779999999981
20
-83.2981020000000001
11
76.7166890000000024
21
-82.8148789999999906
0
LINE
8
BLACK
6
CONTINUOUS
10
76.7166890000000024
20
-82.8148789999999906
11
77.1999119999999976
21
-82.5358899999999949
0
LINE
8
BLACK
6
CONTINUOUS
10
78.3768099999999919
20
-80.4974429999999899
11
78.3768099999999919
21
-79.9394659999999959
0
LINE
8
BLACK
6
CONTINUOUS
10
80.9732350000000025
20
-90.1874309999999895
11
80.4577309999999954
21
-90.4009599999999978
0
LINE
8
BLACK
6
CONTINUOUS
10
77.1999119999999976
20
-86.4141089999999963
11
76.7166890000000024
21
-86.1351200000000006
0
LINE
8
BLACK
6
CONTINUOUS
10
76.4981300000000033
20
-84.4749999999999943
11
76.8926799999999986
21
-84.080449999999999
0
LINE
8
BLACK
6
CONTINUOUS
10
78.3768099999999919
20
-79.9394659999999959
11
78.9347879999999975
21
-79.9394659999999959
0
LINE
8
BLACK
6
CONTINUOUS
10
78.3768099999999919
20
-88.4525560000000013
11
77.8236059999999981
21
-88.3797249999999934
0
LINE
8
BLACK
6
CONTINUOUS
10
80.2442020000000014
20
-89.8854559999999907
11
79.7052369999999968
21
-90.029871
0
LINE
8
BLACK
6
CONTINUOUS
10
78.9347879999999975
20
-89.0105329999999952
11
78.3768099999999919
21
-89.0105329999999952
0
LINE
8
BLACK
6
CONTINUOUS
10
76.5530049999999989
20
-85.3122219999999913
11
76.8926799999999986
21
-84.8695489999999921
0
LINE
8
BLACK
6
CONTINUOUS
10
76.8926799999999986
20
-84.080449999999999
11
76.5530049999999989
21
-83.6377769999999998
0
LINE
8
BLACK
6
CONTINUOUS
10
83.2537650000000014
20
-83.
11
85.5246929999999992
21
-83.
0
LINE
8
BLACK
6
CONTINUOUS
10
76.9956779999999981
20
-85.6518980000000028
11
76.5530049999999989
21
-85.3122219999999913
0
LINE
8
BLACK
6
CONTINUOUS
10
80.4577309999999954
20
-90.4009599999999978
11
80.2442020000000014
21
-89.8854559999999907
0
LINE
8
BLACK
6
CONTINUOUS
10
77.3574720000000013
20
-87.6821059999999903
11
77.5018869999999964
21
-87.1431419999999974
0
LINE
8
BLACK
6
CONTINUOUS
10
76.9863830000000036
20
-86.9296129999999891
11
77.1999119999999976
21
-86.4141089999999963
0
LINE
8
BLACK
6
CONTINUOUS
10
76.8926799999999986
20
-84.8695489999999921
11
76.4981300000000033
21
-84.4749999999999943
0
LINE
8
BLACK
6
CONTINUOUS
10
76.9863830000000036
20
-82.020386000000002
11
77.5018869999999964
21
-81.8068579999999912
0
LINE
8
BLACK
6
CONTINUOUS
10
81.2522230000000008
20
-90.670653999999999
11
80.9732350000000025
21
-90.1874309999999895
0
LINE
8
BLACK
6
CONTINUOUS
10
82.0751209999999958
20
-90.8343389999999999
11
81.735445999999996
21
-90.391664999999989
0
LINE
8
BLACK
6
CONTINUOUS
10
82.517793999999995
20
-90.4946640000000002
11
82.0751209999999958
21
-90.8343389999999999
0
LINE
8
BLACK
6
CONTINUOUS
10
79.0076179999999937
20
-89.5637369999999891
11
78.9347879999999975
21
-89.0105329999999952
0
LINE
8
BLACK
6
CONTINUOUS
10
77.3574720000000013
20
-81.2678930000000008
11
77.8964369999999917
21
-81.1234779999999915
0
LINE
8
BLACK
6
CONTINUOUS
10
77.1999119999999976
20
-82.5358899999999949
11
76.9863830000000036
21
-82.020386000000002
0
LINE
8
BLACK
6
CONTINUOUS
10
82.5709229999999934
20
-83.
11
80.2999999999999972
21
-83.
0
LINE
8
BLACK
6
CONTINUOUS
10
77.8964369999999917
20
-81.1234779999999915
11
77.8236059999999981
21
-80.5702739999999977
0
LINE
8
BLACK
6
CONTINUOUS
10
79.5608220000000017
20
-89.4909069999999929
11
79.0076179999999937
21
-89.5637369999999891
0
LINE
8
BLACK
6
CONTINUOUS
10
77.8236059999999981
20
-88.3797249999999934
11
77.8964369999999917
21
-87.8265219999999971
0
LINE
8
BLACK
6
CONTINUOUS
10
79.7052369999999968
20
-90.029871
11
79.5608220000000017
21
-89.4909069999999929
0
LINE
8
BLACK
6
CONTINUOUS
10
77.8964369999999917
20
-87.8265219999999971
11
77.3574720000000013
21
-87.6821059999999903
0
LINE
8
BLACK
6
CONTINUOUS
10
77.5018869999999964
20
-81.8068579999999912
11
77.3574720000000013
21
-81.2678930000000008
0
LINE
8
BLACK
6
CONTINUOUS
10
98.6263450000000006
20
-89.1009949999999975
11
99.0850190000000026
21
-89.2909839999999946
0
LINE
8
BLACK
6
CONTINUOUS
10
99.0767489999999924
20
-90.4278439999999932
11
99.4706219999999917
21
-90.7300729999999902
0
LINE
8
BLACK
6
CONTINUOUS
10
96.470918999999995
20
-91.4749999999999943
11
96.7948030000000017
21
-91.798884000000001
0
LINE
8
BLACK
6
CONTINUOUS
10
92.3352319999999906
20
-85.9623579999999947
11
92.7651839999999908
21
-86.2105909999999938
0
LINE
8
BLACK
6
CONTINUOUS
10
97.2866059999999919
20
-86.9472469999999902
11
97.3514079999999922
21
-87.4394659999999959
0
LINE
8
BLACK
6
CONTINUOUS
10
93.8123399999999918
20
-85.7678930000000008
11
94.1633939999999967
21
-86.1189469999999915
0
LINE
8
BLACK
6
CONTINUOUS
10
98.2752899999999983
20
-88.4929520000000025
11
98.7548389999999898
21
-88.6214459999999917
0
LINE
8
BLACK
6
CONTINUOUS
10
98.2752899999999983
20
-94.4570480000000003
11
98.3400919999999985
21
-94.9492659999999944
0
ARC
8
BLACK
10
93.8123739999999913
20
-91.4750279999999947
40
2.9999746686692204
50
-173.80365156
51
-96.19853359
0
LINE
8
BLACK
6
CONTINUOUS
10
90.2732719999999915
20
-87.4394659999999959
11
90.3380729999999943
21
-86.9472469999999902
0
LINE
8
BLACK
6
CONTINUOUS
10
92.0869989999999916
20
-86.3923099999999948
11
92.3352319999999906
21
-85.9623579999999947
0
LINE
8
BLACK
6
CONTINUOUS
10
92.7651839999999908
20
-86.2105909999999938
11
93.0674130000000019
21
-85.8167179999999945
0
LINE
8
BLACK
6
CONTINUOUS
10
98.3400919999999985
20
-94.9492659999999944
11
97.8478739999999902
21
-95.0140679999999946
0
LINE
8
BLACK
6
CONTINUOUS
10
91.6283249999999896
20
-86.2023209999999978
11
92.0869989999999916
21
-86.3923099999999948
0
LINE
8
BLACK
6
CONTINUOUS
10
93.4612860000000012
20
-86.1189469999999915
11
93.8123399999999918
21
-85.7678930000000008
0
LINE
8
BLACK
6
CONTINUOUS
10
97.8478739999999902
20
-95.0140679999999946
11
97.8478739999999902
21
-95.5105339999999927
0
LINE
8
BLACK
6
CONTINUOUS
10
90.9587859999999893
20
-86.5324999999999989
11
91.438334999999995
21
-86.6609949999999998
0
LINE
8
BLACK
6
CONTINUOUS
10
97.8478739999999902
20
-87.4394659999999959
11
97.8478739999999902
21
-87.9359309999999965
0
LINE
8
BLACK
6
CONTINUOUS
10
98.7548389999999898
20
-88.6214459999999917
11
98.6263450000000006
21
-89.1009949999999975
0
LINE
8
BLACK
6
CONTINUOUS
10
98.8950299999999913
20
-93.2003399999999971
11
99.0850190000000026
21
-93.6590149999999966
0
LINE
8
BLACK
6
CONTINUOUS
10
98.6263450000000006
20
-93.8490039999999937
11
98.7548389999999898
21
-94.3285529999999994
0
LINE
8
BLACK
6
CONTINUOUS
10
97.8478739999999902
20
-95.5105339999999927
11
97.3514079999999922
21
-95.5105339999999927
0
LINE
8
BLACK
6
CONTINUOUS
10
97.8478739999999902
20
-87.9359309999999965
11
98.3400919999999985
21
-88.0007329999999968
0
ARC
8
BLACK
10
93.8124739999999946
20
-91.4750279999999947
40
3.0001351817876474
50
150.55050852
51
173.80189539
0
LINE
8
BLACK
6
CONTINUOUS
10
94.1537609999999887
20
-90.
11
96.4246899999999982
21
-90.
0
LINE
8
BLACK
6
CONTINUOUS
10
93.0674130000000019
20
-85.8167179999999945
11
93.4612860000000012
21
-86.1189469999999915
0
ARC
8
BLACK
10
93.8123739999999913
20
-91.4750279999999947
40
2.9999837473959752
50
6.19869004
51
29.45097510
0
LINE
8
BLACK
6
CONTINUOUS
10
93.470918999999995
20
-90.
11
94.1537609999999887
21
-90.
0
LINE
8
BLACK
6
CONTINUOUS
10
95.5376809999999921
20
-86.3923099999999948
11
95.9963549999999941
21
-86.2023209999999978
0
LINE
8
BLACK
6
CONTINUOUS
10
95.9963549999999941
20
-86.2023209999999978
11
96.1863439999999912
21
-86.6609949999999998
0
LINE
8
BLACK
6
CONTINUOUS
10
99.5194469999999995
20
-91.4749999999999943
11
99.1683919999999972
21
-91.8260539999999992
0
ARC
8
BLACK
10
93.8123739999999913
20
-91.4750279999999947
40
2.9999609078748004
50
-83.80287601
51
-6.19735183
0
LINE
8
BLACK
6
CONTINUOUS
10
99.3249819999999914
20
-92.9521079999999955
11
98.8950299999999913
21
-93.2003399999999971
0
LINE
8
BLACK
6
CONTINUOUS
10
96.7948169999999948
20
-91.1510999999999996
11
96.470918999999995
21
-91.4749999999999943
0
LINE
8
BLACK
6
CONTINUOUS
10
94.1362179999999995
20
-94.4574569999999909
11
93.8123399999999918
21
-94.133578
0
LINE
8
BLACK
6
CONTINUOUS
10
93.470918999999995
20
-90.
11
91.2000000000000028
21
-90.
0
LINE
8
BLACK
6
CONTINUOUS
10
94.8594959999999929
20
-86.2105909999999938
11
95.289447999999993
21
-85.9623579999999947
0
LINE
8
BLACK
6
CONTINUOUS
10
90.830292
20
-87.0120489999999904
11
90.9587859999999893
21
-86.5324999999999989
0
LINE
8
BLACK
6
CONTINUOUS
10
96.1863439999999912
20
-86.6609949999999998
11
96.665892999999997
21
-86.5324999999999989
0
LINE
8
BLACK
6
CONTINUOUS
10
90.3380729999999943
20
-86.9472469999999902
11
90.830292
21
-87.0120489999999904
0
LINE
8
BLACK
6
CONTINUOUS
10
91.438334999999995
20
-86.6609949999999998
11
91.6283249999999896
21
-86.2023209999999978
0
LINE
8
BLACK
6
CONTINUOUS
10
97.3514079999999922
20
-87.4394659999999959
11
97.8478739999999902
21
-87.4394659999999959
0
LINE
8
BLACK
6
CONTINUOUS
10
98.3400919999999985
20
-88.0007329999999968
11
98.2752899999999983
21
-88.4929520000000025
0
LINE
8
BLACK
6
CONTINUOUS
10
99.0850190000000026
20
-89.2909839999999946
11
98.8950299999999913
21
-89.7496589999999941
0
LINE
8
BLACK
6
CONTINUOUS
10
98.8950299999999913
20
-89.7496589999999941
11
99.3249819999999914
21
-89.9978919999999931
0
LINE
8
BLACK
6
CONTINUOUS
10
96.665892999999997
20
-86.5324999999999989
11
96.7943879999999979
21
-87.0120489999999904
0
LINE
8
BLACK
6
CONTINUOUS
10
95.289447999999993
20
-85.9623579999999947
11
95.5376809999999921
21
-86.3923099999999948
0
LINE
8
BLACK
6
CONTINUOUS
10
94.1633939999999967
20
-86.1189469999999915
11
94.557266999999996
21
-85.8167179999999945
0
LINE
8
BLACK
6
CONTINUOUS
10
90.8298759999999987
20
-91.1511139999999926
11
91.1537610000000029
21
-91.4749999999999943
0
LINE
8
BLACK
6
CONTINUOUS
10
94.557266999999996
20
-85.8167179999999945
11
94.8594959999999929
21
-86.2105909999999938
0
LINE
8
BLACK
6
CONTINUOUS
10
91.1537610000000029
20
-91.4749999999999943
11
90.8299279999999953
21
-91.7988330000000019
0
LINE
8
BLACK
6
CONTINUOUS
10
96.7943879999999979
20
-87.0120489999999904
11
97.2866059999999919
21
-86.9472469999999902
0
LINE
8
BLACK
6
CONTINUOUS
10
99.3249819999999914
20
-89.9978919999999931
11
99.0767489999999924
21
-90.4278439999999932
0
LINE
8
BLACK
6
CONTINUOUS
10
99.1683919999999972
20
-91.123944999999992
11
99.5194469999999995
21
-91.4749999999999943
0
LINE
8
BLACK
6
CONTINUOUS
10
99.1683919999999972
20
-91.8260539999999992
11
99.4706219999999917
21
-92.2199269999999984
0
LINE
8
BLACK
6
CONTINUOUS
10
99.4706219999999917
20
-90.7300729999999902
11
99.1683919999999972
21
-91.123944999999992
0
LINE
8
BLACK
6
CONTINUOUS
10
99.4706219999999917
20
-92.2199269999999984
11
99.0767489999999924
21
-92.5221559999999954
0
LINE
8
BLACK
6
CONTINUOUS
10
99.0767489999999924
20
-92.5221559999999954
11
99.3249819999999914
21
-92.9521079999999955
0
LINE
8
BLACK
6
CONTINUOUS
10
99.0850190000000026
20
-93.6590149999999966
11
98.6263450000000006
21
-93.8490039999999937
0
LINE
8
BLACK
6
CONTINUOUS
10
98.7548389999999898
20
-94.3285529999999994
11
98.2752899999999983
21
-94.4570480000000003
0
LINE
8
BLACK
6
CONTINUOUS
10
88.1052329999999984
20
-91.4749999999999943
11
88.456286999999989
21
-91.123944999999992
0
LINE
8
BLACK
6
CONTINUOUS
10
82.9123439999999903
20
-87.2749999999999915
11
83.1060700000000026
21
-87.4687249999999921
0
LINE
8
BLACK
6
CONTINUOUS
10
88.154057999999992
20
-92.2199269999999984
11
88.456286999999989
21
-91.8260539999999992
0
LINE
8
BLACK
6
CONTINUOUS
10
89.7768059999999934
20
-95.0140679999999946
11
89.2845879999999994
21
-94.9492659999999944
0
LINE
8
BLACK
6
CONTINUOUS
10
94.8594959999999929
20
-96.7394089999999949
11
94.557266999999996
21
-97.1332809999999967
0
LINE
8
BLACK
6
CONTINUOUS
10
88.5479309999999913
20
-90.4278439999999932
11
88.2996979999999922
21
-89.9978919999999931
0
LINE
8
BLACK
6
CONTINUOUS
10
93.0674130000000019
20
-97.1332809999999967
11
92.7651839999999908
21
-96.7394089999999949
0
LINE
8
BLACK
6
CONTINUOUS
10
96.665892999999997
20
-96.4174989999999923
11
96.1863439999999912
21
-96.2890039999999914
0
LINE
8
BLACK
6
CONTINUOUS
10
92.3352319999999906
20
-96.9876419999999939
11
92.0869989999999916
21
-96.5576899999999938
0
LINE
8
BLACK
6
CONTINUOUS
10
91.438334999999995
20
-96.2890039999999914
11
90.9587859999999893
21
-96.4174989999999923
0
LINE
8
BLACK
6
CONTINUOUS
10
93.4612860000000012
20
-96.8310519999999997
11
93.0674130000000019
21
-97.1332809999999967
0
LINE
8
BLACK
6
CONTINUOUS
10
92.0869989999999916
20
-96.5576899999999938
11
91.6283249999999896
21
-96.7476789999999909
0
LINE
8
BLACK
6
CONTINUOUS
10
88.5396609999999953
20
-89.2909839999999946
11
88.9983349999999973
21
-89.1009949999999975
0
LINE
8
BLACK
6
CONTINUOUS
10
89.7768059999999934
20
-87.9359309999999965
11
89.7768059999999934
21
-87.4394659999999959
0
ARC
8
BLACK
10
82.9121439999999978
20
-84.4749860000000012
40
2.9998008467473301
50
150.54810818
51
176.29730269
0
LINE
8
BLACK
6
CONTINUOUS
10
90.830292
20
-95.9379500000000007
11
90.3380729999999943
21
-96.002752000000001
0
LINE
8
BLACK
6
CONTINUOUS
10
89.3493890000000022
20
-94.4570480000000003
11
88.8698399999999964
21
-94.3285529999999994
0
LINE
8
BLACK
6
CONTINUOUS
10
85.7123440000000016
20
-84.4749999999999943
11
85.9060619999999915
21
-84.2812819999999903
0
LINE
8
BLACK
6
CONTINUOUS
10
95.5376809999999921
20
-96.5576899999999938
11
95.289447999999993
21
-96.9876419999999939
0
ARC
8
BLACK
10
82.9123439999999903
20
-84.4749860000000012
40
3.0000111833408223
50
-176.29691123
51
-93.70266701
0
LINE
8
BLACK
6
CONTINUOUS
10
95.9963549999999941
20
-96.7476789999999909
11
95.5376809999999921
21
-96.5576899999999938
0
ARC
8
BLACK
10
82.9126440000000002
20
-84.4748859999999979
40
2.9996814316518678
50
3.70054021
51
29.45112080
0
LINE
8
BLACK
6
CONTINUOUS
10
79.9185969999999912
20
-84.6687450000000013
11
80.1123439999999931
21
-84.4749999999999943
0
LINE
8
BLACK
6
CONTINUOUS
10
97.2866059999999919
20
-96.002752000000001
11
96.7943879999999979
21
-95.9379500000000007
0
LINE
8
BLACK
6
CONTINUOUS
10
88.7296499999999924
20
-89.7496589999999941
11
88.5396609999999953
21
-89.2909839999999946
0
LINE
8
BLACK
6
CONTINUOUS
10
88.456286999999989
20
-91.8260539999999992
11
88.1052329999999984
21
-91.4749999999999943
0
LINE
8
BLACK
6
CONTINUOUS
10
88.9983349999999973
20
-93.8490039999999937
11
88.5396609999999953
21
-93.6590149999999966
0
LINE
8
BLACK
6
CONTINUOUS
10
90.2732719999999915
20
-95.5105339999999927
11
89.7768059999999934
21
-95.5105339999999927
0
LINE
8
BLACK
6
CONTINUOUS
10
94.557266999999996
20
-97.1332809999999967
11
94.1633939999999967
21
-96.8310519999999997
0
LINE
8
BLACK
6
CONTINUOUS
10
88.5479309999999913
20
-92.5221559999999954
11
88.154057999999992
21
-92.2199269999999984
0
LINE
8
BLACK
6
CONTINUOUS
10
88.8698399999999964
20
-88.6214459999999917
11
89.3493890000000022
21
-88.4929520000000025
0
LINE
8
BLACK
6
CONTINUOUS
10
97.3514079999999922
20
-95.5105339999999927
11
97.2866059999999919
21
-96.002752000000001
0
LINE
8
BLACK
6
CONTINUOUS
10
89.2845879999999994
20
-88.0007329999999968
11
89.7768059999999934
21
-87.9359309999999965
0
LINE
8
BLACK
6
CONTINUOUS
10
88.8698399999999964
20
-94.3285529999999994
11
88.9983349999999973
21
-93.8490039999999937
0
LINE
8
BLACK
6
CONTINUOUS
10
88.9983349999999973
20
-89.1009949999999975
11
88.8698399999999964
21
-88.6214459999999917
0
LINE
8
BLACK
6
CONTINUOUS
10
88.154057999999992
20
-90.7300729999999902
11
88.5479309999999913
21
-90.4278439999999932
0
LINE
8
BLACK
6
CONTINUOUS
10
88.2996979999999922
20
-89.9978919999999931
11
88.7296499999999924
21
-89.7496589999999941
0
LINE
8
BLACK
6
CONTINUOUS
10
89.3493890000000022
20
-88.4929520000000025
11
89.2845879999999994
21
-88.0007329999999968
0
LINE
8
BLACK
6
CONTINUOUS
10
95.289447999999993
20
-96.9876419999999939
11
94.8594959999999929
21
-96.7394089999999949
0
LINE
8
BLACK
6
CONTINUOUS
10
90.9587859999999893
20
-96.4174989999999923
11
90.830292
21
-95.9379500000000007
0
LINE
8
BLACK
6
CONTINUOUS
10
89.2845879999999994
20
-94.9492659999999944
11
89.3493890000000022
21
-94.4570480000000003
0
LINE
8
BLACK
6
CONTINUOUS
10
88.2996979999999922
20
-92.9521079999999955
11
88.5479309999999913
21
-92.5221559999999954
0
LINE
8
BLACK
6
CONTINUOUS
10
89.7768059999999934
20
-87.4394659999999959
11
90.2732719999999915
21
-87.4394659999999959
0
LINE
8
BLACK
6
CONTINUOUS
10
90.3380729999999943
20
-96.002752000000001
11
90.2732719999999915
21
-95.5105339999999927
0
LINE
8
BLACK
6
CONTINUOUS
10
96.1863439999999912
20
-96.2890039999999914
11
95.9963549999999941
21
-96.7476789999999909
0
LINE
8
BLACK
6
CONTINUOUS
10
89.7768059999999934
20
-95.5105339999999927
11
89.7768059999999934
21
-95.0140679999999946
0
LINE
8
BLACK
6
CONTINUOUS
10
82.7186069999999916
20
-87.4687349999999952
11
82.9123439999999903
21
-87.2749999999999915
0
LINE
8
BLACK
6
CONTINUOUS
10
96.7943879999999979
20
-95.9379500000000007
11
96.665892999999997
21
-96.4174989999999923
0
LINE
8
BLACK
6
CONTINUOUS
10
92.7651839999999908
20
-96.7394089999999949
11
92.3352319999999906
21
-96.9876419999999939
0
LINE
8
BLACK
6
CONTINUOUS
10
88.7296499999999924
20
-93.2003399999999971
11
88.2996979999999922
21
-92.9521079999999955
0
LINE
8
BLACK
6
CONTINUOUS
10
93.8123399999999918
20
-97.1821059999999903
11
93.4612860000000012
21
-96.8310519999999997
0
LINE
8
BLACK
6
CONTINUOUS
10
94.1633939999999967
20
-96.8310519999999997
11
93.8123399999999918
21
-97.1821059999999903
0
LINE
8
BLACK
6
CONTINUOUS
10
91.6283249999999896
20
-96.7476789999999909
11
91.438334999999995
21
-96.2890039999999914
0
LINE
8
BLACK
6
CONTINUOUS
10
88.5396609999999953
20
-93.6590149999999966
11
88.7296499999999924
21
-93.2003399999999971
0
LINE
8
BLACK
6
CONTINUOUS
10
88.456286999999989
20
-91.123944999999992
11
88.154057999999992
21
-90.7300729999999902
0
LINE
8
BLACK
6
CONTINUOUS
10
85.9060819999999978
20
-84.668736999999993
11
85.7123440000000016
21
-84.4749999999999943
0
ARC
8
BLACK
10
82.9123439999999903
20
-84.4749860000000012
40
3.0000011104406274
50
-86.29753030
51
-3.70294740
0
LINE
8
BLACK
6
CONTINUOUS
10
80.1123439999999931
20
-84.4749999999999943
11
79.9186049999999994
21
-84.2812610000000006
0
LINE
8
BLACK
6
CONTINUOUS
10
76.2000000000000028
20
-0.2
11
76.2000000000000028
21
-92.7000000000000028
0
LINE
8
BLACK
6
CONTINUOUS
10
7.5
20
-100.1999999999999886
11
68.7000000000000028
21
-100.1999999999999886
0
ARC
8
BLACK
10
72.7000000000000028
20
-96.6999999999999886
40
3.5
50
90.00000000
51
180.00000000
0
ARC
8
BLACK
10
75.7000000000000028
20
-92.7000000000000028
40
0.5
50
-90.00000000
51
-0.00000000
0
LINE
8
BLACK
6
CONTINUOUS
10
75.7000000000000028
20
-93.2000000000000028
11
72.7000000000000028
21
-93.2000000000000028
0
ARC
8
BLACK
10
68.7000000000000028
20
-99.6999999999999886
40
0.5
50
-90.00000000
51
-0.00000000
0
LINE
8
BLACK
6
CONTINUOUS
10
69.2000000000000028
20
-99.6999999999999886
11
69.2000000000000028
21
-96.6999999999999886
0
ARC
8
BLACK
10
3.5
20
-96.6999999999999886
40
3.5
50
0.00000000
51
90.00000000
0
ARC
8
BLACK
10
7.5
20
-99.6999999999999886
40
0.5
50
-180.00000000
51
-90.00000000
0
LINE
8
BLACK
6
CONTINUOUS
10
7.
20
-99.6999999999999886
11
7.
21
-96.6999999999999886
0
ARC
8
BLACK
10
0.5
20
-92.7000000000000028
40
0.5
50
-180.00000000
51
-90.00000000
0
LINE
8
BLACK
6
CONTINUOUS
10
0.5
20
-93.2000000000000028
11
3.5
21
-93.2000000000000028
0
LINE
8
BLACK
6
CONTINUOUS
10
0.
20
-92.7000000000000028
11
0.
21
-70.0999999999999943
0
CIRCLE
8
BLACK
10
73.
20
-3.1999999999999997
40
1.5
0
ARC
8
BLACK
10
76.
20
-0.2
40
0.2
50
0.00000000
51
90.00000000
0
CIRCLE
8
BLACK
10
3.1999999999999997
20
-3.1999999999999997
40
1.5
0
LINE
8
BLACK
6
CONTINUOUS
10
76.
20
0.
11
0.2
21
0.
0
ARC
8
BLACK
10
0.2
20
-0.2
40
0.2
50
90.00000000
51
180.00000000
0
LINE
8
BLACK
6
CONTINUOUS
10
0.
20
-0.2
11
0.
21
-70.0999999999999943
0
CIRCLE
8
BLACK
10
48.0999999999999943
20
-43.1000000000000014
40
3.3999999999999999
0
CIRCLE
8
BLACK
10
8.0999999999999996
20
-43.1000000000000014
40
3.3999999999999999
0
CIRCLE
8
BLACK
10
8.0999999999999996
20
-58.0999999999999943
40
3.3999999999999999
0
CIRCLE
8
BLACK
10
28.0999999999999979
20
-43.1000000000000014
40
3.3999999999999999
0
CIRCLE
8
BLACK
10
68.0999999999999943
20
-58.0999999999999943
40
3.3999999999999999
0
CIRCLE
8
BLACK
10
28.0999999999999979
20
-58.0999999999999943
40
3.3999999999999999
0
CIRCLE
8
BLACK
10
48.0999999999999943
20
-58.0999999999999943
40
3.3999999999999999
0
CIRCLE
8
BLACK
10
68.0999999999999943
20
-43.1000000000000014
40
3.3999999999999999
0
CIRCLE
8
BLACK
10
62.5999999999999943
20
-90.0999999999999943
40
6.
0
CIRCLE
8
BLACK
10
13.5999999999999996
20
-90.0999999999999943
40
6.
  0
ENDSEC
  0
EOF
